#N canvas 4 175 1920 1041 12;
#X obj 435 407 dac~;
#N canvas 855 323 651 639 cymbal 0;
#X obj 38 40 noise~;
#N canvas 987 313 783 491 vol_env 0;
#X obj 72 225 vline~;
#X obj 100 142 f 250;
#X obj 102 66 inlet;
#X obj 73 266 outlet~;
#X obj 200 72 inlet;
#X msg 72 188 1 2 \, 0.4 \$1 2 \, 0 \$1 \$1;
#X connect 0 0 3 0;
#X connect 1 0 5 0;
#X connect 2 0 1 0;
#X connect 4 0 1 1;
#X connect 5 0 0 0;
#X restore 197 155 pd vol_env;
#X floatatom 209 106 0 0 0 1 dur - -;
#N canvas 684 332 593 300 filter 0;
#X obj 21 15 inlet~;
#X obj 20 211 outlet~;
#X obj 20 41 biquad~ 0.638282 -0.176456 0.134544 0.269887 0.134544
;
#X obj 18 101 biquad~ 0.88843 -0.568944 0.614344 -1.22869 0.614344
;
#X obj 18 127 biquad~ 1.86587 -0.892661 0.939432 -1.87886 0.939432
;
#X text 119 159 some filters resonat lowpass at 7000hz \, q=0.6 resonant
hightpass at 6800hz \, q=1.5 another one of these too resonant highpass
at 1200hz \, q=1.5;
#X obj 19 68 biquad~ 0.88843 -0.568944 0.614344 -1.22869 0.614344;
#X connect 0 0 2 0;
#X connect 2 0 6 0;
#X connect 3 0 4 0;
#X connect 4 0 1 0;
#X connect 6 0 3 0;
#X restore 39 138 pd filter;
#X obj 38 207 *~;
#N canvas 932 420 925 289 six_pulse_oscs 0;
#X obj 26 74 phasor~ 220;
#X obj 26 100 expr~ $v1 > 0.55;
#X obj 150 98 expr~ $v1 > 0.55;
#X obj 24 8 inlet;
#X obj 149 42 * 1.342;
#X obj 149 72 phasor~;
#X obj 278 95 expr~ $v1 > 0.55;
#X obj 277 69 phasor~;
#X obj 419 100 expr~ $v1 > 0.55;
#X obj 418 74 phasor~;
#X obj 552 96 expr~ $v1 > 0.55;
#X obj 551 70 phasor~;
#X obj 688 93 expr~ $v1 > 0.55;
#X obj 687 67 phasor~;
#X obj 274 38 * 1.2312;
#X obj 419 39 * 1.6532;
#X obj 549 36 * 1.8523;
#X obj 684 35 * 2.1523;
#X obj 28 171 *~ 0.9;
#X obj 28 226 outlet~;
#X text 71 9 freq;
#X connect 0 0 1 0;
#X connect 1 0 18 0;
#X connect 2 0 18 0;
#X connect 3 0 0 0;
#X connect 3 0 4 0;
#X connect 3 0 14 0;
#X connect 3 0 15 0;
#X connect 3 0 16 0;
#X connect 3 0 17 0;
#X connect 4 0 5 0;
#X connect 5 0 2 0;
#X connect 6 0 18 0;
#X connect 7 0 6 0;
#X connect 8 0 18 0;
#X connect 9 0 8 0;
#X connect 10 0 18 0;
#X connect 11 0 10 0;
#X connect 12 0 18 0;
#X connect 13 0 12 0;
#X connect 14 0 7 0;
#X connect 15 0 9 0;
#X connect 16 0 11 0;
#X connect 17 0 13 0;
#X connect 18 0 19 0;
#X restore 92 29 pd six_pulse_oscs;
#X floatatom 94 -4 5 0 0 0 - - -;
#X obj 39 170 freeverb~;
#X obj 94 244 delwrite~ \$0-del 10;
#X obj 111 275 delread~ \$0-del 5;
#X obj 207 59 inlet;
#X obj 315 -42 inlet;
#X text 135 -47 pitch;
#X obj 15 -41 inlet;
#X obj 127 322 outlet~;
#X obj 193 -51 loadbang;
#X msg 193 -25 220;
#X connect 0 0 3 0;
#X connect 1 0 4 1;
#X connect 2 0 1 1;
#X connect 3 0 7 0;
#X connect 4 0 8 0;
#X connect 5 0 3 0;
#X connect 6 0 5 0;
#X connect 7 0 4 0;
#X connect 9 0 14 0;
#X connect 10 0 2 0;
#X connect 11 0 6 0;
#X connect 13 0 1 0;
#X connect 15 0 16 0;
#X connect 16 0 6 0;
#X restore 448 263 pd cymbal;
#X obj 436 210 bng 15 250 50 0 empty empty empty 17 7 0 10 -262144
-1 -1;
#X floatatom 553 213 5 0 0 0 - - -;
#X floatatom 481 214 5 0 0 0 - - -;
#X obj 464 47 vsl 15 128 10 1000 0 0 empty hh_decay empty 0 -9 0 10
-262144 -1 -1 513 1;
#X obj 552 53 vsl 15 128 110 1100 0 0 empty hh_pitch empty 0 -9 0 10
-262144 -1 -1 1411 1;
#X msg 659 417 \; hh_decay 50 \; hh_pitch 220 \;;
#X obj 808 168 tgl 15 0 empty empty empty 17 7 0 10 -262144 -1 -1 0
1;
#X obj 809 200 metro 110;
#X obj 809 225 s hh;
#X obj 389 134 r hh;
#X msg 656 304 \; hh_decay 90 \; hh_pitch 520 \;;
#X msg 658 194 \; hh_decay 120 \; hh_pitch 320 \;;
#X obj 54 14 bng 30 250 50 0 empty empty empty 17 7 0 10 -262144 -1
-1;
#X obj 90 15 bng 30 250 50 0 empty empty empty 17 7 0 10 -262144 -1
-1;
#X obj 132 15 bng 30 250 50 0 empty empty empty 17 7 0 10 -262144 -1
-1;
#X obj 168 15 bng 30 250 50 0 empty empty empty 17 7 0 10 -262144 -1
-1;
#X msg 55 56 1;
#X msg 93 56 2;
#X msg 133 57 3;
#X msg 173 57 4;
#X obj 87 130 sel 1 2 3 4;
#X obj 3 176 t b b;
#X obj 119 181 t b b;
#X obj 213 180 t b b;
#X obj 322 184 t b b;
#X obj 134 262 del 5;
#X obj -10 214 s hh1;
#X obj 106 219 s hh2;
#X obj 222 228 s hh3;
#X obj 336 218 s hh4;
#X obj 136 302 s hh;
#X msg 661 86 \; hh_decay 150 \; hh_pitch 520 \;;
#X obj 661 41 r hh1;
#X obj 658 158 r hh2;
#X obj 656 267 r hh3;
#X obj 659 380 r hh4;
#X obj 435 363 *~ 0.75;
#X connect 1 0 38 0;
#X connect 2 0 1 0;
#X connect 3 0 1 2;
#X connect 4 0 1 1;
#X connect 5 0 4 0;
#X connect 6 0 3 0;
#X connect 8 0 9 0;
#X connect 9 0 10 0;
#X connect 11 0 2 0;
#X connect 14 0 18 0;
#X connect 15 0 19 0;
#X connect 16 0 20 0;
#X connect 17 0 21 0;
#X connect 18 0 22 0;
#X connect 19 0 22 0;
#X connect 20 0 22 0;
#X connect 21 0 22 0;
#X connect 22 0 23 0;
#X connect 22 1 24 0;
#X connect 22 2 25 0;
#X connect 22 3 26 0;
#X connect 23 0 28 0;
#X connect 23 1 27 0;
#X connect 24 0 29 0;
#X connect 24 1 27 0;
#X connect 25 0 30 0;
#X connect 25 1 27 0;
#X connect 26 0 31 0;
#X connect 26 1 27 0;
#X connect 27 0 32 0;
#X connect 34 0 33 0;
#X connect 35 0 13 0;
#X connect 36 0 12 0;
#X connect 37 0 7 0;
#X connect 38 0 0 0;
#X connect 38 0 0 1;
