#N canvas -8 -8 1920 997 12;
#X obj 933 212 tgl 15 0 empty empty empty 17 7 0 10 -262144 -1 -1 0
1;
#X obj 594 541 *~ 0.25;
#X obj 597 588 dac~;
#X obj 934 244 metro 110;
#X obj 934 269 s snare;
#N canvas 1005 393 718 425 snare 0;
#X obj 170 202 noise~;
#X obj 193 305 *~;
#X obj 248 124 f 250;
#N canvas 661 169 450 300 vol_env 0;
#X obj 37 37 inlet;
#X obj 37 137 vline~;
#X obj 37 163 *~;
#X msg 39 99 1 0.5 \, 0 \$1 0.5;
#X obj 37 189 outlet~;
#X connect 0 0 3 0;
#X connect 1 0 2 0;
#X connect 1 0 2 1;
#X connect 2 0 4 0;
#X connect 3 0 1 0;
#X restore 248 164 pd vol_env;
#X obj 170 228 hip~ 100;
#X obj 194 347 vcf~ 3;
#X obj 247 348 vcf~ 5;
#X text 313 367 first outlet of vcf is BANDPASS;
#N canvas 661 169 450 300 cutoff_env 0;
#X obj 37 37 inlet;
#X obj 37 137 vline~;
#X obj 37 163 *~;
#X msg 39 99 1 0.5 \, 0 \$1 0.5;
#X obj 37 189 outlet~;
#X connect 0 0 3 0;
#X connect 1 0 2 0;
#X connect 1 0 2 1;
#X connect 2 0 4 0;
#X connect 3 0 1 0;
#X restore 415 249 pd cutoff_env;
#X obj 415 275 *~ 8000;
#X obj 415 301 +~ 100;
#X obj 476 274 *~ 5000;
#X obj 476 300 +~ 200;
#N canvas 642 347 450 300 FM_OSC 0;
#X obj 56 150 osc~;
#X obj 55 229 *~;
#X obj 199 188 *~;
#X obj 55 117 +~;
#X obj 55 61 sig~ 150;
#X obj 121 24 osc~ 50;
#X obj 121 50 *~ 30;
#X obj 200 139 inlet~;
#X obj 60 273 outlet~;
#X connect 0 0 1 0;
#X connect 1 0 8 0;
#X connect 2 0 1 1;
#X connect 3 0 0 0;
#X connect 4 0 3 0;
#X connect 5 0 6 0;
#X connect 6 0 3 1;
#X connect 7 0 2 1;
#X connect 7 0 2 0;
#X restore 54 192 pd FM_OSC;
#X obj 427 176 * 2;
#X obj 598 225 * 0.6;
#X floatatom 600 197 5 0 0 0 - - -;
#X obj 601 156 inlet;
#X obj 276 87 inlet;
#X obj 197 396 outlet~;
#X obj 229 36 inlet;
#X connect 0 0 4 0;
#X connect 1 0 5 0;
#X connect 1 0 6 0;
#X connect 2 0 3 0;
#X connect 2 0 14 0;
#X connect 3 0 1 1;
#X connect 3 0 13 0;
#X connect 4 0 1 0;
#X connect 5 0 19 0;
#X connect 6 0 19 0;
#X connect 8 0 9 0;
#X connect 8 0 11 0;
#X connect 9 0 10 0;
#X connect 10 0 5 1;
#X connect 11 0 12 0;
#X connect 12 0 6 1;
#X connect 13 0 5 0;
#X connect 13 0 6 0;
#X connect 14 0 8 0;
#X connect 15 0 9 1;
#X connect 15 0 11 1;
#X connect 16 0 15 0;
#X connect 17 0 16 0;
#X connect 18 0 2 1;
#X connect 20 0 2 0;
#X restore 597 493 pd snare 808;
#X floatatom 715 439 5 0 0 1 Noise - -;
#X floatatom 632 439 5 0 0 1 Decay - -;
#X obj 631 294 vsl 15 128 10 3000 0 0 empty snare_decay empty 0 -9
0 10 -262144 -1 -1 170 1;
#X obj 714 296 vsl 15 128 500 10000 0 0 empty snare_noise empty 0 -9
0 10 -262144 -1 -1 8689 1;
#X obj 569 440 bng 15 250 50 0 empty empty empty 17 7 0 10 -262144
-1 -1;
#X msg 858 637 \; snare_decay 150 \; snare_noise 6000 \;;
#X obj 103 76 bng 30 250 50 0 empty empty empty 17 7 0 10 -262144 -1
-1;
#X obj 139 77 bng 30 250 50 0 empty empty empty 17 7 0 10 -262144 -1
-1;
#X obj 181 77 bng 30 250 50 0 empty empty empty 17 7 0 10 -262144 -1
-1;
#X obj 217 77 bng 30 250 50 0 empty empty empty 17 7 0 10 -262144 -1
-1;
#X msg 104 118 1;
#X msg 142 118 2;
#X msg 182 119 3;
#X msg 222 119 4;
#X obj 136 192 sel 1 2 3 4;
#X obj 52 238 t b b;
#X obj 168 243 t b b;
#X obj 262 242 t b b;
#X obj 371 246 t b b;
#X obj 39 276 s snare1;
#X obj 155 281 s snare2;
#X obj 271 290 s snare3;
#X obj 385 280 s snare4;
#X obj 226 390 s snare;
#X msg 863 755 \; snare_decay 50 \; snare_noise 7000 \;;
#X obj 552 403 r snare;
#X obj 855 328 r snare1;
#X obj 855 465 r snare2;
#X obj 864 591 r snare3;
#X obj 864 700 r snare4;
#X obj 163 329 del 5;
#X msg 853 382 \; snare_decay 350 \; snare_noise 3000 \;;
#X msg 858 512 \; snare_decay 250 \; snare_noise 4000 \;;
#X connect 0 0 3 0;
#X connect 1 0 2 0;
#X connect 1 0 2 1;
#X connect 3 0 4 0;
#X connect 5 0 1 0;
#X connect 7 0 5 1;
#X connect 8 0 7 0;
#X connect 9 0 6 0;
#X connect 10 0 5 0;
#X connect 12 0 16 0;
#X connect 13 0 17 0;
#X connect 14 0 18 0;
#X connect 15 0 19 0;
#X connect 16 0 20 0;
#X connect 17 0 20 0;
#X connect 18 0 20 0;
#X connect 19 0 20 0;
#X connect 20 0 21 0;
#X connect 20 1 22 0;
#X connect 20 2 23 0;
#X connect 20 3 24 0;
#X connect 21 0 25 0;
#X connect 21 1 36 0;
#X connect 22 0 26 0;
#X connect 22 1 36 0;
#X connect 23 0 27 0;
#X connect 23 1 36 0;
#X connect 24 0 28 0;
#X connect 24 1 36 0;
#X connect 31 0 10 0;
#X connect 32 0 37 0;
#X connect 33 0 38 0;
#X connect 34 0 11 0;
#X connect 35 0 30 0;
#X connect 36 0 29 0;
