#N canvas 489 260 1015 658 10;
#X obj 50 165 osc~;
#X obj 51 263 *~;
#X obj 53 34 inlet;
#X obj 48 321 outlet~;
#X obj 111 196 r~ helo;
#X obj 68 106 mtof;
#X connect 0 0 1 0;
#X connect 1 0 3 0;
#X connect 2 0 5 0;
#X connect 4 0 1 1;
#X connect 5 0 0 0;
