#N canvas -34 390 1920 997 12;
#N canvas 1021 0 725 988 btntomidi 0;
#X obj 21 25 r btn1;
#X obj 122 25 r btn2;
#X obj 227 24 r btn3;
#X obj 316 28 r btn4;
#X obj 23 201 r btn5;
#X obj 118 204 r btn6;
#X obj 233 202 r btn7;
#X obj 331 205 r btn8;
#X obj 21 76 sel 1 0;
#X obj 122 77 sel 1 0;
#X obj 227 75 sel 1 0;
#X obj 316 77 sel 1 0;
#X obj 24 246 sel 1 0;
#X obj 119 249 sel 1 0;
#X obj 233 248 sel 1 0;
#X obj 331 249 sel 1 0;
#X obj 21 166 s midi;
#X obj 24 334 s midi;
#N canvas 363 146 450 300 C 0;
#X obj 10 11 inlet;
#X msg 15 70 60;
#X obj 38 161 outlet;
#X msg 58 69 0;
#X obj 10 30 t b b b;
#X obj 39 128 pack f f f;
#X msg 105 72 1;
#X connect 0 0 4 0;
#X connect 1 0 5 0;
#X connect 3 0 5 1;
#X connect 4 0 1 0;
#X connect 4 1 3 0;
#X connect 4 2 6 0;
#X connect 5 0 2 0;
#X connect 6 0 5 2;
#X restore 57 132 pd C off;
#N canvas -8 -8 1920 997 C# 0;
#X obj 12 9 inlet;
#X obj 53 68 random 50;
#X obj 59 92 + 50;
#X obj 40 159 outlet;
#X msg 16 67 61;
#X msg 130 67 1;
#X obj 41 126 pack f f f;
#X obj 15 33 t b b b;
#X connect 0 0 7 0;
#X connect 1 0 2 0;
#X connect 2 0 6 1;
#X connect 4 0 6 0;
#X connect 5 0 6 2;
#X connect 6 0 3 0;
#X connect 7 0 4 0;
#X connect 7 1 1 0;
#X connect 7 2 5 0;
#X restore 118 130 pd C#;
#N canvas 363 146 450 300 C# 0;
#X obj 10 11 inlet;
#X obj 38 161 outlet;
#X msg 75 94 0;
#X msg 120 96 1;
#X obj 39 128 pack f f f;
#X obj 18 56 t b b b;
#X msg 22 94 61;
#X connect 0 0 5 0;
#X connect 2 0 4 1;
#X connect 3 0 4 2;
#X connect 4 0 1 0;
#X connect 5 0 6 0;
#X connect 5 1 2 0;
#X connect 5 2 3 0;
#X connect 6 0 4 0;
#X restore 160 131 pd C# off;
#N canvas -8 -8 1920 997 D# 0;
#X obj 12 9 inlet;
#X obj 53 68 random 50;
#X obj 59 92 + 50;
#X obj 40 159 outlet;
#X msg 130 67 1;
#X obj 41 126 pack f f f;
#X obj 15 33 t b b b;
#X msg 16 67 63;
#X connect 0 0 6 0;
#X connect 1 0 2 0;
#X connect 2 0 5 1;
#X connect 4 0 5 2;
#X connect 5 0 3 0;
#X connect 6 0 7 0;
#X connect 6 1 1 0;
#X connect 6 2 4 0;
#X connect 7 0 5 0;
#X restore 320 134 pd D#;
#N canvas 363 146 450 300 D# 0;
#X obj 10 11 inlet;
#X obj 38 161 outlet;
#X msg 75 94 0;
#X msg 120 96 1;
#X obj 39 128 pack f f f;
#X obj 18 56 t b b b;
#X msg 22 94 63;
#X connect 0 0 5 0;
#X connect 2 0 4 1;
#X connect 3 0 4 2;
#X connect 4 0 1 0;
#X connect 5 0 6 0;
#X connect 5 1 2 0;
#X connect 5 2 3 0;
#X connect 6 0 4 0;
#X restore 360 134 pd D# off;
#N canvas -8 -8 1920 997 E 0;
#X obj 12 9 inlet;
#X obj 49 78 random 50;
#X obj 55 102 + 50;
#X obj 40 191 outlet;
#X msg 119 77 1;
#X obj 16 43 t b b b;
#X obj 41 158 pack f f f;
#X msg 12 77 64;
#X connect 0 0 5 0;
#X connect 1 0 2 0;
#X connect 2 0 6 1;
#X connect 4 0 6 2;
#X connect 5 0 7 0;
#X connect 5 1 1 0;
#X connect 5 2 4 0;
#X connect 6 0 3 0;
#X connect 7 0 6 0;
#X restore 23 290 pd E;
#N canvas -8 -8 1920 997 E 0;
#X obj 10 11 inlet;
#X obj 38 161 outlet;
#X msg 58 69 0;
#X obj 10 30 t b b b;
#X obj 39 128 pack f f f;
#X msg 105 72 1;
#X msg 15 70 64;
#X connect 0 0 3 0;
#X connect 2 0 4 1;
#X connect 3 0 6 0;
#X connect 3 1 2 0;
#X connect 3 2 5 0;
#X connect 4 0 1 0;
#X connect 5 0 4 2;
#X connect 6 0 4 0;
#X restore 59 291 pd E off;
#N canvas -8 -8 1920 997 F 0;
#X obj 12 9 inlet;
#X obj 53 68 random 50;
#X obj 59 92 + 50;
#X obj 40 159 outlet;
#X msg 130 67 1;
#X obj 41 126 pack f f f;
#X obj 15 33 t b b b;
#X msg 16 67 65;
#X connect 0 0 6 0;
#X connect 1 0 2 0;
#X connect 2 0 5 1;
#X connect 4 0 5 2;
#X connect 5 0 3 0;
#X connect 6 0 7 0;
#X connect 6 1 1 0;
#X connect 6 2 4 0;
#X connect 7 0 5 0;
#X restore 120 289 pd F;
#N canvas 363 146 450 300 F 0;
#X obj 10 11 inlet;
#X obj 38 161 outlet;
#X msg 75 94 0;
#X msg 120 96 1;
#X obj 39 128 pack f f f;
#X obj 18 56 t b b b;
#X msg 22 94 65;
#X connect 0 0 5 0;
#X connect 2 0 4 1;
#X connect 3 0 4 2;
#X connect 4 0 1 0;
#X connect 5 0 6 0;
#X connect 5 1 2 0;
#X connect 5 2 3 0;
#X connect 6 0 4 0;
#X restore 162 290 pd F off;
#N canvas -8 -8 1920 997 F# 0;
#X obj 12 9 inlet;
#X obj 53 68 random 50;
#X obj 59 92 + 50;
#X obj 40 159 outlet;
#X msg 130 67 1;
#X obj 41 126 pack f f f;
#X obj 15 33 t b b b;
#X msg 16 67 66;
#X connect 0 0 6 0;
#X connect 1 0 2 0;
#X connect 2 0 5 1;
#X connect 4 0 5 2;
#X connect 5 0 3 0;
#X connect 6 0 7 0;
#X connect 6 1 1 0;
#X connect 6 2 4 0;
#X connect 7 0 5 0;
#X restore 228 290 pd F#;
#N canvas 363 146 450 300 F# 0;
#X obj 10 11 inlet;
#X obj 38 161 outlet;
#X msg 75 94 0;
#X msg 120 96 1;
#X obj 39 128 pack f f f;
#X obj 18 56 t b b b;
#X msg 22 94 66;
#X connect 0 0 5 0;
#X connect 2 0 4 1;
#X connect 3 0 4 2;
#X connect 4 0 1 0;
#X connect 5 0 6 0;
#X connect 5 1 2 0;
#X connect 5 2 3 0;
#X connect 6 0 4 0;
#X restore 264 290 pd F# off;
#N canvas -8 -8 1920 997 G 0;
#X obj 12 9 inlet;
#X obj 53 68 random 50;
#X obj 59 92 + 50;
#X obj 40 159 outlet;
#X msg 130 67 1;
#X obj 41 126 pack f f f;
#X obj 15 33 t b b b;
#X msg 16 67 67;
#X connect 0 0 6 0;
#X connect 1 0 2 0;
#X connect 2 0 5 1;
#X connect 4 0 5 2;
#X connect 5 0 3 0;
#X connect 6 0 7 0;
#X connect 6 1 1 0;
#X connect 6 2 4 0;
#X connect 7 0 5 0;
#X restore 331 291 pd G;
#N canvas 363 146 450 300 G 0;
#X obj 10 11 inlet;
#X obj 38 161 outlet;
#X msg 75 94 0;
#X msg 120 96 1;
#X obj 39 128 pack f f f;
#X obj 18 56 t b b b;
#X msg 22 94 67;
#X connect 0 0 5 0;
#X connect 2 0 4 1;
#X connect 3 0 4 2;
#X connect 4 0 1 0;
#X connect 5 0 6 0;
#X connect 5 1 2 0;
#X connect 5 2 3 0;
#X connect 6 0 4 0;
#X restore 367 291 pd G off;
#X obj 25 416 sel 1 0;
#X obj 120 419 sel 1 0;
#X obj 234 418 sel 1 0;
#X obj 352 415 sel 1 0;
#X obj 25 504 s midi;
#X obj 24 371 r btn9;
#X obj 119 374 r btn10;
#X obj 234 372 r btn11;
#X obj 352 371 r btn12;
#N canvas -8 -8 1920 997 G# 0;
#X obj 12 9 inlet;
#X obj 49 78 random 50;
#X obj 55 102 + 50;
#X obj 40 191 outlet;
#X msg 119 77 1;
#X obj 16 43 t b b b;
#X obj 41 158 pack f f f;
#X msg 12 77 68;
#X connect 0 0 5 0;
#X connect 1 0 2 0;
#X connect 2 0 6 1;
#X connect 4 0 6 2;
#X connect 5 0 7 0;
#X connect 5 1 1 0;
#X connect 5 2 4 0;
#X connect 6 0 3 0;
#X connect 7 0 6 0;
#X restore 24 460 pd G#;
#N canvas -8 -8 1920 997 G# 0;
#X obj 10 11 inlet;
#X obj 38 161 outlet;
#X msg 58 69 0;
#X obj 10 30 t b b b;
#X obj 39 128 pack f f f;
#X msg 105 72 1;
#X msg 15 70 68;
#X connect 0 0 3 0;
#X connect 2 0 4 1;
#X connect 3 0 6 0;
#X connect 3 1 2 0;
#X connect 3 2 5 0;
#X connect 4 0 1 0;
#X connect 5 0 4 2;
#X connect 6 0 4 0;
#X restore 60 461 pd G# off;
#N canvas -8 -8 1920 997 A 0;
#X obj 12 9 inlet;
#X obj 53 68 random 50;
#X obj 59 92 + 50;
#X obj 40 159 outlet;
#X msg 130 67 1;
#X obj 41 126 pack f f f;
#X obj 15 33 t b b b;
#X msg 16 67 69;
#X connect 0 0 6 0;
#X connect 1 0 2 0;
#X connect 2 0 5 1;
#X connect 4 0 5 2;
#X connect 5 0 3 0;
#X connect 6 0 7 0;
#X connect 6 1 1 0;
#X connect 6 2 4 0;
#X connect 7 0 5 0;
#X restore 121 459 pd A;
#N canvas 363 146 450 300 A 0;
#X obj 10 11 inlet;
#X obj 38 161 outlet;
#X msg 75 94 0;
#X msg 120 96 1;
#X obj 39 128 pack f f f;
#X obj 18 56 t b b b;
#X msg 22 94 69;
#X connect 0 0 5 0;
#X connect 2 0 4 1;
#X connect 3 0 4 2;
#X connect 4 0 1 0;
#X connect 5 0 6 0;
#X connect 5 1 2 0;
#X connect 5 2 3 0;
#X connect 6 0 4 0;
#X restore 158 460 pd A off;
#N canvas -8 -8 1920 997 A# 0;
#X obj 12 9 inlet;
#X obj 53 68 random 50;
#X obj 59 92 + 50;
#X obj 40 159 outlet;
#X msg 130 67 1;
#X obj 41 126 pack f f f;
#X obj 15 33 t b b b;
#X msg 16 67 70;
#X connect 0 0 6 0;
#X connect 1 0 2 0;
#X connect 2 0 5 1;
#X connect 4 0 5 2;
#X connect 5 0 3 0;
#X connect 6 0 7 0;
#X connect 6 1 1 0;
#X connect 6 2 4 0;
#X connect 7 0 5 0;
#X restore 229 460 pd A#;
#N canvas -8 -8 1920 997 A# 0;
#X obj 10 11 inlet;
#X obj 38 161 outlet;
#X msg 75 94 0;
#X msg 120 96 1;
#X obj 39 128 pack f f f;
#X obj 18 56 t b b b;
#X msg 22 94 70;
#X connect 0 0 5 0;
#X connect 2 0 4 1;
#X connect 3 0 4 2;
#X connect 4 0 1 0;
#X connect 5 0 6 0;
#X connect 5 1 2 0;
#X connect 5 2 3 0;
#X connect 6 0 4 0;
#X restore 267 460 pd A# off;
#N canvas -8 -8 1920 997 B 0;
#X obj 12 9 inlet;
#X obj 53 68 random 50;
#X obj 59 92 + 50;
#X obj 40 159 outlet;
#X msg 130 67 1;
#X obj 41 126 pack f f f;
#X obj 15 33 t b b b;
#X msg 16 67 71;
#X connect 0 0 6 0;
#X connect 1 0 2 0;
#X connect 2 0 5 1;
#X connect 4 0 5 2;
#X connect 5 0 3 0;
#X connect 6 0 7 0;
#X connect 6 1 1 0;
#X connect 6 2 4 0;
#X connect 7 0 5 0;
#X restore 352 457 pd B;
#N canvas 363 146 450 300 B 0;
#X obj 10 11 inlet;
#X obj 38 161 outlet;
#X msg 75 94 0;
#X msg 120 96 1;
#X obj 39 128 pack f f f;
#X obj 18 56 t b b b;
#X msg 22 94 71;
#X connect 0 0 5 0;
#X connect 2 0 4 1;
#X connect 3 0 4 2;
#X connect 4 0 1 0;
#X connect 5 0 6 0;
#X connect 5 1 2 0;
#X connect 5 2 3 0;
#X connect 6 0 4 0;
#X restore 389 460 pd B off;
#X obj 22 608 sel 1 0;
#X obj 117 611 sel 1 0;
#X obj 251 612 sel 1 0;
#X obj 369 609 sel 1 0;
#X obj 22 696 s midi;
#X obj 21 563 r btn13;
#X obj 116 566 r btn14;
#X obj 251 566 r btn15;
#X obj 369 565 r btn16;
#N canvas -8 -8 1920 997 C6 0;
#X obj 12 9 inlet;
#X obj 49 78 random 50;
#X obj 55 102 + 50;
#X obj 40 191 outlet;
#X msg 119 77 1;
#X obj 16 43 t b b b;
#X obj 41 158 pack f f f;
#X msg 12 77 72;
#X connect 0 0 5 0;
#X connect 1 0 2 0;
#X connect 2 0 6 1;
#X connect 4 0 6 2;
#X connect 5 0 7 0;
#X connect 5 1 1 0;
#X connect 5 2 4 0;
#X connect 6 0 3 0;
#X connect 7 0 6 0;
#X restore 21 652 pd C6;
#N canvas -8 -8 1920 997 C6 0;
#X obj 10 11 inlet;
#X obj 38 161 outlet;
#X msg 58 69 0;
#X obj 10 30 t b b b;
#X obj 39 128 pack f f f;
#X msg 105 72 1;
#X msg 15 70 72;
#X connect 0 0 3 0;
#X connect 2 0 4 1;
#X connect 3 0 6 0;
#X connect 3 1 2 0;
#X connect 3 2 5 0;
#X connect 4 0 1 0;
#X connect 5 0 4 2;
#X connect 6 0 4 0;
#X restore 57 653 pd C6 off;
#N canvas -8 -8 1920 997 C5 0;
#X obj 12 9 inlet;
#X msg 12 77 60;
#X obj 49 78 random 50;
#X obj 55 102 + 50;
#X obj 40 191 outlet;
#X msg 119 77 1;
#X obj 16 43 t b b b;
#X obj 41 158 pack f f f;
#X connect 0 0 6 0;
#X connect 1 0 7 0;
#X connect 2 0 3 0;
#X connect 3 0 7 1;
#X connect 5 0 7 2;
#X connect 6 0 1 0;
#X connect 6 1 2 0;
#X connect 6 2 5 0;
#X connect 7 0 4 0;
#X restore 21 131 pd C5;
#N canvas -8 -8 1920 997 D 0;
#X obj 12 9 inlet;
#X obj 53 68 random 50;
#X obj 59 92 + 50;
#X obj 40 159 outlet;
#X msg 130 67 1;
#X obj 41 126 pack f f f;
#X obj 15 33 t b b b;
#X msg 16 67 62;
#X connect 0 0 6 0;
#X connect 1 0 2 0;
#X connect 2 0 5 1;
#X connect 4 0 5 2;
#X connect 5 0 3 0;
#X connect 6 0 7 0;
#X connect 6 1 1 0;
#X connect 6 2 4 0;
#X connect 7 0 5 0;
#X restore 226 131 pd D;
#N canvas 363 146 450 300 D 0;
#X obj 10 11 inlet;
#X obj 38 161 outlet;
#X msg 75 94 0;
#X msg 120 96 1;
#X obj 39 128 pack f f f;
#X obj 18 56 t b b b;
#X msg 22 94 62;
#X connect 0 0 5 0;
#X connect 2 0 4 1;
#X connect 3 0 4 2;
#X connect 4 0 1 0;
#X connect 5 0 6 0;
#X connect 5 1 2 0;
#X connect 5 2 3 0;
#X connect 6 0 4 0;
#X restore 258 131 pd D off;
#N canvas -8 -8 1920 997 C#6 0;
#X obj 12 9 inlet;
#X obj 53 68 random 50;
#X obj 59 92 + 50;
#X obj 40 159 outlet;
#X msg 130 67 1;
#X obj 41 126 pack f f f;
#X obj 15 33 t b b b;
#X msg 16 67 73;
#X connect 0 0 6 0;
#X connect 1 0 2 0;
#X connect 2 0 5 1;
#X connect 4 0 5 2;
#X connect 5 0 3 0;
#X connect 6 0 7 0;
#X connect 6 1 1 0;
#X connect 6 2 4 0;
#X connect 7 0 5 0;
#X restore 118 651 pd C#6;
#N canvas 363 146 450 300 C#6 0;
#X obj 10 11 inlet;
#X obj 38 161 outlet;
#X msg 75 94 0;
#X msg 120 96 1;
#X obj 39 128 pack f f f;
#X obj 18 56 t b b b;
#X msg 22 94 73;
#X connect 0 0 5 0;
#X connect 2 0 4 1;
#X connect 3 0 4 2;
#X connect 4 0 1 0;
#X connect 5 0 6 0;
#X connect 5 1 2 0;
#X connect 5 2 3 0;
#X connect 6 0 4 0;
#X restore 165 652 pd C#6 off;
#N canvas -8 -8 1920 997 D6 0;
#X obj 12 9 inlet;
#X obj 53 68 random 50;
#X obj 59 92 + 50;
#X obj 40 159 outlet;
#X msg 130 67 1;
#X obj 41 126 pack f f f;
#X obj 15 33 t b b b;
#X msg 16 67 74;
#X connect 0 0 6 0;
#X connect 1 0 2 0;
#X connect 2 0 5 1;
#X connect 4 0 5 2;
#X connect 5 0 3 0;
#X connect 6 0 7 0;
#X connect 6 1 1 0;
#X connect 6 2 4 0;
#X connect 7 0 5 0;
#X restore 246 654 pd D6;
#N canvas -8 -8 1920 997 D6 0;
#X obj 10 11 inlet;
#X obj 38 161 outlet;
#X msg 75 94 0;
#X msg 120 96 1;
#X obj 39 128 pack f f f;
#X obj 18 56 t b b b;
#X msg 22 94 74;
#X connect 0 0 5 0;
#X connect 2 0 4 1;
#X connect 3 0 4 2;
#X connect 4 0 1 0;
#X connect 5 0 6 0;
#X connect 5 1 2 0;
#X connect 5 2 3 0;
#X connect 6 0 4 0;
#X restore 284 654 pd D6 off;
#N canvas -8 -8 1920 997 D#6 0;
#X obj 12 9 inlet;
#X obj 53 68 random 50;
#X obj 59 92 + 50;
#X obj 40 159 outlet;
#X msg 130 67 1;
#X obj 41 126 pack f f f;
#X obj 15 33 t b b b;
#X msg 16 67 75;
#X connect 0 0 6 0;
#X connect 1 0 2 0;
#X connect 2 0 5 1;
#X connect 4 0 5 2;
#X connect 5 0 3 0;
#X connect 6 0 7 0;
#X connect 6 1 1 0;
#X connect 6 2 4 0;
#X connect 7 0 5 0;
#X restore 369 651 pd D#6;
#N canvas 363 146 450 300 D#6 0;
#X obj 10 11 inlet;
#X obj 38 161 outlet;
#X msg 75 94 0;
#X msg 120 96 1;
#X obj 39 128 pack f f f;
#X obj 18 56 t b b b;
#X msg 22 94 75;
#X connect 0 0 5 0;
#X connect 2 0 4 1;
#X connect 3 0 4 2;
#X connect 4 0 1 0;
#X connect 5 0 6 0;
#X connect 5 1 2 0;
#X connect 5 2 3 0;
#X connect 6 0 4 0;
#X restore 417 651 pd D#6 off;
#X connect 0 0 8 0;
#X connect 1 0 9 0;
#X connect 2 0 10 0;
#X connect 3 0 11 0;
#X connect 4 0 12 0;
#X connect 5 0 13 0;
#X connect 6 0 14 0;
#X connect 7 0 15 0;
#X connect 8 0 59 0;
#X connect 8 1 18 0;
#X connect 9 0 19 0;
#X connect 9 1 20 0;
#X connect 10 0 60 0;
#X connect 10 1 61 0;
#X connect 11 0 21 0;
#X connect 11 1 22 0;
#X connect 12 0 23 0;
#X connect 12 1 24 0;
#X connect 13 0 25 0;
#X connect 13 1 26 0;
#X connect 14 0 27 0;
#X connect 14 1 28 0;
#X connect 15 0 29 0;
#X connect 15 1 30 0;
#X connect 18 0 16 0;
#X connect 19 0 16 0;
#X connect 20 0 16 0;
#X connect 21 0 16 0;
#X connect 22 0 16 0;
#X connect 23 0 17 0;
#X connect 24 0 17 0;
#X connect 25 0 17 0;
#X connect 26 0 17 0;
#X connect 27 0 17 0;
#X connect 28 0 17 0;
#X connect 29 0 17 0;
#X connect 30 0 17 0;
#X connect 31 0 40 0;
#X connect 31 1 41 0;
#X connect 32 0 42 0;
#X connect 32 1 43 0;
#X connect 33 0 44 0;
#X connect 33 1 45 0;
#X connect 34 0 46 0;
#X connect 34 1 47 0;
#X connect 36 0 31 0;
#X connect 37 0 32 0;
#X connect 38 0 33 0;
#X connect 39 0 34 0;
#X connect 40 0 35 0;
#X connect 41 0 35 0;
#X connect 42 0 35 0;
#X connect 43 0 35 0;
#X connect 44 0 35 0;
#X connect 45 0 35 0;
#X connect 46 0 35 0;
#X connect 47 0 35 0;
#X connect 48 0 57 0;
#X connect 48 1 58 0;
#X connect 49 0 62 0;
#X connect 49 1 63 0;
#X connect 50 0 64 0;
#X connect 50 1 65 0;
#X connect 51 0 66 0;
#X connect 51 1 67 0;
#X connect 53 0 48 0;
#X connect 54 0 49 0;
#X connect 55 0 50 0;
#X connect 56 0 51 0;
#X connect 57 0 52 0;
#X connect 58 0 52 0;
#X connect 59 0 16 0;
#X connect 60 0 16 0;
#X connect 61 0 16 0;
#X connect 62 0 52 0;
#X connect 63 0 52 0;
#X connect 64 0 52 0;
#X connect 65 0 52 0;
#X connect 66 0 52 0;
#X connect 67 0 52 0;
#X restore 62 58 pd btntomidi;
#X obj 530 69 sel 1 0;
#X obj 530 159 s midi;
#N canvas 363 146 450 300 C 0;
#X obj 10 11 inlet;
#X obj 38 161 outlet;
#X msg 58 69 0;
#X obj 10 30 t b b b;
#X obj 39 128 pack f f f;
#X msg 105 72 1;
#X msg 14 70 60;
#X connect 0 0 3 0;
#X connect 2 0 4 1;
#X connect 3 0 6 0;
#X connect 3 1 2 0;
#X connect 3 2 5 0;
#X connect 4 0 1 0;
#X connect 5 0 4 2;
#X connect 6 0 4 0;
#X restore 577 124 pd C off;
#N canvas -8 -8 1920 997 C5 0;
#X obj 12 9 inlet;
#X obj 49 78 random 50;
#X obj 55 102 + 50;
#X obj 40 191 outlet;
#X msg 119 77 1;
#X obj 16 43 t b b b;
#X obj 41 158 pack f f f;
#X msg 12 77 60;
#X connect 0 0 5 0;
#X connect 1 0 2 0;
#X connect 2 0 6 1;
#X connect 4 0 6 2;
#X connect 5 0 7 0;
#X connect 5 1 1 0;
#X connect 5 2 4 0;
#X connect 6 0 3 0;
#X connect 7 0 6 0;
#X restore 530 124 pd C5;
#X obj 530 37 tgl 15 0 empty empty empty 17 7 0 10 -262144 -1 -1 0
1;
#N canvas 183 76 1131 765 midi 0;
#N canvas 0 50 450 300 monophonic 0;
#X obj 112 268 outlet;
#X obj 214 268 outlet;
#X obj 130 122 stripnote;
#X obj 214 80 t b f;
#X obj 214 120 f;
#X obj 214 147 sel 0;
#X obj 214 175 f;
#X msg 214 237 0;
#X obj 276 268 outlet;
#X obj 214 203 sel -1;
#X obj 216 26 unpack f f f;
#X text 310 26 note velocity chanel;
#X obj 217 1 r midi;
#X connect 2 0 0 0;
#X connect 2 0 9 1;
#X connect 3 0 4 0;
#X connect 3 1 6 1;
#X connect 4 0 5 0;
#X connect 5 0 6 0;
#X connect 5 1 1 0;
#X connect 6 0 9 0;
#X connect 7 0 1 0;
#X connect 9 0 7 0;
#X connect 10 0 2 0;
#X connect 10 0 3 0;
#X connect 10 1 2 1;
#X connect 10 1 4 1;
#X connect 10 2 8 0;
#X connect 12 0 10 0;
#X restore 114 15 pd monophonic;
#X floatatom 105 79 5 0 0 2 Note - -;
#X floatatom 149 81 5 0 0 2 Velocity - -;
#X floatatom 203 82 5 0 0 2 Channel - -;
#X obj 203 174 sel 1;
#X msg 203 197 1;
#X floatatom 235 198 5 0 0 0 - - -;
#X obj 235 218 t b;
#X msg 235 239 0;
#X obj 101 271 spigot 1;
#X obj 149 298 spigot 1;
#X obj 101 326 change;
#X obj 126 405 t b f;
#X obj 77 407 t b f;
#X obj 81 453 pack f f;
#X obj 79 519 outlet;
#X connect 0 0 1 0;
#X connect 0 1 2 0;
#X connect 0 2 3 0;
#X connect 1 0 9 0;
#X connect 2 0 10 0;
#X connect 3 0 4 0;
#X connect 4 0 5 0;
#X connect 4 1 6 0;
#X connect 5 0 9 1;
#X connect 5 0 10 1;
#X connect 6 0 7 0;
#X connect 7 0 8 0;
#X connect 8 0 9 1;
#X connect 8 0 10 1;
#X connect 9 0 11 0;
#X connect 10 0 12 0;
#X connect 11 0 13 0;
#X connect 12 0 14 0;
#X connect 12 1 14 1;
#X connect 13 0 14 0;
#X connect 13 1 14 0;
#X connect 14 0 15 0;
#X restore 564 242 pd midi in;
#X obj 756 145 cnv 15 148 148 empty empty ADSR 5 12 0 14 -1 -162280
0;
#X obj 761 164 cnv 15 138 123 empty empty empty 20 12 0 14 -162280
-66577 0;
#X obj 773 205 hsl 100 15 0.01 1 0 0 \$0-attack-send \$0-attack-recv
A:0.1 3 8 0 10 -99865 -1 -1 900 1;
#X obj 772 224 hsl 100 15 0.01 1 0 0 \$0-decay-send \$0-decay-recv
D:0.4 3 8 0 10 -99865 -1 -1 3900 1;
#X obj 772 243 hsl 100 15 0 0.99 0 0 \$0-sustain-send \$0-sustain-recv
S:0.8 3 8 0 10 -99865 -1 -1 8000 1;
#X obj 773 262 hsl 100 15 0.01 1 0 0 \$0-release-send \$0-release-recv
R:0.4 3 8 0 10 -99865 -1 -1 3900 1;
#X obj 771 184 nbx 5 14 1000 5000 0 0 \$0-duration-send \$0-duration-recv
Duration 0 -8 0 10 -99865 -1 -1 1000 256;
#N canvas -7 0 958 988 adsr~ 0;
#X obj 20 11 inlet velocity;
#X floatatom 20 33 5 0 0 0 - - -;
#X obj 128 10 inlet duration;
#X floatatom 128 32 5 1000 5000 0 - - -;
#X obj 240 6 inlet attack;
#X floatatom 240 28 5 0 0 0 - - -;
#X floatatom 419 26 5 0 0 0 - - -;
#X obj 419 4 inlet sustain;
#X floatatom 332 27 5 0 0 0 - - -;
#X obj 332 5 inlet decay;
#X floatatom 522 25 5 0 0 0 - - -;
#X obj 522 3 inlet release;
#X obj 20 64 sel 0;
#X msg 21 171 0;
#X obj 107 154 f;
#X obj 102 132 delay 10;
#X msg 63 171 1;
#X obj 233 88 *;
#X obj 240 64 t b f;
#X floatatom 233 115 5 0 0 0 - - -;
#X obj 325 89 *;
#X obj 332 65 t b f;
#X floatatom 325 116 5 0 0 0 - - -;
#X obj 515 83 *;
#X obj 522 59 t b f;
#X floatatom 515 110 5 0 0 0 - - -;
#X obj 107 179 / 127;
#X obj 412 89 *;
#X obj 419 65 t b f;
#X floatatom 412 116 5 0 0 0 - - -;
#X obj 85 362 line~;
#X obj 84 399 outlet~;
#X floatatom 107 211 5 0 0 0 - - -;
#X obj 178 270 pack f f;
#X obj 346 236 spigot 0;
#X obj 254 269 delay 10;
#X obj 345 270 pack f f;
#X obj 347 202 f;
#X obj 458 269 pack f f;
#X obj 178 236 t f b;
#X obj 63 98 t b b b f;
#X msg 85 303 0 10;
#X connect 0 0 1 0;
#X connect 1 0 12 0;
#X connect 2 0 3 0;
#X connect 3 0 17 0;
#X connect 3 0 22 0;
#X connect 3 0 23 0;
#X connect 3 0 20 0;
#X connect 4 0 5 0;
#X connect 5 0 18 0;
#X connect 6 0 28 0;
#X connect 7 0 6 0;
#X connect 8 0 21 0;
#X connect 9 0 8 0;
#X connect 10 0 24 0;
#X connect 11 0 10 0;
#X connect 12 0 13 0;
#X connect 12 1 40 0;
#X connect 13 0 34 1;
#X connect 13 0 38 0;
#X connect 14 0 26 0;
#X connect 15 0 14 0;
#X connect 16 0 34 1;
#X connect 17 0 19 0;
#X connect 18 0 17 0;
#X connect 18 1 17 1;
#X connect 19 0 35 1;
#X connect 19 0 33 1;
#X connect 20 0 22 0;
#X connect 21 0 20 0;
#X connect 21 1 20 1;
#X connect 22 0 36 1;
#X connect 23 0 25 0;
#X connect 24 0 23 0;
#X connect 24 1 23 1;
#X connect 25 0 38 1;
#X connect 26 0 32 0;
#X connect 27 0 29 0;
#X connect 28 0 27 0;
#X connect 28 1 27 1;
#X connect 29 0 37 1;
#X connect 30 0 31 0;
#X connect 32 0 27 0;
#X connect 32 0 39 0;
#X connect 33 0 30 0;
#X connect 34 0 36 0;
#X connect 35 0 37 0;
#X connect 36 0 30 0;
#X connect 37 0 34 0;
#X connect 38 0 30 0;
#X connect 39 0 33 0;
#X connect 39 1 35 0;
#X connect 40 0 16 0;
#X connect 40 1 41 0;
#X connect 40 2 15 0;
#X connect 40 3 14 1;
#X connect 41 0 30 0;
#X restore 744 364 pd adsr~;
#X obj 667 129 loadbang;
#X msg 667 171 0.1;
#X msg 708 167 0.4;
#X msg 671 232 0.8;
#N canvas 339 122 450 300 send-receive_adsr 0;
#X obj 41 46 r \$0-attack-send;
#X msg 41 68 label A:\$1;
#X obj 41 90 s \$0-attack-recv;
#X obj 42 115 r \$0-decay-send;
#X obj 42 159 s \$0-decay-recv;
#X msg 42 137 label D:\$1;
#X obj 180 45 r \$0-sustain-send;
#X obj 180 89 s \$0-sustain-recv;
#X msg 180 67 label S:\$1;
#X obj 178 115 r \$0-release-send;
#X msg 178 137 label R:\$1;
#X obj 178 159 s \$0-release-recv;
#X connect 0 0 1 0;
#X connect 1 0 2 0;
#X connect 3 0 5 0;
#X connect 5 0 4 0;
#X connect 6 0 8 0;
#X connect 8 0 7 0;
#X connect 9 0 10 0;
#X connect 10 0 11 0;
#X restore 758 123 pd send-receive_adsr;
#X obj 642 309 change;
#X obj 568 282 unpack f f;
#X obj 751 421 s~ helo;
#X obj 387 71 sel 1 0;
#X obj 387 161 s midi;
#N canvas 363 146 450 300 C 0;
#X obj 10 11 inlet;
#X obj 38 161 outlet;
#X msg 58 69 0;
#X obj 10 30 t b b b;
#X obj 39 128 pack f f f;
#X msg 105 72 1;
#X msg 14 70 62;
#X connect 0 0 3 0;
#X connect 2 0 4 1;
#X connect 3 0 6 0;
#X connect 3 1 2 0;
#X connect 3 2 5 0;
#X connect 4 0 1 0;
#X connect 5 0 4 2;
#X connect 6 0 4 0;
#X restore 434 126 pd C off;
#N canvas -8 -8 1920 997 C5 0;
#X obj 12 9 inlet;
#X obj 49 78 random 50;
#X obj 55 102 + 50;
#X obj 40 191 outlet;
#X msg 119 77 1;
#X obj 16 43 t b b b;
#X obj 41 158 pack f f f;
#X msg 12 77 62;
#X connect 0 0 5 0;
#X connect 1 0 2 0;
#X connect 2 0 6 1;
#X connect 4 0 6 2;
#X connect 5 0 7 0;
#X connect 5 1 1 0;
#X connect 5 2 4 0;
#X connect 6 0 3 0;
#X connect 7 0 6 0;
#X restore 387 126 pd C5;
#X obj 387 39 tgl 15 0 empty empty empty 17 7 0 10 -262144 -1 -1 0
1;
#X floatatom 552 390 5 0 0 0 - - -;
#X floatatom 631 400 5 0 0 0 - - -;
#X connect 1 0 4 0;
#X connect 1 1 3 0;
#X connect 3 0 2 0;
#X connect 4 0 2 0;
#X connect 5 0 1 0;
#X connect 6 0 21 0;
#X connect 9 0 14 2;
#X connect 10 0 14 3;
#X connect 11 0 14 4;
#X connect 12 0 14 5;
#X connect 13 0 14 1;
#X connect 14 0 22 0;
#X connect 15 0 16 0;
#X connect 15 0 17 0;
#X connect 15 0 18 0;
#X connect 15 0 13 0;
#X connect 16 0 9 0;
#X connect 17 0 10 0;
#X connect 17 0 12 0;
#X connect 18 0 11 0;
#X connect 20 0 14 0;
#X connect 21 0 28 0;
#X connect 21 1 20 0;
#X connect 21 1 29 0;
#X connect 23 0 26 0;
#X connect 23 1 25 0;
#X connect 25 0 24 0;
#X connect 26 0 24 0;
#X connect 27 0 23 0;
