#N canvas -8 -8 1920 997 12;
#X obj 514 534 dac~;
#N canvas 177 84 1698 862 noteSelect 0;
#X msg 7 32 220 \$1;
#X obj 466 268 pack 0 0 0;
#X obj 466 291 route 1 2 3 4;
#X obj 466 327 outlet;
#X obj 515 327 outlet;
#X obj 565 327 outlet;
#X obj 615 327 outlet;
#X obj 7 7 r /btn1;
#X msg 67 32 246.94 \$1;
#X obj 67 7 r /btn2;
#X obj 137 7 r /btn3;
#X msg 137 32 261.63 \$1;
#X obj 207 7 r /btn4;
#X msg 207 32 293.66 \$1;
#X obj 277 7 r /btn5;
#X msg 277 32 329.63 \$1;
#X obj 344 7 r /btn6;
#X msg 344 32 349.23 \$1;
#X obj 414 7 r /btn7;
#X msg 414 32 392 \$1;
#X obj 484 7 r /btn8;
#X msg 484 31 440 \$1;
#X obj 537 7 r /btn9;
#X obj 597 7 r /btn10;
#X obj 667 7 r /btn11;
#X obj 737 7 r /btn12;
#X obj 807 7 r /btn13;
#X obj 874 7 r /btn14;
#X obj 944 7 r /btn15;
#X obj 1014 7 r /btn16;
#X msg 537 32 440 \$1;
#X msg 597 32 493.88 \$1;
#X msg 667 32 523.25 \$1;
#X msg 737 32 587.33 \$1;
#X msg 807 32 659.25 \$1;
#X msg 874 32 698.46 \$1;
#X msg 944 32 783.99 \$1;
#X msg 1014 31 880 \$1;
#X obj 466 125 unpack 0 0;
#X obj 466 186 * \$1;
#X obj 487 162 r oct;
#X obj 466 209 pack \$1 \$2;
#X obj 150 136 notein, f 15;
#X obj 150 173 mtof;
#X obj 193 162 sel 0;
#X msg 193 186 0;
#X msg 220 186 1;
#X msg 150 233 \$1 \$2;
#X obj 150 210 pack \$1 \$2;
#X msg 581 159 1;
#X msg 620 159 2;
#X obj 464 242 poly 4 1;
#X obj 204 336 print;
#X obj 830 134 loadbang;
#X floatatom 62 213 5 0 0 0 - - -;
#X floatatom 82 281 5 0 0 0 - - -;
#X connect 0 0 38 0;
#X connect 1 0 2 0;
#X connect 2 0 3 0;
#X connect 2 1 4 0;
#X connect 2 2 5 0;
#X connect 2 3 6 0;
#X connect 7 0 0 0;
#X connect 8 0 38 0;
#X connect 9 0 8 0;
#X connect 10 0 11 0;
#X connect 11 0 38 0;
#X connect 12 0 13 0;
#X connect 13 0 38 0;
#X connect 14 0 15 0;
#X connect 15 0 38 0;
#X connect 16 0 17 0;
#X connect 17 0 38 0;
#X connect 18 0 19 0;
#X connect 19 0 38 0;
#X connect 20 0 21 0;
#X connect 21 0 38 0;
#X connect 22 0 30 0;
#X connect 23 0 31 0;
#X connect 24 0 32 0;
#X connect 25 0 33 0;
#X connect 26 0 34 0;
#X connect 27 0 35 0;
#X connect 28 0 36 0;
#X connect 29 0 37 0;
#X connect 30 0 38 0;
#X connect 31 0 38 0;
#X connect 32 0 38 0;
#X connect 33 0 38 0;
#X connect 34 0 38 0;
#X connect 35 0 38 0;
#X connect 36 0 38 0;
#X connect 37 0 38 0;
#X connect 38 0 39 0;
#X connect 38 1 41 1;
#X connect 39 0 41 0;
#X connect 40 0 39 1;
#X connect 41 0 51 0;
#X connect 42 0 43 0;
#X connect 42 0 54 0;
#X connect 42 1 44 0;
#X connect 43 0 48 0;
#X connect 43 0 55 0;
#X connect 44 0 45 0;
#X connect 44 1 46 0;
#X connect 45 0 48 1;
#X connect 46 0 48 1;
#X connect 47 0 38 0;
#X connect 47 0 52 0;
#X connect 48 0 47 0;
#X connect 49 0 39 1;
#X connect 50 0 39 1;
#X connect 51 0 1 0;
#X connect 51 1 1 1;
#X connect 51 2 1 2;
#X connect 53 0 49 0;
#X restore 540 156 pd noteSelect;
#N canvas 890 146 749 808 effect_pad 0;
#X obj 23 12 inlet~;
#X obj 33 493 outlet~;
#N canvas 1422 265 450 563 wah-wah 0;
#X obj 19 121 inlet~;
#X obj 21 259 vcf~;
#X obj 90 79 osc~ 2;
#X obj 90 105 +~ 1;
#X obj 90 131 *~ 0.5;
#X obj 90 165 *~ 1500;
#X obj 90 191 +~ 200;
#X obj 85 47 hsl 128 15 0 127 0 0 empty empty empty -2 -8 0 10 -262144
-1 -1 0 1;
#X obj 294 222 loadbang;
#X obj 288 293 vsl 15 128 0 20 0 0 empty empty empty 0 -9 0 10 -262144
-1 -1 0 1;
#X obj 175 168 hsl 128 15 0 127 0 0 empty empty empty -2 -8 0 10 -262144
-1 -1 0 1;
#X obj 214 94 hsl 128 15 0 127 0 0 empty empty empty -2 -8 0 10 -262144
-1 -1 0 1;
#X obj 185 119 -;
#X obj 178 73 bang;
#X floatatom 255 140 5 0 0 0 - - -;
#X floatatom 184 220 5 0 0 0 - - -;
#X msg 144 238 200;
#X msg 352 149 1500;
#X obj 24 348 outlet~;
#X obj 349 246 inlet;
#X msg 258 244 5.3;
#X msg 294 248 0;
#X connect 0 0 1 0;
#X connect 1 0 18 0;
#X connect 1 1 18 0;
#X connect 2 0 3 0;
#X connect 3 0 4 0;
#X connect 4 0 5 0;
#X connect 5 0 6 0;
#X connect 6 0 1 1;
#X connect 7 0 2 0;
#X connect 8 0 21 0;
#X connect 9 0 1 2;
#X connect 10 0 6 1;
#X connect 10 0 12 1;
#X connect 10 0 15 0;
#X connect 11 0 12 0;
#X connect 12 0 5 1;
#X connect 12 0 14 0;
#X connect 13 0 10 0;
#X connect 13 0 12 0;
#X connect 16 0 6 1;
#X connect 17 0 5 1;
#X connect 19 0 9 0;
#X connect 20 0 9 0;
#X connect 21 0 9 0;
#X restore 26 119 pd wah-wah;
#N canvas 602 74 392 604 distortion 0;
#X obj 11 8 inlet~;
#X obj 11 358 outlet~;
#X obj 88 51 *~ 40;
#X obj 88 74 clip~ -0.5 0.5;
#X obj 11 271 *~ 1;
#X obj 88 271 *~ 0;
#X msg 32 225 \$1 15;
#X msg 109 223 \$1 15;
#X obj 32 247 line;
#X obj 109 245 line;
#X obj 113 169 / 127;
#X obj 174 190 expr (127 - $f1) / 127;
#X msg 141 301 8000;
#X obj 88 325 vcf~ 2;
#X obj 143 278 loadbang;
#X obj 234 48 vsl 15 128 0 127 0 0 empty empty empty 0 -9 0 10 -262144
-1 -1 0 1;
#X obj 233 16 inlet;
#X obj 88 299 *~ 0.3;
#X msg 294 50 0;
#X obj 294 24 loadbang;
#X connect 0 0 4 0;
#X connect 0 0 2 0;
#X connect 2 0 3 0;
#X connect 3 0 5 0;
#X connect 4 0 1 0;
#X connect 5 0 17 0;
#X connect 6 0 8 0;
#X connect 7 0 9 0;
#X connect 8 0 4 1;
#X connect 9 0 5 1;
#X connect 10 0 7 0;
#X connect 11 0 6 0;
#X connect 12 0 13 1;
#X connect 13 0 1 0;
#X connect 14 0 12 0;
#X connect 15 0 10 0;
#X connect 15 0 11 0;
#X connect 16 0 15 0;
#X connect 17 0 13 0;
#X connect 18 0 15 0;
#X connect 19 0 18 0;
#X restore 25 166 pd distortion;
#N canvas 371 92 603 489 bitCrush 0;
#X obj 198 184 samphold~;
#X obj 253 161 phasor~;
#X obj 27 79 inlet~;
#X obj 43 298 outlet~;
#X obj 253 72 expr (127 - $f1) / 127;
#X obj 27 265 *~ 1;
#X obj 68 263 *~ 0;
#X obj 89 139 > 0.95;
#X obj 48 219 line;
#X msg 48 194 \$1 15;
#X obj 89 218 line;
#X msg 89 193 \$1 15;
#X obj 89 167 expr 1 - $f1;
#X obj 253 101 * 4000;
#X obj 253 131 + 3000;
#X obj 248 37 hsl 128 15 0 127 0 0 empty empty empty -2 -8 0 10 -262144
-1 -1 0 1;
#X obj 237 6 inlet;
#X msg 168 39 0;
#X obj 175 7 loadbang;
#X connect 0 0 6 0;
#X connect 1 0 0 1;
#X connect 2 0 0 0;
#X connect 2 0 5 0;
#X connect 4 0 7 0;
#X connect 4 0 13 0;
#X connect 5 0 3 0;
#X connect 6 0 3 0;
#X connect 7 0 12 0;
#X connect 7 0 9 0;
#X connect 8 0 5 1;
#X connect 9 0 8 0;
#X connect 10 0 6 1;
#X connect 11 0 10 0;
#X connect 12 0 11 0;
#X connect 13 0 14 0;
#X connect 14 0 1 0;
#X connect 15 0 4 0;
#X connect 16 0 15 0;
#X connect 17 0 15 0;
#X connect 18 0 17 0;
#X restore 26 214 pd bitCrush;
#N canvas 761 65 747 419 verb 0;
#X obj 51 375 outlet~;
#X obj 55 266 inlet~;
#X obj 310 293 expr 1 - $f1;
#X obj 297 59 loadbang;
#X obj 112 119 hsl 128 15 0 1 0 1 empty empty 'roomsize' 20 8 0 10
-262144 -260097 -1 0 0;
#X obj 127 162 hsl 128 15 0 2.4 0 1 empty empty damp 20 8 0 10 -262144
-260097 -1 0 0;
#X obj 157 255 hsl 128 15 0 1 0 1 empty empty wet 20 8 0 10 -262144
-260097 -1 0 0;
#X obj 142 205 hsl 128 15 0 1 0 1 empty empty dry 20 8 0 10 -262144
-260097 -1 12700 0;
#N canvas 526 279 634 321 vfreeverb~ 0;
#N canvas 261 50 778 367 combfilters-left1 0;
#X obj 46 244 +~;
#X obj 61 219 *~ 0.3;
#X obj 61 194 lop~ 1000;
#X obj 231 244 +~;
#X obj 246 219 *~ 0.3;
#X obj 246 194 lop~ 1000;
#X obj 429 218 *~ 0.3;
#X obj 429 193 lop~ 1000;
#X obj 414 241 +~;
#X obj 610 218 *~ 0.3;
#X obj 610 193 lop~ 1000;
#X obj 595 241 +~;
#X obj 61 97 r \$0-comb1left;
#X obj 246 97 r \$0-comb2left;
#X obj 429 95 r \$0-comb3left;
#X obj 610 96 r \$0-comb4left;
#X obj 112 170 r \$0-frequency;
#X obj 297 170 r \$0-frequency;
#X obj 480 167 r \$0-frequency;
#X obj 661 167 r \$0-frequency;
#X obj 46 28 inlet~;
#X obj 338 326 outlet~;
#X floatatom 70 119 5 0 0 0 - - -;
#X floatatom 255 121 5 0 0 0 - - -;
#X floatatom 439 119 5 0 0 0 - - -;
#X floatatom 622 121 5 0 0 0 - - -;
#X obj 279 58 clip 0 0.99;
#X obj 279 29 r \$0-room;
#X obj 61 141 delread~ \$0-comb1left2;
#X obj 246 142 delread~ \$0-comb2left2;
#X obj 429 141 delread~ \$0-comb3left2;
#X obj 610 141 delread~ \$0-comb4left2;
#X obj 46 268 delwrite~ \$0-comb1left2 100;
#X obj 231 268 delwrite~ \$0-comb2left2 100;
#X obj 414 267 delwrite~ \$0-comb3left2 100;
#X obj 595 267 delwrite~ \$0-comb4left2 100;
#X connect 0 0 32 0;
#X connect 1 0 0 1;
#X connect 2 0 1 0;
#X connect 2 0 21 0;
#X connect 3 0 33 0;
#X connect 4 0 3 1;
#X connect 5 0 4 0;
#X connect 5 0 21 0;
#X connect 6 0 8 1;
#X connect 7 0 6 0;
#X connect 7 0 21 0;
#X connect 8 0 34 0;
#X connect 9 0 11 1;
#X connect 10 0 9 0;
#X connect 10 0 21 0;
#X connect 11 0 35 0;
#X connect 12 0 22 0;
#X connect 12 0 28 0;
#X connect 13 0 23 0;
#X connect 13 0 29 0;
#X connect 14 0 24 0;
#X connect 14 0 30 0;
#X connect 15 0 25 0;
#X connect 15 0 31 0;
#X connect 16 0 2 1;
#X connect 17 0 5 1;
#X connect 18 0 7 1;
#X connect 19 0 10 1;
#X connect 20 0 0 0;
#X connect 20 0 3 0;
#X connect 20 0 8 0;
#X connect 20 0 11 0;
#X connect 26 0 1 1;
#X connect 26 0 4 1;
#X connect 26 0 6 1;
#X connect 26 0 9 1;
#X connect 27 0 26 0;
#X connect 28 0 2 0;
#X connect 29 0 5 0;
#X connect 30 0 7 0;
#X connect 31 0 10 0;
#X restore 15 100 pd combfilters-left1;
#N canvas 409 107 358 650 diffusor-left 0;
#X obj 51 107 *~ 0.5;
#X obj 36 132 +~;
#X obj 66 132 -~;
#X obj 36 26 inlet~;
#X obj 81 238 *~ 0.5;
#X obj 66 263 +~;
#X obj 96 263 -~;
#X obj 111 368 *~ 0.5;
#X obj 96 393 +~;
#X obj 126 393 -~;
#X obj 141 498 *~ 0.5;
#X obj 126 523 +~;
#X obj 156 523 -~;
#X obj 156 605 outlet~;
#X text 95 28 freeverb's diffusor;
#X obj 156 576 hip~ 5;
#X floatatom 214 70 5 0 0 0 - - -;
#X floatatom 246 203 5 0 0 0 - - -;
#X floatatom 280 334 5 0 0 0 - - -;
#X floatatom 304 464 5 0 0 0 - - -;
#X obj 51 53 r \$0-allpass1left;
#X obj 81 186 r \$0-allpass2left;
#X obj 111 317 r \$0-allpass3left;
#X obj 51 80 delread~ \$0-allpass1left2;
#X obj 36 158 delwrite~ \$0-allpass1left2 40;
#X obj 81 211 delread~ \$0-allpass2left2;
#X obj 66 290 delwrite~ \$0-allpass2left2 40;
#X obj 111 341 delread~ \$0-allpass3left2;
#X obj 96 420 delwrite~ \$0-allpass3left2 40;
#X obj 141 447 r \$0-allpass4left;
#X obj 141 471 delread~ \$0-allpass4left2;
#X obj 126 550 delwrite~ \$0-allpass4left2 40;
#X connect 0 0 1 1;
#X connect 1 0 24 0;
#X connect 2 0 5 0;
#X connect 2 0 6 1;
#X connect 3 0 1 0;
#X connect 3 0 2 1;
#X connect 4 0 5 1;
#X connect 5 0 26 0;
#X connect 6 0 8 0;
#X connect 6 0 9 1;
#X connect 7 0 8 1;
#X connect 8 0 28 0;
#X connect 9 0 11 0;
#X connect 9 0 12 1;
#X connect 10 0 11 1;
#X connect 11 0 31 0;
#X connect 12 0 15 0;
#X connect 15 0 13 0;
#X connect 20 0 16 0;
#X connect 20 0 23 0;
#X connect 21 0 17 0;
#X connect 21 0 25 0;
#X connect 22 0 18 0;
#X connect 22 0 27 0;
#X connect 23 0 0 0;
#X connect 23 0 2 0;
#X connect 25 0 4 0;
#X connect 25 0 6 0;
#X connect 27 0 7 0;
#X connect 27 0 9 0;
#X connect 29 0 19 0;
#X connect 29 0 30 0;
#X connect 30 0 10 0;
#X connect 30 0 12 0;
#X restore 15 168 pd diffusor-left;
#N canvas 312 366 778 367 combfilters-left2 0;
#X obj 46 244 +~;
#X obj 61 219 *~ 0.3;
#X obj 61 194 lop~ 1000;
#X obj 231 244 +~;
#X obj 246 219 *~ 0.3;
#X obj 246 194 lop~ 1000;
#X obj 429 218 *~ 0.3;
#X obj 429 193 lop~ 1000;
#X obj 414 241 +~;
#X obj 610 218 *~ 0.3;
#X obj 610 193 lop~ 1000;
#X obj 595 241 +~;
#X obj 112 170 r \$0-frequency;
#X obj 297 170 r \$0-frequency;
#X obj 480 167 r \$0-frequency;
#X obj 661 167 r \$0-frequency;
#X obj 46 28 inlet~;
#X obj 338 326 outlet~;
#X obj 61 90 r \$0-comb5left;
#X obj 246 90 r \$0-comb6left;
#X obj 429 88 r \$0-comb7left;
#X obj 610 89 r \$0-comb8left;
#X floatatom 70 116 5 0 0 0 - - -;
#X floatatom 261 118 5 0 0 0 - - -;
#X floatatom 440 117 5 0 0 0 - - -;
#X floatatom 620 116 5 0 0 0 - - -;
#X obj 279 58 clip 0 0.99;
#X obj 279 28 r \$0-room;
#X obj 61 141 delread~ \$0-comb5left2;
#X obj 246 142 delread~ \$0-comb6left2;
#X obj 429 141 delread~ \$0-comb7left2;
#X obj 610 141 delread~ \$0-comb8left2;
#X obj 46 268 delwrite~ \$0-comb5left2 100;
#X obj 231 268 delwrite~ \$0-comb6left2 100;
#X obj 414 267 delwrite~ \$0-comb7left2 100;
#X obj 595 267 delwrite~ \$0-comb8left2 100;
#X connect 0 0 32 0;
#X connect 1 0 0 1;
#X connect 2 0 1 0;
#X connect 2 0 17 0;
#X connect 3 0 33 0;
#X connect 4 0 3 1;
#X connect 5 0 4 0;
#X connect 5 0 17 0;
#X connect 6 0 8 1;
#X connect 7 0 6 0;
#X connect 7 0 17 0;
#X connect 8 0 34 0;
#X connect 9 0 11 1;
#X connect 10 0 9 0;
#X connect 10 0 17 0;
#X connect 11 0 35 0;
#X connect 12 0 2 1;
#X connect 13 0 5 1;
#X connect 14 0 7 1;
#X connect 15 0 10 1;
#X connect 16 0 0 0;
#X connect 16 0 3 0;
#X connect 16 0 8 0;
#X connect 16 0 11 0;
#X connect 18 0 22 0;
#X connect 18 0 28 0;
#X connect 19 0 23 0;
#X connect 19 0 29 0;
#X connect 20 0 24 0;
#X connect 20 0 30 0;
#X connect 21 0 25 0;
#X connect 21 0 31 0;
#X connect 26 0 1 1;
#X connect 26 0 4 1;
#X connect 26 0 6 1;
#X connect 26 0 9 1;
#X connect 27 0 26 0;
#X connect 28 0 2 0;
#X connect 29 0 5 0;
#X connect 30 0 7 0;
#X connect 31 0 10 0;
#X restore 36 134 pd combfilters-left2;
#N canvas 261 50 778 367 combfilters-right1 0;
#X obj 46 244 +~;
#X obj 61 219 *~ 0.3;
#X obj 61 194 lop~ 1000;
#X obj 231 244 +~;
#X obj 246 219 *~ 0.3;
#X obj 246 194 lop~ 1000;
#X obj 429 218 *~ 0.3;
#X obj 429 193 lop~ 1000;
#X obj 414 241 +~;
#X obj 610 218 *~ 0.3;
#X obj 610 193 lop~ 1000;
#X obj 595 241 +~;
#X obj 112 170 r \$0-frequency;
#X obj 297 170 r \$0-frequency;
#X obj 480 167 r \$0-frequency;
#X obj 661 167 r \$0-frequency;
#X obj 46 28 inlet~;
#X obj 338 326 outlet~;
#X floatatom 70 119 5 0 0 0 - - -;
#X floatatom 255 121 5 0 0 0 - - -;
#X floatatom 439 119 5 0 0 0 - - -;
#X floatatom 622 121 5 0 0 0 - - -;
#X obj 61 97 r \$0-comb1right;
#X obj 246 97 r \$0-comb2right;
#X obj 429 95 r \$0-comb3right;
#X obj 610 97 r \$0-comb4right;
#X obj 279 58 clip 0 0.99;
#X obj 279 28 r \$0-room;
#X obj 61 141 delread~ \$0-comb1right2;
#X obj 246 142 delread~ \$0-comb2right2;
#X obj 429 141 delread~ \$0-comb3right2;
#X obj 610 141 delread~ \$0-comb4right2;
#X obj 46 268 delwrite~ \$0-comb1right2 100;
#X obj 231 268 delwrite~ \$0-comb2right2 100;
#X obj 414 267 delwrite~ \$0-comb3right2 100;
#X obj 595 267 delwrite~ \$0-comb4right2 100;
#X connect 0 0 32 0;
#X connect 1 0 0 1;
#X connect 2 0 1 0;
#X connect 2 0 17 0;
#X connect 3 0 33 0;
#X connect 4 0 3 1;
#X connect 5 0 4 0;
#X connect 5 0 17 0;
#X connect 6 0 8 1;
#X connect 7 0 6 0;
#X connect 7 0 17 0;
#X connect 8 0 34 0;
#X connect 9 0 11 1;
#X connect 10 0 9 0;
#X connect 10 0 17 0;
#X connect 11 0 35 0;
#X connect 12 0 2 1;
#X connect 13 0 5 1;
#X connect 14 0 7 1;
#X connect 15 0 10 1;
#X connect 16 0 0 0;
#X connect 16 0 3 0;
#X connect 16 0 8 0;
#X connect 16 0 11 0;
#X connect 22 0 18 0;
#X connect 22 0 28 0;
#X connect 23 0 19 0;
#X connect 23 0 29 0;
#X connect 24 0 20 0;
#X connect 24 0 30 0;
#X connect 25 0 21 0;
#X connect 25 0 31 0;
#X connect 26 0 1 1;
#X connect 26 0 4 1;
#X connect 26 0 6 1;
#X connect 26 0 9 1;
#X connect 27 0 26 0;
#X connect 28 0 2 0;
#X connect 29 0 5 0;
#X connect 30 0 7 0;
#X connect 31 0 10 0;
#X restore 208 99 pd combfilters-right1;
#N canvas 312 366 778 367 combfilters-right2 0;
#X obj 46 244 +~;
#X obj 61 219 *~ 0.3;
#X obj 61 194 lop~ 1000;
#X obj 231 244 +~;
#X obj 246 219 *~ 0.3;
#X obj 246 194 lop~ 1000;
#X obj 429 218 *~ 0.3;
#X obj 429 193 lop~ 1000;
#X obj 414 241 +~;
#X obj 610 218 *~ 0.3;
#X obj 610 193 lop~ 1000;
#X obj 595 241 +~;
#X obj 112 170 r \$0-frequency;
#X obj 297 170 r \$0-frequency;
#X obj 480 167 r \$0-frequency;
#X obj 661 167 r \$0-frequency;
#X obj 46 28 inlet~;
#X obj 338 326 outlet~;
#X floatatom 70 116 5 0 0 0 - - -;
#X floatatom 261 118 5 0 0 0 - - -;
#X floatatom 440 117 5 0 0 0 - - -;
#X floatatom 620 116 5 0 0 0 - - -;
#X obj 279 58 clip 0 0.99;
#X obj 61 90 r \$0-comb5right;
#X obj 246 90 r \$0-comb6right;
#X obj 429 88 r \$0-comb7right;
#X obj 610 89 r \$0-comb8right;
#X obj 279 28 r \$0-room;
#X obj 61 141 delread~ \$0-comb5right2;
#X obj 246 142 delread~ \$0-comb6right2;
#X obj 429 141 delread~ \$0-comb7right2;
#X obj 610 141 delread~ \$0-comb8right2;
#X obj 595 267 delwrite~ \$0-comb8right2 100;
#X obj 414 267 delwrite~ \$0-comb7right2 100;
#X obj 231 268 delwrite~ \$0-comb6right2 100;
#X obj 46 268 delwrite~ \$0-comb5right2 100;
#X connect 0 0 35 0;
#X connect 1 0 0 1;
#X connect 2 0 1 0;
#X connect 2 0 17 0;
#X connect 3 0 34 0;
#X connect 4 0 3 1;
#X connect 5 0 4 0;
#X connect 5 0 17 0;
#X connect 6 0 8 1;
#X connect 7 0 6 0;
#X connect 7 0 17 0;
#X connect 8 0 33 0;
#X connect 9 0 11 1;
#X connect 10 0 9 0;
#X connect 10 0 17 0;
#X connect 11 0 32 0;
#X connect 12 0 2 1;
#X connect 13 0 5 1;
#X connect 14 0 7 1;
#X connect 15 0 10 1;
#X connect 16 0 0 0;
#X connect 16 0 3 0;
#X connect 16 0 8 0;
#X connect 16 0 11 0;
#X connect 22 0 1 1;
#X connect 22 0 4 1;
#X connect 22 0 6 1;
#X connect 22 0 9 1;
#X connect 23 0 18 0;
#X connect 23 0 28 0;
#X connect 24 0 19 0;
#X connect 24 0 29 0;
#X connect 25 0 20 0;
#X connect 25 0 30 0;
#X connect 26 0 21 0;
#X connect 26 0 31 0;
#X connect 27 0 22 0;
#X connect 28 0 2 0;
#X connect 29 0 5 0;
#X connect 30 0 7 0;
#X connect 31 0 10 0;
#X restore 225 133 pd combfilters-right2;
#N canvas 457 180 358 650 diffusor-right 0;
#X obj 51 107 *~ 0.5;
#X obj 36 132 +~;
#X obj 66 132 -~;
#X obj 36 26 inlet~;
#X obj 81 238 *~ 0.5;
#X obj 66 263 +~;
#X obj 96 263 -~;
#X obj 111 368 *~ 0.5;
#X obj 96 393 +~;
#X obj 126 393 -~;
#X obj 141 498 *~ 0.5;
#X obj 126 523 +~;
#X obj 156 523 -~;
#X obj 156 605 outlet~;
#X text 95 28 freeverb's diffusor;
#X obj 156 576 hip~ 5;
#X floatatom 214 70 5 0 0 0 - - -;
#X floatatom 244 203 5 0 0 0 - - -;
#X floatatom 280 334 5 0 0 0 - - -;
#X floatatom 304 464 5 0 0 0 - - -;
#X obj 51 53 r \$0-allpass1right;
#X obj 81 186 r \$0-allpass2right;
#X obj 111 317 r \$0-allpass3right;
#X obj 141 447 r \$0-allpass4right;
#X obj 51 80 delread~ \$0-allpass1right2;
#X obj 36 158 delwrite~ \$0-allpass1right2 40;
#X obj 81 211 delread~ \$0-allpass2right2;
#X obj 66 290 delwrite~ \$0-allpass2right2 40;
#X obj 111 341 delread~ \$0-allpass3right2;
#X obj 96 420 delwrite~ \$0-allpass3right2 40;
#X obj 141 471 delread~ \$0-allpass4right2;
#X obj 126 550 delwrite~ \$0-allpass4right2 40;
#X connect 0 0 1 1;
#X connect 1 0 25 0;
#X connect 2 0 5 0;
#X connect 2 0 6 1;
#X connect 3 0 1 0;
#X connect 3 0 2 1;
#X connect 4 0 5 1;
#X connect 5 0 27 0;
#X connect 6 0 8 0;
#X connect 6 0 9 1;
#X connect 7 0 8 1;
#X connect 8 0 29 0;
#X connect 9 0 11 0;
#X connect 9 0 12 1;
#X connect 10 0 11 1;
#X connect 11 0 31 0;
#X connect 12 0 15 0;
#X connect 15 0 13 0;
#X connect 20 0 16 0;
#X connect 20 0 24 0;
#X connect 21 0 17 0;
#X connect 21 0 26 0;
#X connect 22 0 18 0;
#X connect 22 0 28 0;
#X connect 23 0 19 0;
#X connect 23 0 30 0;
#X connect 24 0 0 0;
#X connect 24 0 2 0;
#X connect 26 0 4 0;
#X connect 26 0 6 0;
#X connect 28 0 7 0;
#X connect 28 0 9 0;
#X connect 30 0 10 0;
#X connect 30 0 12 0;
#X restore 208 169 pd diffusor-right;
#X obj 208 61 *~ 0.015;
#X obj 15 226 *~ 1;
#X obj 208 228 *~ 1;
#X obj 94 228 *~ 1;
#X obj 169 228 *~ 1;
#X obj 115 202 r \$0-dry;
#X obj 229 203 r \$0-wet;
#X obj 36 201 r \$0-wet;
#X obj 94 14 inlet~;
#X obj 208 14 inlet~;
#X obj 15 268 outlet~;
#X obj 169 269 outlet~;
#X obj 312 14 inlet;
#X obj 374 14 inlet;
#X obj 462 14 inlet;
#X obj 544 16 inlet;
#N canvas 0 50 207 207 room 0;
#X obj 32 35 inlet;
#X obj 32 63 * 0.28;
#X obj 32 94 + 0.7;
#X obj 32 160 outlet;
#X text 80 65 scaleroom;
#X text 76 94 offsetroom;
#X obj 47 126 s \$0-room;
#X connect 0 0 1 0;
#X connect 1 0 2 0;
#X connect 2 0 3 0;
#X connect 2 0 6 0;
#X restore 312 45 pd room;
#N canvas 684 169 244 376 frequency 0;
#X obj 60 222 samplerate~;
#X obj 33 8 inlet;
#X obj 33 194 t f b;
#X obj 33 249 *;
#X obj 53 303 s \$0-frequency;
#X obj 33 327 outlet;
#X obj 33 64 * 0.4;
#X text 76 66 scaledamp;
#X obj 33 90 t b f;
#X obj 33 141 -;
#X msg 33 116 1;
#X obj 33 168 abs;
#X obj 33 275 * 0.5;
#X text 153 303 for [lop~];
#X obj 33 38 clip 0 2.4;
#X connect 0 0 3 1;
#X connect 1 0 14 0;
#X connect 2 0 3 0;
#X connect 2 1 0 0;
#X connect 3 0 12 0;
#X connect 6 0 8 0;
#X connect 8 0 10 0;
#X connect 8 1 9 1;
#X connect 9 0 11 0;
#X connect 10 0 9 0;
#X connect 11 0 2 0;
#X connect 12 0 5 0;
#X connect 12 0 4 0;
#X connect 14 0 6 0;
#X restore 374 45 pd frequency;
#N canvas 0 50 170 187 scalewet 0;
#X obj 22 42 inlet;
#X obj 22 143 outlet;
#X obj 22 73 * 3;
#X text 49 74 scalewet;
#X obj 40 112 s \$0-wet;
#X connect 0 0 2 0;
#X connect 2 0 1 0;
#X connect 2 0 4 0;
#X restore 544 45 pd scalewet;
#N canvas 0 50 220 198 scaledry 0;
#X obj 32 74 * 2;
#X obj 32 40 inlet;
#X obj 32 141 outlet;
#X text 58 75 scaledry;
#X obj 41 105 s \$0-dry;
#X connect 0 0 2 0;
#X connect 0 0 4 0;
#X connect 1 0 0 0;
#X restore 462 45 pd scaledry;
#X floatatom 312 70 5 0 0 0 - - -;
#X floatatom 374 70 10 0 0 0 - - -;
#X floatatom 462 69 5 0 0 0 - - -;
#X floatatom 544 69 5 0 0 0 - - -;
#N canvas 405 50 635 684 tuning 0;
#X msg 332 81 1139 \, 1211 \, 1300 \, 1379 \, 1445 \, 1514 \, 1580
\, 1640;
#X text 72 57 combfilter tunings left;
#X text 377 56 combfilter tunings right;
#X text 71 360 allpass tunings left;
#X text 383 355 allpass tunings right;
#N canvas 243 170 195 233 sampstoms 0;
#X obj 27 21 inlet;
#X obj 54 86 samplerate~;
#X obj 27 111 /;
#X obj 27 57 t f b;
#X obj 27 136 * 1000;
#X obj 27 162 outlet;
#X connect 0 0 3 0;
#X connect 1 0 2 1;
#X connect 2 0 4 0;
#X connect 3 0 2 0;
#X connect 3 1 1 0;
#X connect 4 0 5 0;
#X restore 30 107 pd sampstoms;
#X msg 30 82 1116 \, 1188 \, 1277 \, 1356 \, 1422 \, 1491 \, 1557 \,
1617;
#X obj 57 188 +;
#X msg 57 159 1;
#X obj 30 135 t f b;
#X obj 87 188 f;
#X obj 30 56 t b b;
#X msg 87 159 0;
#X obj 57 212 pack f \$0;
#X msg 57 238 \$2-comb\$1left;
#X obj 30 282 s;
#X obj 57 265 symbol;
#N canvas 0 50 195 233 sampstoms 0;
#X obj 27 21 inlet;
#X obj 54 86 samplerate~;
#X obj 27 111 /;
#X obj 27 57 t f b;
#X obj 27 136 * 1000;
#X obj 27 162 outlet;
#X connect 0 0 3 0;
#X connect 1 0 2 1;
#X connect 2 0 4 0;
#X connect 3 0 2 0;
#X connect 3 1 1 0;
#X connect 4 0 5 0;
#X restore 332 107 pd sampstoms;
#X obj 359 188 +;
#X msg 359 159 1;
#X obj 332 135 t f b;
#X obj 389 188 f;
#X msg 389 159 0;
#X obj 359 212 pack f \$0;
#X obj 332 282 s;
#X obj 359 265 symbol;
#X obj 332 56 t b b;
#X msg 359 238 \$2-comb\$1right;
#X obj 30 360 t b b;
#N canvas 0 50 195 233 sampstoms 0;
#X obj 27 21 inlet;
#X obj 54 86 samplerate~;
#X obj 27 111 /;
#X obj 27 57 t f b;
#X obj 27 136 * 1000;
#X obj 27 162 outlet;
#X connect 0 0 3 0;
#X connect 1 0 2 1;
#X connect 2 0 4 0;
#X connect 3 0 2 0;
#X connect 3 1 1 0;
#X connect 4 0 5 0;
#X restore 30 411 pd sampstoms;
#X obj 57 492 +;
#X msg 57 463 1;
#X obj 30 439 t f b;
#X obj 87 492 f;
#X msg 87 463 0;
#X obj 57 516 pack f \$0;
#X obj 30 586 s;
#X obj 57 569 symbol;
#X obj 334 356 t b b;
#N canvas 0 50 195 233 sampstoms 0;
#X obj 27 21 inlet;
#X obj 54 86 samplerate~;
#X obj 27 111 /;
#X obj 27 57 t f b;
#X obj 27 136 * 1000;
#X obj 27 162 outlet;
#X connect 0 0 3 0;
#X connect 1 0 2 1;
#X connect 2 0 4 0;
#X connect 3 0 2 0;
#X connect 3 1 1 0;
#X connect 4 0 5 0;
#X restore 334 407 pd sampstoms;
#X obj 361 488 +;
#X msg 361 459 1;
#X obj 334 435 t f b;
#X obj 391 488 f;
#X msg 391 459 0;
#X obj 361 512 pack f \$0;
#X obj 334 582 s;
#X obj 361 565 symbol;
#X obj 30 22 loadbang;
#X obj 332 27 loadbang;
#X obj 30 334 loadbang;
#X obj 334 331 loadbang;
#X obj 268 41 bng 15 250 50 0 empty empty empty 17 7 0 10 -262144 -1
-1;
#X msg 30 386 225 \, 556 \, 441 \, 341;
#X msg 334 380 248 \, 579 \, 464 \, 364;
#X msg 57 542 \$2-allpass\$1left;
#X msg 361 539 \$2-allpass\$1right;
#X text 27 624 Original Freeverb delay line lengths are converted to
milliseconds \, based on samplerate.;
#X connect 0 0 17 0;
#X connect 5 0 9 0;
#X connect 6 0 5 0;
#X connect 7 0 10 0;
#X connect 7 0 13 0;
#X connect 8 0 7 0;
#X connect 9 0 15 0;
#X connect 9 1 8 0;
#X connect 10 0 7 1;
#X connect 11 0 6 0;
#X connect 11 1 12 0;
#X connect 12 0 10 0;
#X connect 13 0 14 0;
#X connect 14 0 16 0;
#X connect 16 0 15 1;
#X connect 17 0 20 0;
#X connect 18 0 21 0;
#X connect 18 0 23 0;
#X connect 19 0 18 0;
#X connect 20 0 24 0;
#X connect 20 1 19 0;
#X connect 21 0 18 1;
#X connect 22 0 21 0;
#X connect 23 0 27 0;
#X connect 25 0 24 1;
#X connect 26 0 0 0;
#X connect 26 1 22 0;
#X connect 27 0 25 0;
#X connect 28 0 53 0;
#X connect 28 1 34 0;
#X connect 29 0 32 0;
#X connect 30 0 33 0;
#X connect 30 0 35 0;
#X connect 31 0 30 0;
#X connect 32 0 36 0;
#X connect 32 1 31 0;
#X connect 33 0 30 1;
#X connect 34 0 33 0;
#X connect 35 0 55 0;
#X connect 37 0 36 1;
#X connect 38 0 54 0;
#X connect 38 1 44 0;
#X connect 39 0 42 0;
#X connect 40 0 43 0;
#X connect 40 0 45 0;
#X connect 41 0 40 0;
#X connect 42 0 46 0;
#X connect 42 1 41 0;
#X connect 43 0 40 1;
#X connect 44 0 43 0;
#X connect 45 0 56 0;
#X connect 47 0 46 1;
#X connect 48 0 11 0;
#X connect 49 0 26 0;
#X connect 50 0 28 0;
#X connect 51 0 38 0;
#X connect 52 0 11 0;
#X connect 52 0 28 0;
#X connect 52 0 26 0;
#X connect 52 0 38 0;
#X connect 53 0 29 0;
#X connect 54 0 39 0;
#X connect 55 0 37 0;
#X connect 56 0 47 0;
#X restore 410 141 pd tuning;
#X connect 0 0 1 0;
#X connect 1 0 7 0;
#X connect 2 0 1 0;
#X connect 3 0 5 0;
#X connect 4 0 5 0;
#X connect 5 0 8 0;
#X connect 6 0 3 0;
#X connect 6 0 0 0;
#X connect 6 0 4 0;
#X connect 6 0 2 0;
#X connect 7 0 16 0;
#X connect 8 0 17 0;
#X connect 9 0 16 0;
#X connect 10 0 17 0;
#X connect 11 0 10 1;
#X connect 11 0 9 1;
#X connect 12 0 8 1;
#X connect 13 0 7 1;
#X connect 14 0 6 0;
#X connect 14 0 9 0;
#X connect 15 0 6 0;
#X connect 15 0 10 0;
#X connect 18 0 22 0;
#X connect 19 0 23 0;
#X connect 20 0 25 0;
#X connect 21 0 24 0;
#X connect 22 0 26 0;
#X connect 23 0 27 0;
#X connect 24 0 29 0;
#X connect 25 0 28 0;
#X restore 79 311 pd vfreeverb~;
#X obj 311 267 / 508, f 8;
#X msg 235 74 0;
#X msg 295 87 0;
#X obj 343 222 / 127;
#X obj 357 89 vsl 15 50 0 127 0 0 empty empty empty 0 -9 0 10 -262144
-1 -1 0 1;
#X obj 363 6 inlet;
#X connect 1 0 8 0;
#X connect 1 0 8 1;
#X connect 2 0 7 0;
#X connect 3 0 11 0;
#X connect 3 0 10 0;
#X connect 4 0 8 2;
#X connect 5 0 8 3;
#X connect 6 0 8 5;
#X connect 7 0 8 4;
#X connect 8 0 0 0;
#X connect 8 1 0 0;
#X connect 9 0 2 0;
#X connect 9 0 6 0;
#X connect 10 0 4 0;
#X connect 10 0 6 0;
#X connect 11 0 5 0;
#X connect 11 0 13 0;
#X connect 12 0 4 0;
#X connect 13 0 9 0;
#X connect 13 0 12 0;
#X connect 14 0 13 0;
#X restore 35 382 pd verb;
#N canvas -8 -8 1920 997 ringMod 0;
#X obj 92 302 outlet~;
#X obj 155 260 *~;
#X obj 18 260 *~;
#X obj 179 52 loadbang;
#X msg 179 77 0;
#X obj 18 81 inlet~;
#X obj 49 165 mtof;
#X obj 49 188 osc~;
#X obj 18 211 *~;
#X obj 49 239 line~, f 6;
#X msg 169 148 0 15;
#X msg 261 133 0.5 15;
#X msg 212 133 1 15;
#X obj 170 232 line~;
#X obj 171 104 moses 5;
#X obj 156 12 r fx-ring-mod;
#X obj 382 113 vsl 15 80 0 127 0 0 empty empty empty 0 -9 0 10 -262144
-1 -1 0 1;
#X obj 423 40 inlet;
#X obj 372 209 s fx-ring-mod;
#X connect 1 0 0 0;
#X connect 2 0 0 0;
#X connect 3 0 4 0;
#X connect 4 0 14 0;
#X connect 4 0 16 0;
#X connect 5 0 8 0;
#X connect 5 0 1 0;
#X connect 6 0 7 0;
#X connect 7 0 8 1;
#X connect 8 0 2 0;
#X connect 9 0 2 1;
#X connect 10 0 9 0;
#X connect 11 0 9 0;
#X connect 11 0 13 0;
#X connect 12 0 13 0;
#X connect 13 0 1 1;
#X connect 14 0 12 0;
#X connect 14 0 10 0;
#X connect 14 1 11 0;
#X connect 15 0 6 0;
#X connect 15 0 14 0;
#X connect 16 0 18 0;
#X connect 17 0 16 0;
#X restore 31 343 pd ringMod;
#N canvas 962 209 483 567 cutoff 0;
#X text 274 164 cutoff filter;
#X obj 281 217 inlet~;
#X obj 85 365 *~;
#X obj 136 363 *~;
#X obj 100 135 expr 1 - $f1;
#X text 14 105 wet/dry;
#X obj 97 414 outlet~;
#X obj 361 222 sig~;
#X obj 99 21 loadbang;
#X obj 100 241 vline~;
#X msg 100 216 \$1 50;
#X obj 151 241 vline~;
#X msg 151 216 \$1 50;
#X msg 99 45 0;
#X obj 122 71 clip 0 1;
#X obj 361 139 * 127;
#X obj 361 118 expr 1 - $f1;
#X obj 361 95 / 127;
#X obj 100 100 \$1;
#X obj 361 195 + 200;
#X obj 421 222 sig~;
#X obj 361 164 * 25;
#X obj 342 253 vcf~ 5;
#X obj 402 253 vcf~ 5;
#X obj 172 32 r fx-cutoff;
#X obj 313 388 vsl 15 80 0 127 0 0 empty empty empty 0 -9 0 10 -262144
-1 -1 0 1;
#X obj 312 353 inlet;
#X obj 295 488 s fx-cutoff;
#X connect 1 0 2 0;
#X connect 1 0 22 0;
#X connect 1 0 23 0;
#X connect 2 0 6 0;
#X connect 3 0 6 0;
#X connect 4 0 10 0;
#X connect 7 0 22 1;
#X connect 8 0 13 0;
#X connect 9 0 2 1;
#X connect 10 0 9 0;
#X connect 11 0 3 1;
#X connect 12 0 11 0;
#X connect 13 0 18 0;
#X connect 13 0 25 0;
#X connect 14 0 18 0;
#X connect 15 0 21 0;
#X connect 16 0 15 0;
#X connect 17 0 16 0;
#X connect 18 0 4 0;
#X connect 18 0 12 0;
#X connect 19 0 7 0;
#X connect 19 0 20 0;
#X connect 20 0 23 1;
#X connect 21 0 19 0;
#X connect 22 0 3 0;
#X connect 22 1 3 0;
#X connect 23 0 3 0;
#X connect 23 1 3 0;
#X connect 24 0 14 0;
#X connect 24 0 17 0;
#X connect 25 0 27 0;
#X connect 26 0 25 0;
#X restore 32 419 pd cutoff;
#N canvas -173 61 1920 908 delay 0;
#X obj 251 411 delwrite~ del1 3000;
#X obj 258 195 inlet~;
#X obj 270 364 *~;
#X obj 270 334 r~ out_del1;
#X obj 399 371 *~;
#X obj 399 341 r~ out_del2;
#X obj 361 299 line~;
#X obj 360 270 pack 0 5;
#X obj 585 182 hsl 128 15 0 1 0 0 empty feedback empty -2 -8 0 10 -262144
-1 -1 4597 1;
#X obj 587 216 hsl 128 15 0 1 0 0 empty speed empty -2 -8 0 10 -262144
-1 -1 889 1;
#X obj 561 409 pack 0 5;
#X obj 561 435 line~;
#X obj 561 461 phasor~;
#X obj 539 559 -~ 0.5;
#X obj 539 585 *~ 0.5;
#X obj 539 611 cos~;
#X obj 540 661 *~;
#X obj 613 539 *~;
#X obj 613 565 *~;
#X obj 613 591 vd~ del1;
#X obj 594 248 hsl 128 15 0 1024 0 0 empty depth empty -2 -8 0 10 -262144
-1 -1 4118 1;
#X obj 669 464 line~;
#X obj 669 431 pack 0 5;
#X obj 744 362 *~;
#X obj 744 388 send~ main;
#X obj 803 320 line~;
#X obj 804 286 pack 0 5;
#X obj 804 147 vsl 15 128 0 1 0 0 empty main_vol empty 0 -9 0 10 -262144
-1 -1 12700 1;
#X obj 1041 312 line~;
#X obj 1042 278 pack 0 5;
#X obj 1042 139 vsl 15 128 0 1 0 0 empty effect_vol empty 0 -9 0 10
-262144 -1 -1 0 1;
#X obj 982 380 send~ effect;
#X obj 984 348 *~;
#X obj 743 533 +~ 0.5;
#X obj 743 559 wrap~;
#X obj 744 606 *~;
#X obj 744 667 *~;
#X obj 816 639 -~ 0.5;
#X obj 816 665 *~ 0.5;
#X obj 816 691 cos~;
#X obj 817 728 *~;
#X obj 817 764 send~ out_del2;
#X obj 744 693 vd~ del2;
#X obj 887 495 r~ main;
#X obj 951 495 r~ effect;
#X obj 919 560 outlet~;
#X obj 920 534 +~;
#X obj 1243 222 loadbang;
#X obj 540 687 send~ out_del1;
#X obj 904 212 receive~ out_del1;
#X obj 904 243 receive~ out_del2;
#X obj 399 411 delwrite~ del2 3000;
#X msg 1244 262 \; main_vol 1 \; effect_vol 0 \; feedback 0.9 \; speed
0.07 \; depth 332 \; pd dsp 1 \;;
#X obj 1042 108 inlet;
#X floatatom 756 213 5 0 0 0 - - -;
#X msg 1449 240 \; main_vol 1 \; effect_vol 0 \; feedback 0.362 \;
speed 0.07 \; depth 332 \; pd dsp 1 \;;
#X connect 1 0 0 0;
#X connect 1 0 23 0;
#X connect 1 0 51 0;
#X connect 2 0 0 0;
#X connect 3 0 2 0;
#X connect 4 0 51 0;
#X connect 5 0 4 0;
#X connect 6 0 2 1;
#X connect 6 0 4 1;
#X connect 7 0 6 0;
#X connect 8 0 7 0;
#X connect 8 0 54 0;
#X connect 9 0 10 0;
#X connect 10 0 11 0;
#X connect 11 0 12 0;
#X connect 12 0 13 0;
#X connect 12 0 17 0;
#X connect 12 0 17 1;
#X connect 12 0 33 0;
#X connect 13 0 14 0;
#X connect 14 0 15 0;
#X connect 15 0 16 0;
#X connect 16 0 48 0;
#X connect 17 0 18 0;
#X connect 18 0 19 0;
#X connect 19 0 16 1;
#X connect 20 0 22 0;
#X connect 21 0 18 1;
#X connect 21 0 36 1;
#X connect 22 0 21 0;
#X connect 23 0 24 0;
#X connect 25 0 23 1;
#X connect 26 0 25 0;
#X connect 27 0 26 0;
#X connect 28 0 32 1;
#X connect 29 0 28 0;
#X connect 30 0 29 0;
#X connect 32 0 31 0;
#X connect 33 0 34 0;
#X connect 34 0 35 0;
#X connect 34 0 35 1;
#X connect 34 0 37 0;
#X connect 35 0 36 0;
#X connect 36 0 42 0;
#X connect 37 0 38 0;
#X connect 38 0 39 0;
#X connect 39 0 40 0;
#X connect 40 0 41 0;
#X connect 42 0 40 1;
#X connect 43 0 46 0;
#X connect 44 0 46 1;
#X connect 46 0 45 0;
#X connect 47 0 55 0;
#X connect 49 0 32 0;
#X connect 50 0 32 0;
#X connect 53 0 30 0;
#X restore 34 301 pd delay;
#N canvas -8 -8 1920 997 flanger 0;
#X obj 149 242 metro 10;
#X floatatom 105 150 5 0 0 0 - - -;
#X obj 311 214 +~ 1;
#X obj 54 398 +~;
#X obj 150 264 snapshot~;
#X obj 311 278 +~ 1;
#X obj 311 243 *~ 1;
#X obj 148 220 loadbang;
#X obj 311 186 osc~ 0.1;
#X text 355 199 delay magnitude(ms);
#X text 352 236 delay offset(ms);
#X text 445 362 feedback amount;
#X obj 159 110 vsl 12 50 0 1 0 0 empty empty speed -5 -7 1 10 -262144
-1 -1 0 1;
#X obj 48 54 inlet~;
#X obj 398 362 *~ 0.5;
#X obj 194 114 vsl 12 50 0 10 0 0 empty empty offset -5 -7 1 10 -262144
-1 -1 0 1;
#X obj 227 114 vsl 12 50 0 20 0 0 empty empty delay -5 -7 1 10 -262144
-1 -1 0 1;
#X obj 259 114 vsl 12 50 0 0.99 0 0 empty empty feedback -5 -7 1 10
-262144 -1 -1 0 1;
#X obj 107 53 inlet;
#X obj 164 53 inlet;
#X obj 107 77 s \$0-osc;
#X obj 311 153 r \$0-osc;
#X obj 164 77 s \$0-off;
#X obj 358 255 r \$0-off;
#X obj 221 53 inlet;
#X obj 221 77 s \$0-del;
#X obj 357 215 r \$0-del;
#X obj 279 52 inlet;
#X obj 279 77 s \$0-feed;
#X obj 431 272 r \$0-feed;
#X obj 156 383 delwrite~ \$0-line 1000;
#X obj 311 307 vd~ \$0-line;
#X text 102 103 flanger;
#X obj 54 427 outlet~;
#X text 102 133 delay(ms);
#X text 114 418 In addition to the sliders \, the inlets allow the
user to fully control the internals of the patch with no range-limits
;
#X obj 431 328 expr if($f1 > 1 \, 0.99 \, $f1);
#X obj 431 305 expr if($f1 < -1 \, -0.99 \, $f1);
#X connect 0 0 4 0;
#X connect 2 0 6 0;
#X connect 3 0 33 0;
#X connect 4 0 1 0;
#X connect 5 0 4 0;
#X connect 5 0 31 0;
#X connect 6 0 5 0;
#X connect 7 0 0 0;
#X connect 8 0 2 0;
#X connect 12 0 8 0;
#X connect 13 0 3 0;
#X connect 13 0 30 0;
#X connect 14 0 30 0;
#X connect 15 0 5 1;
#X connect 16 0 6 1;
#X connect 17 0 14 1;
#X connect 18 0 20 0;
#X connect 19 0 22 0;
#X connect 21 0 8 0;
#X connect 23 0 5 1;
#X connect 24 0 25 0;
#X connect 26 0 6 1;
#X connect 27 0 28 0;
#X connect 29 0 37 0;
#X connect 31 0 3 1;
#X connect 31 0 14 0;
#X connect 36 0 14 1;
#X connect 37 0 36 0;
#X restore 290 209 pd flanger;
#X obj 98 84 hsl 50 15 0 20 0 0 empty empty empty -2 -8 0 10 -262144
-1 -1 0 1;
#X obj 114 144 hsl 50 15 0 127 0 0 empty empty empty -2 -8 0 10 -262144
-1 -1 0 1;
#X obj 133 185 hsl 50 15 0 127 0 0 empty empty empty -2 -8 0 10 -262144
-1 -1 0 1;
#N canvas -30 231 1920 997 chorus 0;
#X obj 47 458 delwrite~ \$0-chorus 2000;
#X obj 434 353 vd~ \$0-chorus;
#X obj 434 234 osc~ 0.5;
#X obj 434 325 *~;
#X obj 434 264 +~ 2;
#X obj 104 354 vd~ \$0-chorus;
#X msg 149 204 0.35;
#X obj 104 233 osc~ 0.2;
#X obj 104 262 +~ 2;
#X obj 104 324 *~;
#X obj 47 385 inlet~;
#X obj 136 112 s \$0-speed;
#X obj 104 180 r \$0-speed;
#X obj 434 180 r \$0-speed;
#X obj 238 26 vsl 12 50 0 5 0 0 empty empty depth -8 -9 1 10 -262144
-1 -1 0 1;
#X obj 237 97 s \$0-depth;
#X obj 135 301 r \$0-depth;
#X obj 465 302 r \$0-depth;
#X obj 329 355 vd~ \$0-chorus;
#X obj 329 236 osc~ 0.5;
#X obj 329 293 *~ 2;
#X obj 329 324 *~;
#X obj 329 265 +~ 2;
#X obj 329 180 r \$0-speed;
#X obj 360 304 r \$0-depth;
#X msg 374 206 0.75;
#X obj 104 289 *~ 2;
#X obj 434 292 *~ 2;
#X obj 214 353 vd~ \$0-chorus;
#X obj 214 234 osc~ 0.5;
#X obj 214 291 *~ 2;
#X obj 214 322 *~;
#X obj 214 263 +~ 2;
#X obj 214 178 r \$0-speed;
#X obj 245 302 r \$0-depth;
#X msg 259 204 0.65;
#X obj 329 206 * 0.3;
#X obj 214 204 * 0.2;
#X obj 223 459 outlet~;
#X obj 314 459 outlet~;
#X text 99 158 chorus;
#X obj 287 125 loadbang;
#X obj 104 385 *~ 0.5;
#X obj 214 385 *~ 0.5;
#X obj 329 388 *~ 0.5;
#X obj 434 385 *~ 0.5;
#X obj 143 24 vsl 15 50 0 5 0 0 empty empty empty 0 -9 0 10 -262144
-1 -1 2450 1;
#X obj 683 315 r \$0-depth;
#X obj 683 338 expr if($f1==0 \, 0 \, 0.5);
#X floatatom 677 369 5 0 0 0 - - -;
#X obj 455 16 inlet;
#X msg 436 75 \$1 20;
#X obj 408 119 line;
#X obj 171 10 loadbang;
#X msg 171 33 2.5;
#X msg 389 28 0;
#X connect 1 0 45 0;
#X connect 2 0 4 0;
#X connect 3 0 1 0;
#X connect 4 0 27 0;
#X connect 5 0 42 0;
#X connect 6 0 7 1;
#X connect 7 0 8 0;
#X connect 8 0 26 0;
#X connect 9 0 5 0;
#X connect 10 0 0 0;
#X connect 10 0 38 0;
#X connect 10 0 39 0;
#X connect 12 0 7 0;
#X connect 13 0 2 0;
#X connect 14 0 15 0;
#X connect 16 0 9 1;
#X connect 17 0 3 1;
#X connect 18 0 44 0;
#X connect 19 0 22 0;
#X connect 20 0 21 0;
#X connect 21 0 18 0;
#X connect 22 0 20 0;
#X connect 23 0 36 0;
#X connect 24 0 21 1;
#X connect 25 0 19 1;
#X connect 26 0 9 0;
#X connect 27 0 3 0;
#X connect 28 0 43 0;
#X connect 29 0 32 0;
#X connect 30 0 31 0;
#X connect 31 0 28 0;
#X connect 32 0 30 0;
#X connect 33 0 37 0;
#X connect 34 0 31 1;
#X connect 35 0 29 1;
#X connect 36 0 19 0;
#X connect 37 0 29 0;
#X connect 41 0 6 0;
#X connect 41 0 25 0;
#X connect 41 0 35 0;
#X connect 42 0 38 0;
#X connect 43 0 38 0;
#X connect 44 0 39 0;
#X connect 45 0 39 0;
#X connect 46 0 11 0;
#X connect 47 0 48 0;
#X connect 48 0 45 1;
#X connect 48 0 44 1;
#X connect 48 0 43 1;
#X connect 48 0 42 1;
#X connect 48 0 49 0;
#X connect 50 0 51 0;
#X connect 51 0 52 0;
#X connect 52 0 14 0;
#X connect 53 0 54 0;
#X connect 53 0 55 0;
#X connect 54 0 46 0;
#X connect 55 0 51 0;
#X restore 29 260 pd chorus;
#X obj 110 241 hsl 50 15 0 5 0 0 empty empty empty -2 -8 0 10 -262144
-1 -1 0 1;
#X obj 102 279 hsl 50 15 0 1 0 0 empty empty empty -2 -8 0 10 -262144
-1 -1 0 1;
#X obj 110 318 hsl 50 15 0 127 0 0 empty empty empty -2 -8 0 10 -262144
-1 -1 0 1;
#X obj 107 366 hsl 50 15 0 127 0 0 empty empty empty -2 -8 0 10 -262144
-1 -1 0 1;
#X obj 109 389 hsl 50 15 0 127 0 0 empty empty empty -2 -8 0 10 -262144
-1 -1 0 1;
#N canvas 0 50 450 300 fuzz 0;
#X obj 70 104 inlet~;
#X obj 70 130 *~ 40;
#X obj 70 156 clip~ -0.5 0.5;
#X obj 70 182 outlet~;
#X connect 0 0 1 0;
#X connect 1 0 2 0;
#X connect 2 0 3 0;
#X restore 311 301 pd fuzz;
#N canvas 1164 209 450 300 tremolo 0;
#X obj 69 24 inlet~;
#X obj 69 142 *~;
#X obj 68 229 outlet~;
#X obj 176 58 osc~;
#X obj 176 95 *~;
#X obj 181 30 hsl 128 15 -1 1 0 0 empty empty empty -2 -8 0 10 -262144
-1 -1 0 1;
#X obj 262 83 hsl 128 15 1 20 0 0 empty empty empty -2 -8 0 10 -262144
-1 -1 0 1;
#X obj 177 164 *~;
#X obj 177 190 +~;
#X obj 245 153 hsl 128 15 0 1 0 0 empty empty empty -2 -8 0 10 -262144
-1 -1 0 1;
#X obj 242 173 expr 1-$f1;
#X obj 176 121 clip~ -1 1;
#X floatatom 242 222 5 0 0 0 - - -;
#X floatatom 291 230 5 0 0 0 - - -;
#X connect 0 0 1 0;
#X connect 1 0 2 0;
#X connect 3 0 4 0;
#X connect 4 0 11 0;
#X connect 5 0 3 0;
#X connect 6 0 4 1;
#X connect 7 0 8 0;
#X connect 8 0 1 1;
#X connect 9 0 7 0;
#X connect 9 0 10 0;
#X connect 9 0 12 0;
#X connect 10 0 8 1;
#X connect 10 0 13 0;
#X connect 11 0 7 0;
#X restore 309 335 pd tremolo;
#X connect 0 0 2 0;
#X connect 2 0 3 0;
#X connect 3 0 4 0;
#X connect 4 0 13 0;
#X connect 5 0 7 0;
#X connect 6 0 5 0;
#X connect 7 0 1 0;
#X connect 8 0 6 0;
#X connect 10 0 2 1;
#X connect 11 0 3 1;
#X connect 12 0 4 1;
#X connect 13 0 8 0;
#X connect 14 0 13 1;
#X connect 15 0 8 1;
#X connect 16 0 6 1;
#X connect 17 0 5 1;
#X connect 18 0 7 1;
#X restore 519 373 pd effect_pad;
#X obj 688 418 vsl 15 50 0 1 0 0 empty empty empty 0 -9 0 10 -262144
-1 -1 4900 1;
#N canvas 71 98 409 205 LeadSynth 0;
#X obj 16 162 outlet~;
#X obj 16 105 expr~ $v1+$v2+$v3+$v4;
#X obj 16 131 *~ 0.5;
#X obj 16 10 inlet;
#X obj 109 15 inlet;
#X obj 201 12 inlet;
#X obj 291 12 inlet;
#X obj 16 42 synthLeadVoice;
#X obj 292 42 synthLeadVoice;
#X obj 201 42 synthLeadVoice;
#X obj 109 42 synthLeadVoice;
#X connect 1 0 2 0;
#X connect 2 0 0 0;
#X connect 3 0 7 0;
#X connect 4 0 10 0;
#X connect 5 0 9 0;
#X connect 6 0 8 0;
#X connect 7 0 1 0;
#X connect 8 0 1 0;
#X connect 9 0 1 0;
#X connect 10 0 1 0;
#X restore 407 351 pd LeadSynth;
#N canvas 0 50 554 303 LeadSynthTwo 0;
#X obj 77 33 inlet;
#X obj 125 33 inlet;
#X obj 175 33 inlet;
#X obj 235 33 inlet;
#X obj 37 207 outlet~;
#X obj 37 155 expr~ $v1+$v2+$v3+$v4;
#X obj 37 181 *~ 0.5;
#X obj 132 84 synthLeadVoiceTwo;
#X obj 22 84 synthLeadVoiceTwo;
#X obj 242 84 synthLeadVoiceTwo;
#X obj 352 84 synthLeadVoiceTwo;
#X connect 0 0 8 0;
#X connect 1 0 7 0;
#X connect 2 0 9 0;
#X connect 3 0 10 0;
#X connect 5 0 6 0;
#X connect 6 0 4 0;
#X connect 7 0 5 1;
#X connect 8 0 5 0;
#X connect 9 0 5 2;
#X connect 10 0 5 3;
#X restore 532 242 pd LeadSynthTwo;
#X obj 507 469 *~;
#N canvas 0 0 1505 988 fmpreset 0;
#X text 240 234 bass;
#X text 187 114 padz;
#X text 286 357 keyz;
#X obj 164 482 s fmPresets;
#X msg 183 129 2 365.897 1048.27 500.833 310.421 1310.09 0.787402 0.0129921
6 952.905 1333.89 2761.98 381.825 1143.48 0.393701 0.00314961 1016.41
307.984 0.173228 1417.85 0.0787402 0.19685, f 172;
#X msg 243 252 4 1 929.262 834.056 120.008 596.04 0 0 2 1 1 1333.89
405.627 167.611 9.05512 0.00511811 1 1016.41 0.314961 119.071 0.944882
1, f 149;
#X msg 252 287 2 318.302 1 143.81 72.4048 1 2.51969 0 5 556.278 1 48.6032
1 1 1.65354 0.0358268 1 709.425 0 1 0.23622 1, f 143;
#X msg 261 315 5 238.976 619.841 1262.48 857.857 1 3.85827 0.0314961
2 365.897 667.444 1262.48 453.23 215.214 1.33858 0.0173228 71.8425
1063.64 0.228346 189.913 0 1, f 145;
#X msg 222 191 9 1 1 1 72.4048 1548.1 7.16535 0.0110236 9 64.4603 1072.07
572.238 120.008 596.04 3.38583 0.00551181 1040.02 1110.87 0.220472
1276.17 2.67717 0.362205, f 144;
#X msg 207 163 4 350.032 3000 1905.13 286.619 477.032 0.551181 0.0133858
4 397.627 2357.36 976.865 667.444 1286.29 0 0 1 709.425 0.204724 1276.17
0.551181 0.188976, f 149;
#X msg 288 416 9 1 1 1 500.833 1191.08 0.551181 0.0165354 9 651.468
1 715.048 596.04 1214.88 6.77165 0.011811 1 284.37 0.110236 1299.78
3.46457 0.173228, f 124;
#X msg 299 454 6 746.659 1 548.437 167.611 167.611 5.59055 0.00629921
4 445.222 1 572.238 48.6032 143.81 5.90551 0.0106299 1 1063.64 0.149606
1299.78 1.10236 0.251969, f 135;
#X msg 279 375 4 762.524 1 1809.92 286.619 834.056 0.944882 0.00551181
5 1016.37 1 1262.48 167.611 239.016 7.87402 0.0023622 1 544.126 0.15748
803.882 0.944882 0.307087, f 127;
#X connect 4 0 3 0;
#X connect 5 0 3 0;
#X connect 6 0 3 0;
#X connect 7 0 3 0;
#X connect 8 0 3 0;
#X connect 9 0 3 0;
#X connect 10 0 3 0;
#X connect 11 0 3 0;
#X connect 12 0 3 0;
#X restore 1218 414 pd fmpreset;
#N canvas -8 -8 1920 997 fmSynth 0;
#X obj 16 277 inlet;
#X obj 16 383 outlet~;
#X obj 16 335 expr~ $v1+$v2+$v3+$v4, f 34;
#X obj 16 358 *~ 0.5;
#N canvas 385 158 397 250 opPitch 0;
#X msg 195 119 1.5;
#X msg 225 119 2;
#X msg 256 119 4;
#X msg 286 119 6;
#X msg 317 119 7;
#X msg 94 119 0.5;
#X msg 59 119 0.25;
#X msg 122 119 0.75;
#X msg 159 119 1;
#X msg 16 119 0.125;
#X obj 30 57 sel 0 1 2 3 4 5 6 7 8 9, f 52;
#X obj 33 18 inlet;
#X obj 122 191 s fmOpOnePitch;
#X obj 178 32 s fmOnePitchSel;
#X obj 359 45 inlet;
#X connect 0 0 12 0;
#X connect 1 0 12 0;
#X connect 2 0 12 0;
#X connect 3 0 12 0;
#X connect 4 0 12 0;
#X connect 5 0 12 0;
#X connect 6 0 12 0;
#X connect 7 0 12 0;
#X connect 8 0 12 0;
#X connect 9 0 12 0;
#X connect 10 0 9 0;
#X connect 10 1 6 0;
#X connect 10 2 5 0;
#X connect 10 3 7 0;
#X connect 10 4 8 0;
#X connect 10 5 0 0;
#X connect 10 6 1 0;
#X connect 10 7 2 0;
#X connect 10 8 3 0;
#X connect 10 9 4 0;
#X connect 11 0 10 0;
#X connect 11 0 13 0;
#X connect 14 0 12 0;
#X restore 28 234 pd opPitch;
#X obj 28 78 vradio 15 1 0 10 empty empty empty 0 -8 0 10 -204800 -1
-1 9;
#X obj 891 82 vsl 15 128 1 3000 0 0 envAttack empty empty 0 -9 0 10
-262144 -1 -1 0 1;
#X obj 917 82 vsl 15 128 1 3000 0 0 envDecay empty empty 0 -9 0 10
-262144 -1 -1 0 1;
#X obj 938 82 vsl 15 128 0 1 0 0 envSustain empty empty 0 -9 0 10 -262144
-1 -1 0 1;
#X obj 963 82 vsl 15 128 1 3000 0 0 envRelease empty empty 0 -9 0 10
-262144 -1 -1 0 1;
#X obj 282 82 vsl 15 128 0 10 0 0 lfoOneFreq empty empty 0 -9 0 10
-4032 -1 -1 0 1;
#X obj 101 82 vsl 15 127 1 2000 0 0 fmOpOneAmt empty empty 0 -9 0 10
-4032 -1 -1 0 1;
#X obj 150 82 vsl 15 127 1 3000 0 0 fmOpOneAttack empty empty 0 -9
0 10 -204800 -1 -1 0 1;
#X obj 180 82 vsl 15 127 1 3000 0 0 fmOpOneDecay empty empty 0 -9 0
10 -204800 -1 -1 0 1;
#X obj 210 82 vsl 15 127 1 3000 0 0 fmOpOneSustain empty empty 0 -9
0 10 -204800 -1 -1 0 1;
#X obj 240 82 vsl 15 127 1 3000 0 0 fmOpOneRelease empty empty 0 -9
0 10 -204800 -1 -1 0 1;
#N canvas 385 158 397 250 opPitch 0;
#X msg 195 119 1.5;
#X msg 225 119 2;
#X msg 256 119 4;
#X msg 286 119 6;
#X msg 317 119 7;
#X msg 94 119 0.5;
#X msg 59 119 0.25;
#X msg 122 119 0.75;
#X msg 159 119 1;
#X msg 16 119 0.125;
#X obj 30 57 sel 0 1 2 3 4 5 6 7 8 9, f 52;
#X obj 33 18 inlet;
#X obj 122 191 s fmOpTwoPitch;
#X obj 183 28 s fmTwoPitchSel;
#X connect 0 0 12 0;
#X connect 1 0 12 0;
#X connect 2 0 12 0;
#X connect 3 0 12 0;
#X connect 4 0 12 0;
#X connect 5 0 12 0;
#X connect 6 0 12 0;
#X connect 7 0 12 0;
#X connect 8 0 12 0;
#X connect 9 0 12 0;
#X connect 10 0 9 0;
#X connect 10 1 6 0;
#X connect 10 2 5 0;
#X connect 10 3 7 0;
#X connect 10 4 8 0;
#X connect 10 5 0 0;
#X connect 10 6 1 0;
#X connect 10 7 2 0;
#X connect 10 8 3 0;
#X connect 10 9 4 0;
#X connect 11 0 10 0;
#X connect 11 0 13 0;
#X restore 428 234 pd opPitch;
#X obj 428 78 vradio 15 1 0 10 empty empty empty 0 -8 0 10 -262130
-1 -1 9;
#X obj 501 82 vsl 15 127 1 2000 0 0 fmOpTwoAmt empty empty 0 -9 0 10
-257985 -1 -1 0 1;
#X obj 550 82 vsl 15 127 1 3000 0 0 fmOpTwoAttack empty empty 0 -9
0 10 -262130 -1 -1 0 1;
#X obj 580 82 vsl 15 127 1 3000 0 0 fmOpTwoDecay empty empty 0 -9 0
10 -262130 -1 -1 0 1;
#X obj 610 82 vsl 15 127 1 3000 0 0 fmOpTwoSustain empty empty 0 -9
0 10 -262130 -1 -1 0 1;
#X obj 640 82 vsl 15 127 1 3000 0 0 fmOpTwoRelease empty empty 0 -9
0 10 -262130 -1 -1 0 1;
#X obj 88 277 inlet;
#X obj 153 277 inlet;
#X obj 218 277 inlet;
#N canvas 17 26 1368 285 storeFMValues 0;
#X obj 99 27 r fmOpOneAmt;
#X obj 180 27 r fmOpOneAttack;
#X obj 31 52 inlet;
#X obj 280 27 r fmOpOneDecay;
#X obj 370 27 r fmOpOneSustain;
#X obj 475 27 r fmOpOneRelease;
#X obj 442 195 r fmOpTwoAmt;
#X obj 523 195 r fmOpTwoAttack;
#X obj 623 195 r fmOpTwoDecay;
#X obj 713 195 r fmOpTwoSustain;
#X obj 818 195 r fmOpTwoRelease;
#X obj 781 25 r envAttack;
#X obj 856 25 r envDecay;
#X obj 926 25 r envSustain;
#X obj 1006 25 r envRelease;
#X obj 2 27 r fmOnePitchSel;
#X obj 345 195 r fmTwoPitchSel;
#X obj 578 27 r lfoOneFreq;
#X obj 657 27 r lfoOneAmt;
#X obj 921 195 r lfoTwoFreq;
#X obj 1001 195 r lfoTwoAmt;
#X obj 1073 124 r crossMod;
#X obj 1098 63 r envAttackLev;
#X obj 16 106 pack f f f f f f f f f f f f f f f f f f f f f f, f
162;
#X obj 49 218 outlet;
#X connect 0 0 23 1;
#X connect 1 0 23 2;
#X connect 2 0 23 0;
#X connect 3 0 23 3;
#X connect 4 0 23 4;
#X connect 5 0 23 5;
#X connect 6 0 23 9;
#X connect 7 0 23 10;
#X connect 8 0 23 11;
#X connect 9 0 23 12;
#X connect 10 0 23 13;
#X connect 11 0 23 16;
#X connect 12 0 23 17;
#X connect 13 0 23 18;
#X connect 14 0 23 19;
#X connect 15 0 23 0;
#X connect 16 0 23 8;
#X connect 17 0 23 6;
#X connect 18 0 23 7;
#X connect 19 0 23 14;
#X connect 20 0 23 15;
#X connect 21 0 23 20;
#X connect 22 0 23 21;
#X connect 23 0 24 0;
#X restore 878 316 pd storeFMValues;
#X obj 878 293 bng 15 250 50 0 empty empty empty 17 7 0 10 -262144
-1 -1;
#X obj 800 365 metro 20;
#X msg 800 342 1;
#X obj 800 294 loadbang;
#X obj 800 388 s snap;
#X obj 322 82 vsl 15 128 0 0.05 0 0 lfoOneAmt empty empty 0 -9 0 10
-4032 -1 -1 0 1;
#X obj 692 82 vsl 15 128 0 10 0 0 lfoTwoFreq empty empty 0 -9 0 10
-257985 -1 -1 0 1;
#X obj 732 82 vsl 15 128 0 0.05 0 0 lfoTwoAmt empty empty 0 -9 0 10
-257985 -1 -1 0 1;
#X obj 28 13 r fmPresets;
#X obj 60 86 vsl 15 128 0.125 20 0 0 empty empty empty 0 -9 0 10 -262144
-1 -1 0 1;
#X obj 1013 145 vsl 15 128 0 10 0 0 crossMod empty empty 0 -9 0 10
-262144 -1 -1 0 1;
#X obj 218 308 fmVoice 4;
#X obj 153 308 fmVoice 3;
#X obj 16 308 fmVoice 1, f 10;
#X obj 88 308 fmVoice 2;
#X obj 28 47 unpack f f f f f f f f f f f f f f f f f f f f f f, f
154;
#X obj 842 116 vsl 15 128 0 1 0 0 envAttackLev empty empty 0 -9 0 10
-262144 -1 -1 0 1;
#X obj 882 363 print;
#X obj 800 317 delay 120;
#X connect 0 0 40 0;
#X connect 2 0 3 0;
#X connect 3 0 1 0;
#X connect 5 0 4 0;
#X connect 17 0 16 0;
#X connect 23 0 41 0;
#X connect 24 0 39 0;
#X connect 25 0 38 0;
#X connect 27 0 26 0;
#X connect 28 0 31 0;
#X connect 29 0 28 0;
#X connect 30 0 45 0;
#X connect 35 0 42 0;
#X connect 36 0 4 1;
#X connect 38 0 2 3;
#X connect 39 0 2 2;
#X connect 40 0 2 0;
#X connect 41 0 2 1;
#X connect 42 0 5 0;
#X connect 42 1 11 0;
#X connect 42 2 12 0;
#X connect 42 3 13 0;
#X connect 42 4 14 0;
#X connect 42 5 15 0;
#X connect 42 6 10 0;
#X connect 42 7 32 0;
#X connect 42 8 17 0;
#X connect 42 9 18 0;
#X connect 42 10 19 0;
#X connect 42 11 20 0;
#X connect 42 12 21 0;
#X connect 42 13 22 0;
#X connect 42 14 33 0;
#X connect 42 15 34 0;
#X connect 42 16 6 0;
#X connect 42 17 7 0;
#X connect 42 18 8 0;
#X connect 42 19 9 0;
#X connect 42 20 37 0;
#X connect 42 21 43 0;
#X connect 45 0 29 0;
#X restore 656 354 pd fmSynth;
#N canvas 155 246 516 315 leadSynthThree 0;
#X obj 67 33 inlet;
#X obj 135 33 inlet;
#X obj 185 33 inlet;
#X obj 245 33 inlet;
#X obj 37 207 outlet~;
#X obj 37 155 expr~ $v1+$v2+$v3+$v4;
#X obj 37 181 *~ 0.5;
#X obj 12 84 synthLeadVoiceThree;
#X obj 142 84 synthLeadVoiceThree;
#X obj 262 84 synthLeadVoiceThree;
#X obj 382 84 synthLeadVoiceThree;
#X connect 0 0 7 0;
#X connect 1 0 8 0;
#X connect 2 0 9 0;
#X connect 3 0 10 0;
#X connect 5 0 6 0;
#X connect 6 0 4 0;
#X connect 7 0 5 0;
#X connect 8 0 5 1;
#X connect 9 0 5 2;
#X connect 10 0 5 3;
#X restore 685 244 pd leadSynthThree;
#X obj 506 430 *~ 0.5;
#X obj 680 526 line~;
#X obj 681 491 pack 0 5;
#X connect 1 0 5 0;
#X connect 1 0 4 0;
#X connect 1 0 9 0;
#X connect 1 0 8 0;
#X connect 1 1 5 1;
#X connect 1 1 4 1;
#X connect 1 1 9 1;
#X connect 1 1 8 1;
#X connect 1 2 5 2;
#X connect 1 2 4 2;
#X connect 1 2 9 2;
#X connect 1 2 8 2;
#X connect 1 3 5 3;
#X connect 1 3 4 3;
#X connect 1 3 9 3;
#X connect 1 3 8 3;
#X connect 2 0 10 0;
#X connect 3 0 12 0;
#X connect 5 0 2 0;
#X connect 6 0 0 0;
#X connect 6 0 0 1;
#X connect 10 0 6 0;
#X connect 11 0 6 1;
#X connect 12 0 11 0;
