#N canvas 0 50 1092 749 12;
#X obj 268 246 loadbang;
#X obj 268 382 soundfiler;
#X obj 268 312 symbol \$1;
#X obj 268 286 trigger a a;
#X obj 268 338 pack s s;
#X obj 340 311 symbol \$2;
#X obj 348 384 table \$2;
#X msg 268 360 read -resize \$1 \$2;
#X connect 0 0 3 0;
#X connect 2 0 4 0;
#X connect 3 0 2 0;
#X connect 3 1 5 0;
#X connect 4 0 7 0;
#X connect 5 0 4 1;
#X connect 7 0 1 0;
