#N canvas 326 128 1920 997 12;
#X obj 222 415 SerialRead;
#X obj 285 343 bng 40 250 50 0 empty empty stop 10 20 0 10 -258113
-262144 -262144;
#X obj 220 343 bng 40 250 50 0 empty empty start 10 20 0 10 -4034 -262144
-262144;
#N canvas -8 -8 1920 997 volControl 0;
#X obj 307 367 dac~;
#X obj 346 215 line~;
#X obj 315 289 *~;
#X obj 489 71 r mainVol;
#X obj 475 100 / 1023;
#X obj 563 58 loadbang;
#X msg 563 84 0.5;
#N canvas -128 158 1920 997 effect_pad 0;
#X obj 23 12 inlet~;
#X obj 38 558 outlet~;
#N canvas -8 -8 1920 997 wah-wah 0;
#X obj 19 121 inlet~;
#X obj 26 252 vcf~;
#X obj 90 79 osc~ 2;
#X obj 90 105 +~ 1;
#X obj 90 131 *~ 0.5;
#X obj 90 165 *~ 1500;
#X obj 90 191 +~ 200;
#X obj 85 47 hsl 128 15 0 127 0 0 empty empty empty -2 -8 0 10 -262144
-1 -1 0 1;
#X obj 468 137 loadbang;
#X obj 462 208 vsl 15 128 0 20 0 0 empty empty empty 0 -9 0 10 -262144
-1 -1 0 1;
#X obj 175 168 hsl 128 15 0 127 0 0 empty empty empty -2 -8 0 10 -262144
-1 -1 0 1;
#X obj 214 94 hsl 128 15 0 127 0 0 empty empty empty -2 -8 0 10 -262144
-1 -1 0 1;
#X obj 185 119 -;
#X obj 178 73 bang;
#X floatatom 255 140 5 0 0 0 - - -;
#X floatatom 184 220 5 0 0 0 - - -;
#X msg 144 238 200;
#X msg 352 149 1500;
#X obj 24 348 outlet~;
#X obj 523 161 inlet;
#X msg 432 159 5.3;
#X msg 468 163 0;
#X obj 461 377 line;
#X msg 461 348 \$1 50;
#X obj 30 290 *~ 1;
#X obj 512 376 expr if($i1==0 \, 1 \, $i1*0.5);
#X obj 508 434 line;
#X msg 508 405 \$1 50;
#X connect 0 0 1 0;
#X connect 1 0 24 0;
#X connect 2 0 3 0;
#X connect 3 0 4 0;
#X connect 4 0 5 0;
#X connect 5 0 6 0;
#X connect 6 0 1 1;
#X connect 7 0 2 0;
#X connect 8 0 21 0;
#X connect 9 0 23 0;
#X connect 9 0 25 0;
#X connect 10 0 6 1;
#X connect 10 0 12 1;
#X connect 10 0 15 0;
#X connect 11 0 12 0;
#X connect 12 0 5 1;
#X connect 12 0 14 0;
#X connect 13 0 10 0;
#X connect 13 0 12 0;
#X connect 16 0 6 1;
#X connect 17 0 5 1;
#X connect 19 0 9 0;
#X connect 20 0 9 0;
#X connect 21 0 9 0;
#X connect 22 0 1 2;
#X connect 23 0 22 0;
#X connect 24 0 18 0;
#X connect 25 0 27 0;
#X connect 26 0 24 1;
#X connect 27 0 26 0;
#X restore 26 119 pd wah-wah;
#N canvas -8 -8 1920 997 distortion 0;
#X obj 11 8 inlet~;
#X obj 31 417 outlet~;
#X obj 88 74 clip~ -0.5 0.5;
#X obj 11 283 *~ 1;
#X obj 88 271 *~ 0;
#X msg 32 225 \$1 15;
#X msg 109 223 \$1 15;
#X obj 32 247 line;
#X obj 109 245 line;
#X obj 113 169 / 127;
#X obj 189 228 expr (127 - $f1) / 127;
#X msg 141 301 8000;
#X obj 88 325 vcf~ 2;
#X obj 143 278 loadbang;
#X obj 226 29 vsl 15 128 0 127 0 0 empty empty empty 0 -9 0 10 -262144
-1 -1 0 1;
#X obj 233 16 inlet;
#X msg 294 50 0;
#X obj 294 24 loadbang;
#X msg 226 165 \$1 50;
#X obj 226 191 line;
#X obj 88 51 *~ 40;
#X obj 88 299 *~ 0.1;
#X connect 0 0 3 0;
#X connect 0 0 20 0;
#X connect 2 0 4 0;
#X connect 3 0 1 0;
#X connect 4 0 21 0;
#X connect 5 0 7 0;
#X connect 6 0 8 0;
#X connect 7 0 3 1;
#X connect 8 0 4 1;
#X connect 9 0 6 0;
#X connect 10 0 5 0;
#X connect 11 0 12 1;
#X connect 12 0 1 0;
#X connect 12 1 1 0;
#X connect 13 0 11 0;
#X connect 14 0 18 0;
#X connect 15 0 14 0;
#X connect 16 0 14 0;
#X connect 17 0 16 0;
#X connect 18 0 19 0;
#X connect 19 0 10 0;
#X connect 19 0 9 0;
#X connect 20 0 2 0;
#X connect 21 0 12 0;
#X restore 25 166 pd distortion;
#N canvas -8 -8 1920 997 bitCrush 0;
#X obj 199 215 samphold~;
#X obj 254 192 phasor~;
#X obj 27 79 inlet~;
#X obj 43 298 outlet~;
#X obj 256 112 expr (127 - $f1) / 127;
#X obj 27 265 *~ 1;
#X obj 68 263 *~ 0;
#X obj 89 139 > 0.95;
#X obj 48 219 line;
#X msg 48 194 \$1 15;
#X obj 89 218 line;
#X msg 89 193 \$1 15;
#X obj 89 167 expr 1 - $f1;
#X obj 254 132 * 4000;
#X obj 254 162 + 3000;
#X obj 253 32 hsl 128 15 0 127 0 0 empty empty empty -2 -8 0 10 -262144
-1 -1 0 1;
#X obj 243 6 inlet;
#X msg 174 39 0;
#X obj 181 7 loadbang;
#X obj 252 88 line;
#X msg 250 52 \$1 50;
#X connect 0 0 6 0;
#X connect 1 0 0 1;
#X connect 2 0 0 0;
#X connect 2 0 5 0;
#X connect 4 0 7 0;
#X connect 4 0 13 0;
#X connect 5 0 3 0;
#X connect 6 0 3 0;
#X connect 7 0 12 0;
#X connect 7 0 9 0;
#X connect 8 0 5 1;
#X connect 9 0 8 0;
#X connect 10 0 6 1;
#X connect 11 0 10 0;
#X connect 12 0 11 0;
#X connect 13 0 14 0;
#X connect 14 0 1 0;
#X connect 15 0 20 0;
#X connect 16 0 15 0;
#X connect 17 0 15 0;
#X connect 18 0 17 0;
#X connect 19 0 4 0;
#X connect 20 0 19 0;
#X restore 26 214 pd bitCrush;
#N canvas 761 65 747 419 verb 0;
#X obj 51 375 outlet~;
#X obj 55 266 inlet~;
#X obj 310 293 expr 1 - $f1;
#X obj 297 59 loadbang;
#X obj 112 119 hsl 128 15 0 1 0 1 empty empty 'roomsize' 20 8 0 10
-262144 -260097 -1 0 0;
#X obj 127 162 hsl 128 15 0 2.4 0 1 empty empty damp 20 8 0 10 -262144
-260097 -1 0 0;
#X obj 157 255 hsl 128 15 0 1 0 1 empty empty wet 20 8 0 10 -262144
-260097 -1 0 0;
#X obj 142 205 hsl 128 15 0 1 0 1 empty empty dry 20 8 0 10 -262144
-260097 -1 12700 0;
#N canvas 526 279 634 321 vfreeverb~ 0;
#N canvas 261 50 778 367 combfilters-left1 0;
#X obj 46 244 +~;
#X obj 61 219 *~ 0.3;
#X obj 61 194 lop~ 1000;
#X obj 231 244 +~;
#X obj 246 219 *~ 0.3;
#X obj 246 194 lop~ 1000;
#X obj 429 218 *~ 0.3;
#X obj 429 193 lop~ 1000;
#X obj 414 241 +~;
#X obj 610 218 *~ 0.3;
#X obj 610 193 lop~ 1000;
#X obj 595 241 +~;
#X obj 61 97 r \$0-comb1left;
#X obj 246 97 r \$0-comb2left;
#X obj 429 95 r \$0-comb3left;
#X obj 610 96 r \$0-comb4left;
#X obj 112 170 r \$0-frequency;
#X obj 297 170 r \$0-frequency;
#X obj 480 167 r \$0-frequency;
#X obj 661 167 r \$0-frequency;
#X obj 46 28 inlet~;
#X obj 338 326 outlet~;
#X floatatom 70 119 5 0 0 0 - - -;
#X floatatom 255 121 5 0 0 0 - - -;
#X floatatom 439 119 5 0 0 0 - - -;
#X floatatom 622 121 5 0 0 0 - - -;
#X obj 279 58 clip 0 0.99;
#X obj 279 29 r \$0-room;
#X obj 61 141 delread~ \$0-comb1left2;
#X obj 246 142 delread~ \$0-comb2left2;
#X obj 429 141 delread~ \$0-comb3left2;
#X obj 610 141 delread~ \$0-comb4left2;
#X obj 46 268 delwrite~ \$0-comb1left2 100;
#X obj 231 268 delwrite~ \$0-comb2left2 100;
#X obj 414 267 delwrite~ \$0-comb3left2 100;
#X obj 595 267 delwrite~ \$0-comb4left2 100;
#X connect 0 0 32 0;
#X connect 1 0 0 1;
#X connect 2 0 1 0;
#X connect 2 0 21 0;
#X connect 3 0 33 0;
#X connect 4 0 3 1;
#X connect 5 0 4 0;
#X connect 5 0 21 0;
#X connect 6 0 8 1;
#X connect 7 0 6 0;
#X connect 7 0 21 0;
#X connect 8 0 34 0;
#X connect 9 0 11 1;
#X connect 10 0 9 0;
#X connect 10 0 21 0;
#X connect 11 0 35 0;
#X connect 12 0 22 0;
#X connect 12 0 28 0;
#X connect 13 0 23 0;
#X connect 13 0 29 0;
#X connect 14 0 24 0;
#X connect 14 0 30 0;
#X connect 15 0 25 0;
#X connect 15 0 31 0;
#X connect 16 0 2 1;
#X connect 17 0 5 1;
#X connect 18 0 7 1;
#X connect 19 0 10 1;
#X connect 20 0 0 0;
#X connect 20 0 3 0;
#X connect 20 0 8 0;
#X connect 20 0 11 0;
#X connect 26 0 1 1;
#X connect 26 0 4 1;
#X connect 26 0 6 1;
#X connect 26 0 9 1;
#X connect 27 0 26 0;
#X connect 28 0 2 0;
#X connect 29 0 5 0;
#X connect 30 0 7 0;
#X connect 31 0 10 0;
#X restore 15 100 pd combfilters-left1;
#N canvas 409 107 358 650 diffusor-left 0;
#X obj 51 107 *~ 0.5;
#X obj 36 132 +~;
#X obj 66 132 -~;
#X obj 36 26 inlet~;
#X obj 81 238 *~ 0.5;
#X obj 66 263 +~;
#X obj 96 263 -~;
#X obj 111 368 *~ 0.5;
#X obj 96 393 +~;
#X obj 126 393 -~;
#X obj 141 498 *~ 0.5;
#X obj 126 523 +~;
#X obj 156 523 -~;
#X obj 156 605 outlet~;
#X text 95 28 freeverb's diffusor;
#X obj 156 576 hip~ 5;
#X floatatom 214 70 5 0 0 0 - - -;
#X floatatom 246 203 5 0 0 0 - - -;
#X floatatom 280 334 5 0 0 0 - - -;
#X floatatom 304 464 5 0 0 0 - - -;
#X obj 51 53 r \$0-allpass1left;
#X obj 81 186 r \$0-allpass2left;
#X obj 111 317 r \$0-allpass3left;
#X obj 51 80 delread~ \$0-allpass1left2;
#X obj 36 158 delwrite~ \$0-allpass1left2 40;
#X obj 81 211 delread~ \$0-allpass2left2;
#X obj 66 290 delwrite~ \$0-allpass2left2 40;
#X obj 111 341 delread~ \$0-allpass3left2;
#X obj 96 420 delwrite~ \$0-allpass3left2 40;
#X obj 141 447 r \$0-allpass4left;
#X obj 141 471 delread~ \$0-allpass4left2;
#X obj 126 550 delwrite~ \$0-allpass4left2 40;
#X connect 0 0 1 1;
#X connect 1 0 24 0;
#X connect 2 0 5 0;
#X connect 2 0 6 1;
#X connect 3 0 1 0;
#X connect 3 0 2 1;
#X connect 4 0 5 1;
#X connect 5 0 26 0;
#X connect 6 0 8 0;
#X connect 6 0 9 1;
#X connect 7 0 8 1;
#X connect 8 0 28 0;
#X connect 9 0 11 0;
#X connect 9 0 12 1;
#X connect 10 0 11 1;
#X connect 11 0 31 0;
#X connect 12 0 15 0;
#X connect 15 0 13 0;
#X connect 20 0 16 0;
#X connect 20 0 23 0;
#X connect 21 0 17 0;
#X connect 21 0 25 0;
#X connect 22 0 18 0;
#X connect 22 0 27 0;
#X connect 23 0 0 0;
#X connect 23 0 2 0;
#X connect 25 0 4 0;
#X connect 25 0 6 0;
#X connect 27 0 7 0;
#X connect 27 0 9 0;
#X connect 29 0 19 0;
#X connect 29 0 30 0;
#X connect 30 0 10 0;
#X connect 30 0 12 0;
#X restore 15 168 pd diffusor-left;
#N canvas 312 366 778 367 combfilters-left2 0;
#X obj 46 244 +~;
#X obj 61 219 *~ 0.3;
#X obj 61 194 lop~ 1000;
#X obj 231 244 +~;
#X obj 246 219 *~ 0.3;
#X obj 246 194 lop~ 1000;
#X obj 429 218 *~ 0.3;
#X obj 429 193 lop~ 1000;
#X obj 414 241 +~;
#X obj 610 218 *~ 0.3;
#X obj 610 193 lop~ 1000;
#X obj 595 241 +~;
#X obj 112 170 r \$0-frequency;
#X obj 297 170 r \$0-frequency;
#X obj 480 167 r \$0-frequency;
#X obj 661 167 r \$0-frequency;
#X obj 46 28 inlet~;
#X obj 338 326 outlet~;
#X obj 61 90 r \$0-comb5left;
#X obj 246 90 r \$0-comb6left;
#X obj 429 88 r \$0-comb7left;
#X obj 610 89 r \$0-comb8left;
#X floatatom 70 116 5 0 0 0 - - -;
#X floatatom 261 118 5 0 0 0 - - -;
#X floatatom 440 117 5 0 0 0 - - -;
#X floatatom 620 116 5 0 0 0 - - -;
#X obj 279 58 clip 0 0.99;
#X obj 279 28 r \$0-room;
#X obj 61 141 delread~ \$0-comb5left2;
#X obj 246 142 delread~ \$0-comb6left2;
#X obj 429 141 delread~ \$0-comb7left2;
#X obj 610 141 delread~ \$0-comb8left2;
#X obj 46 268 delwrite~ \$0-comb5left2 100;
#X obj 231 268 delwrite~ \$0-comb6left2 100;
#X obj 414 267 delwrite~ \$0-comb7left2 100;
#X obj 595 267 delwrite~ \$0-comb8left2 100;
#X connect 0 0 32 0;
#X connect 1 0 0 1;
#X connect 2 0 1 0;
#X connect 2 0 17 0;
#X connect 3 0 33 0;
#X connect 4 0 3 1;
#X connect 5 0 4 0;
#X connect 5 0 17 0;
#X connect 6 0 8 1;
#X connect 7 0 6 0;
#X connect 7 0 17 0;
#X connect 8 0 34 0;
#X connect 9 0 11 1;
#X connect 10 0 9 0;
#X connect 10 0 17 0;
#X connect 11 0 35 0;
#X connect 12 0 2 1;
#X connect 13 0 5 1;
#X connect 14 0 7 1;
#X connect 15 0 10 1;
#X connect 16 0 0 0;
#X connect 16 0 3 0;
#X connect 16 0 8 0;
#X connect 16 0 11 0;
#X connect 18 0 22 0;
#X connect 18 0 28 0;
#X connect 19 0 23 0;
#X connect 19 0 29 0;
#X connect 20 0 24 0;
#X connect 20 0 30 0;
#X connect 21 0 25 0;
#X connect 21 0 31 0;
#X connect 26 0 1 1;
#X connect 26 0 4 1;
#X connect 26 0 6 1;
#X connect 26 0 9 1;
#X connect 27 0 26 0;
#X connect 28 0 2 0;
#X connect 29 0 5 0;
#X connect 30 0 7 0;
#X connect 31 0 10 0;
#X restore 36 134 pd combfilters-left2;
#N canvas 261 50 778 367 combfilters-right1 0;
#X obj 46 244 +~;
#X obj 61 219 *~ 0.3;
#X obj 61 194 lop~ 1000;
#X obj 231 244 +~;
#X obj 246 219 *~ 0.3;
#X obj 246 194 lop~ 1000;
#X obj 429 218 *~ 0.3;
#X obj 429 193 lop~ 1000;
#X obj 414 241 +~;
#X obj 610 218 *~ 0.3;
#X obj 610 193 lop~ 1000;
#X obj 595 241 +~;
#X obj 112 170 r \$0-frequency;
#X obj 297 170 r \$0-frequency;
#X obj 480 167 r \$0-frequency;
#X obj 661 167 r \$0-frequency;
#X obj 46 28 inlet~;
#X obj 338 326 outlet~;
#X floatatom 70 119 5 0 0 0 - - -;
#X floatatom 255 121 5 0 0 0 - - -;
#X floatatom 439 119 5 0 0 0 - - -;
#X floatatom 622 121 5 0 0 0 - - -;
#X obj 61 97 r \$0-comb1right;
#X obj 246 97 r \$0-comb2right;
#X obj 429 95 r \$0-comb3right;
#X obj 610 97 r \$0-comb4right;
#X obj 279 58 clip 0 0.99;
#X obj 279 28 r \$0-room;
#X obj 61 141 delread~ \$0-comb1right2;
#X obj 246 142 delread~ \$0-comb2right2;
#X obj 429 141 delread~ \$0-comb3right2;
#X obj 610 141 delread~ \$0-comb4right2;
#X obj 46 268 delwrite~ \$0-comb1right2 100;
#X obj 231 268 delwrite~ \$0-comb2right2 100;
#X obj 414 267 delwrite~ \$0-comb3right2 100;
#X obj 595 267 delwrite~ \$0-comb4right2 100;
#X connect 0 0 32 0;
#X connect 1 0 0 1;
#X connect 2 0 1 0;
#X connect 2 0 17 0;
#X connect 3 0 33 0;
#X connect 4 0 3 1;
#X connect 5 0 4 0;
#X connect 5 0 17 0;
#X connect 6 0 8 1;
#X connect 7 0 6 0;
#X connect 7 0 17 0;
#X connect 8 0 34 0;
#X connect 9 0 11 1;
#X connect 10 0 9 0;
#X connect 10 0 17 0;
#X connect 11 0 35 0;
#X connect 12 0 2 1;
#X connect 13 0 5 1;
#X connect 14 0 7 1;
#X connect 15 0 10 1;
#X connect 16 0 0 0;
#X connect 16 0 3 0;
#X connect 16 0 8 0;
#X connect 16 0 11 0;
#X connect 22 0 18 0;
#X connect 22 0 28 0;
#X connect 23 0 19 0;
#X connect 23 0 29 0;
#X connect 24 0 20 0;
#X connect 24 0 30 0;
#X connect 25 0 21 0;
#X connect 25 0 31 0;
#X connect 26 0 1 1;
#X connect 26 0 4 1;
#X connect 26 0 6 1;
#X connect 26 0 9 1;
#X connect 27 0 26 0;
#X connect 28 0 2 0;
#X connect 29 0 5 0;
#X connect 30 0 7 0;
#X connect 31 0 10 0;
#X restore 208 99 pd combfilters-right1;
#N canvas 312 366 778 367 combfilters-right2 0;
#X obj 46 244 +~;
#X obj 61 219 *~ 0.3;
#X obj 61 194 lop~ 1000;
#X obj 231 244 +~;
#X obj 246 219 *~ 0.3;
#X obj 246 194 lop~ 1000;
#X obj 429 218 *~ 0.3;
#X obj 429 193 lop~ 1000;
#X obj 414 241 +~;
#X obj 610 218 *~ 0.3;
#X obj 610 193 lop~ 1000;
#X obj 595 241 +~;
#X obj 112 170 r \$0-frequency;
#X obj 297 170 r \$0-frequency;
#X obj 480 167 r \$0-frequency;
#X obj 661 167 r \$0-frequency;
#X obj 46 28 inlet~;
#X obj 338 326 outlet~;
#X floatatom 70 116 5 0 0 0 - - -;
#X floatatom 261 118 5 0 0 0 - - -;
#X floatatom 440 117 5 0 0 0 - - -;
#X floatatom 620 116 5 0 0 0 - - -;
#X obj 279 58 clip 0 0.99;
#X obj 61 90 r \$0-comb5right;
#X obj 246 90 r \$0-comb6right;
#X obj 429 88 r \$0-comb7right;
#X obj 610 89 r \$0-comb8right;
#X obj 279 28 r \$0-room;
#X obj 61 141 delread~ \$0-comb5right2;
#X obj 246 142 delread~ \$0-comb6right2;
#X obj 429 141 delread~ \$0-comb7right2;
#X obj 610 141 delread~ \$0-comb8right2;
#X obj 595 267 delwrite~ \$0-comb8right2 100;
#X obj 414 267 delwrite~ \$0-comb7right2 100;
#X obj 231 268 delwrite~ \$0-comb6right2 100;
#X obj 46 268 delwrite~ \$0-comb5right2 100;
#X connect 0 0 35 0;
#X connect 1 0 0 1;
#X connect 2 0 1 0;
#X connect 2 0 17 0;
#X connect 3 0 34 0;
#X connect 4 0 3 1;
#X connect 5 0 4 0;
#X connect 5 0 17 0;
#X connect 6 0 8 1;
#X connect 7 0 6 0;
#X connect 7 0 17 0;
#X connect 8 0 33 0;
#X connect 9 0 11 1;
#X connect 10 0 9 0;
#X connect 10 0 17 0;
#X connect 11 0 32 0;
#X connect 12 0 2 1;
#X connect 13 0 5 1;
#X connect 14 0 7 1;
#X connect 15 0 10 1;
#X connect 16 0 0 0;
#X connect 16 0 3 0;
#X connect 16 0 8 0;
#X connect 16 0 11 0;
#X connect 22 0 1 1;
#X connect 22 0 4 1;
#X connect 22 0 6 1;
#X connect 22 0 9 1;
#X connect 23 0 18 0;
#X connect 23 0 28 0;
#X connect 24 0 19 0;
#X connect 24 0 29 0;
#X connect 25 0 20 0;
#X connect 25 0 30 0;
#X connect 26 0 21 0;
#X connect 26 0 31 0;
#X connect 27 0 22 0;
#X connect 28 0 2 0;
#X connect 29 0 5 0;
#X connect 30 0 7 0;
#X connect 31 0 10 0;
#X restore 225 133 pd combfilters-right2;
#N canvas 457 180 358 650 diffusor-right 0;
#X obj 51 107 *~ 0.5;
#X obj 36 132 +~;
#X obj 66 132 -~;
#X obj 36 26 inlet~;
#X obj 81 238 *~ 0.5;
#X obj 66 263 +~;
#X obj 96 263 -~;
#X obj 111 368 *~ 0.5;
#X obj 96 393 +~;
#X obj 126 393 -~;
#X obj 141 498 *~ 0.5;
#X obj 126 523 +~;
#X obj 156 523 -~;
#X obj 156 605 outlet~;
#X text 95 28 freeverb's diffusor;
#X obj 156 576 hip~ 5;
#X floatatom 214 70 5 0 0 0 - - -;
#X floatatom 244 203 5 0 0 0 - - -;
#X floatatom 280 334 5 0 0 0 - - -;
#X floatatom 304 464 5 0 0 0 - - -;
#X obj 51 53 r \$0-allpass1right;
#X obj 81 186 r \$0-allpass2right;
#X obj 111 317 r \$0-allpass3right;
#X obj 141 447 r \$0-allpass4right;
#X obj 51 80 delread~ \$0-allpass1right2;
#X obj 36 158 delwrite~ \$0-allpass1right2 40;
#X obj 81 211 delread~ \$0-allpass2right2;
#X obj 66 290 delwrite~ \$0-allpass2right2 40;
#X obj 111 341 delread~ \$0-allpass3right2;
#X obj 96 420 delwrite~ \$0-allpass3right2 40;
#X obj 141 471 delread~ \$0-allpass4right2;
#X obj 126 550 delwrite~ \$0-allpass4right2 40;
#X connect 0 0 1 1;
#X connect 1 0 25 0;
#X connect 2 0 5 0;
#X connect 2 0 6 1;
#X connect 3 0 1 0;
#X connect 3 0 2 1;
#X connect 4 0 5 1;
#X connect 5 0 27 0;
#X connect 6 0 8 0;
#X connect 6 0 9 1;
#X connect 7 0 8 1;
#X connect 8 0 29 0;
#X connect 9 0 11 0;
#X connect 9 0 12 1;
#X connect 10 0 11 1;
#X connect 11 0 31 0;
#X connect 12 0 15 0;
#X connect 15 0 13 0;
#X connect 20 0 16 0;
#X connect 20 0 24 0;
#X connect 21 0 17 0;
#X connect 21 0 26 0;
#X connect 22 0 18 0;
#X connect 22 0 28 0;
#X connect 23 0 19 0;
#X connect 23 0 30 0;
#X connect 24 0 0 0;
#X connect 24 0 2 0;
#X connect 26 0 4 0;
#X connect 26 0 6 0;
#X connect 28 0 7 0;
#X connect 28 0 9 0;
#X connect 30 0 10 0;
#X connect 30 0 12 0;
#X restore 208 169 pd diffusor-right;
#X obj 208 61 *~ 0.015;
#X obj 15 226 *~ 1;
#X obj 208 228 *~ 1;
#X obj 94 228 *~ 1;
#X obj 169 228 *~ 1;
#X obj 115 202 r \$0-dry;
#X obj 229 203 r \$0-wet;
#X obj 36 201 r \$0-wet;
#X obj 94 14 inlet~;
#X obj 208 14 inlet~;
#X obj 15 268 outlet~;
#X obj 169 269 outlet~;
#X obj 312 14 inlet;
#X obj 374 14 inlet;
#X obj 462 14 inlet;
#X obj 544 16 inlet;
#N canvas 0 50 207 207 room 0;
#X obj 32 35 inlet;
#X obj 32 63 * 0.28;
#X obj 32 94 + 0.7;
#X obj 32 160 outlet;
#X text 80 65 scaleroom;
#X text 76 94 offsetroom;
#X obj 47 126 s \$0-room;
#X connect 0 0 1 0;
#X connect 1 0 2 0;
#X connect 2 0 3 0;
#X connect 2 0 6 0;
#X restore 312 45 pd room;
#N canvas 684 169 244 376 frequency 0;
#X obj 60 222 samplerate~;
#X obj 33 8 inlet;
#X obj 33 194 t f b;
#X obj 33 249 *;
#X obj 53 303 s \$0-frequency;
#X obj 33 327 outlet;
#X obj 33 64 * 0.4;
#X text 76 66 scaledamp;
#X obj 33 90 t b f;
#X obj 33 141 -;
#X msg 33 116 1;
#X obj 33 168 abs;
#X obj 33 275 * 0.5;
#X text 153 303 for [lop~];
#X obj 33 38 clip 0 2.4;
#X connect 0 0 3 1;
#X connect 1 0 14 0;
#X connect 2 0 3 0;
#X connect 2 1 0 0;
#X connect 3 0 12 0;
#X connect 6 0 8 0;
#X connect 8 0 10 0;
#X connect 8 1 9 1;
#X connect 9 0 11 0;
#X connect 10 0 9 0;
#X connect 11 0 2 0;
#X connect 12 0 5 0;
#X connect 12 0 4 0;
#X connect 14 0 6 0;
#X restore 374 45 pd frequency;
#N canvas 0 50 170 187 scalewet 0;
#X obj 22 42 inlet;
#X obj 22 143 outlet;
#X obj 22 73 * 3;
#X text 49 74 scalewet;
#X obj 40 112 s \$0-wet;
#X connect 0 0 2 0;
#X connect 2 0 1 0;
#X connect 2 0 4 0;
#X restore 544 45 pd scalewet;
#N canvas 0 50 220 198 scaledry 0;
#X obj 32 74 * 2;
#X obj 32 40 inlet;
#X obj 32 141 outlet;
#X text 58 75 scaledry;
#X obj 41 105 s \$0-dry;
#X connect 0 0 2 0;
#X connect 0 0 4 0;
#X connect 1 0 0 0;
#X restore 462 45 pd scaledry;
#X floatatom 312 70 5 0 0 0 - - -;
#X floatatom 374 70 10 0 0 0 - - -;
#X floatatom 462 69 5 0 0 0 - - -;
#X floatatom 544 69 5 0 0 0 - - -;
#N canvas 405 50 635 684 tuning 0;
#X msg 332 81 1139 \, 1211 \, 1300 \, 1379 \, 1445 \, 1514 \, 1580
\, 1640;
#X text 72 57 combfilter tunings left;
#X text 377 56 combfilter tunings right;
#X text 71 360 allpass tunings left;
#X text 383 355 allpass tunings right;
#N canvas 243 170 195 233 sampstoms 0;
#X obj 27 21 inlet;
#X obj 54 86 samplerate~;
#X obj 27 111 /;
#X obj 27 57 t f b;
#X obj 27 136 * 1000;
#X obj 27 162 outlet;
#X connect 0 0 3 0;
#X connect 1 0 2 1;
#X connect 2 0 4 0;
#X connect 3 0 2 0;
#X connect 3 1 1 0;
#X connect 4 0 5 0;
#X restore 30 107 pd sampstoms;
#X msg 30 82 1116 \, 1188 \, 1277 \, 1356 \, 1422 \, 1491 \, 1557 \,
1617;
#X obj 57 188 +;
#X msg 57 159 1;
#X obj 30 135 t f b;
#X obj 87 188 f;
#X obj 30 56 t b b;
#X msg 87 159 0;
#X obj 57 212 pack f \$0;
#X msg 57 238 \$2-comb\$1left;
#X obj 30 282 s;
#X obj 57 265 symbol;
#N canvas 0 50 195 233 sampstoms 0;
#X obj 27 21 inlet;
#X obj 54 86 samplerate~;
#X obj 27 111 /;
#X obj 27 57 t f b;
#X obj 27 136 * 1000;
#X obj 27 162 outlet;
#X connect 0 0 3 0;
#X connect 1 0 2 1;
#X connect 2 0 4 0;
#X connect 3 0 2 0;
#X connect 3 1 1 0;
#X connect 4 0 5 0;
#X restore 332 107 pd sampstoms;
#X obj 359 188 +;
#X msg 359 159 1;
#X obj 332 135 t f b;
#X obj 389 188 f;
#X msg 389 159 0;
#X obj 359 212 pack f \$0;
#X obj 332 282 s;
#X obj 359 265 symbol;
#X obj 332 56 t b b;
#X msg 359 238 \$2-comb\$1right;
#X obj 30 360 t b b;
#N canvas 0 50 195 233 sampstoms 0;
#X obj 27 21 inlet;
#X obj 54 86 samplerate~;
#X obj 27 111 /;
#X obj 27 57 t f b;
#X obj 27 136 * 1000;
#X obj 27 162 outlet;
#X connect 0 0 3 0;
#X connect 1 0 2 1;
#X connect 2 0 4 0;
#X connect 3 0 2 0;
#X connect 3 1 1 0;
#X connect 4 0 5 0;
#X restore 30 411 pd sampstoms;
#X obj 57 492 +;
#X msg 57 463 1;
#X obj 30 439 t f b;
#X obj 87 492 f;
#X msg 87 463 0;
#X obj 57 516 pack f \$0;
#X obj 30 586 s;
#X obj 57 569 symbol;
#X obj 334 356 t b b;
#N canvas 0 50 195 233 sampstoms 0;
#X obj 27 21 inlet;
#X obj 54 86 samplerate~;
#X obj 27 111 /;
#X obj 27 57 t f b;
#X obj 27 136 * 1000;
#X obj 27 162 outlet;
#X connect 0 0 3 0;
#X connect 1 0 2 1;
#X connect 2 0 4 0;
#X connect 3 0 2 0;
#X connect 3 1 1 0;
#X connect 4 0 5 0;
#X restore 334 407 pd sampstoms;
#X obj 361 488 +;
#X msg 361 459 1;
#X obj 334 435 t f b;
#X obj 391 488 f;
#X msg 391 459 0;
#X obj 361 512 pack f \$0;
#X obj 334 582 s;
#X obj 361 565 symbol;
#X obj 30 22 loadbang;
#X obj 332 27 loadbang;
#X obj 30 334 loadbang;
#X obj 334 331 loadbang;
#X obj 268 41 bng 15 250 50 0 empty empty empty 17 7 0 10 -262144 -1
-1;
#X msg 30 386 225 \, 556 \, 441 \, 341;
#X msg 334 380 248 \, 579 \, 464 \, 364;
#X msg 57 542 \$2-allpass\$1left;
#X msg 361 539 \$2-allpass\$1right;
#X text 27 624 Original Freeverb delay line lengths are converted to
milliseconds \, based on samplerate.;
#X connect 0 0 17 0;
#X connect 5 0 9 0;
#X connect 6 0 5 0;
#X connect 7 0 10 0;
#X connect 7 0 13 0;
#X connect 8 0 7 0;
#X connect 9 0 15 0;
#X connect 9 1 8 0;
#X connect 10 0 7 1;
#X connect 11 0 6 0;
#X connect 11 1 12 0;
#X connect 12 0 10 0;
#X connect 13 0 14 0;
#X connect 14 0 16 0;
#X connect 16 0 15 1;
#X connect 17 0 20 0;
#X connect 18 0 21 0;
#X connect 18 0 23 0;
#X connect 19 0 18 0;
#X connect 20 0 24 0;
#X connect 20 1 19 0;
#X connect 21 0 18 1;
#X connect 22 0 21 0;
#X connect 23 0 27 0;
#X connect 25 0 24 1;
#X connect 26 0 0 0;
#X connect 26 1 22 0;
#X connect 27 0 25 0;
#X connect 28 0 53 0;
#X connect 28 1 34 0;
#X connect 29 0 32 0;
#X connect 30 0 33 0;
#X connect 30 0 35 0;
#X connect 31 0 30 0;
#X connect 32 0 36 0;
#X connect 32 1 31 0;
#X connect 33 0 30 1;
#X connect 34 0 33 0;
#X connect 35 0 55 0;
#X connect 37 0 36 1;
#X connect 38 0 54 0;
#X connect 38 1 44 0;
#X connect 39 0 42 0;
#X connect 40 0 43 0;
#X connect 40 0 45 0;
#X connect 41 0 40 0;
#X connect 42 0 46 0;
#X connect 42 1 41 0;
#X connect 43 0 40 1;
#X connect 44 0 43 0;
#X connect 45 0 56 0;
#X connect 47 0 46 1;
#X connect 48 0 11 0;
#X connect 49 0 26 0;
#X connect 50 0 28 0;
#X connect 51 0 38 0;
#X connect 52 0 11 0;
#X connect 52 0 28 0;
#X connect 52 0 26 0;
#X connect 52 0 38 0;
#X connect 53 0 29 0;
#X connect 54 0 39 0;
#X connect 55 0 37 0;
#X connect 56 0 47 0;
#X restore 410 141 pd tuning;
#X connect 0 0 1 0;
#X connect 1 0 7 0;
#X connect 2 0 1 0;
#X connect 3 0 5 0;
#X connect 4 0 5 0;
#X connect 5 0 8 0;
#X connect 6 0 3 0;
#X connect 6 0 0 0;
#X connect 6 0 4 0;
#X connect 6 0 2 0;
#X connect 7 0 16 0;
#X connect 8 0 17 0;
#X connect 9 0 16 0;
#X connect 10 0 17 0;
#X connect 11 0 10 1;
#X connect 11 0 9 1;
#X connect 12 0 8 1;
#X connect 13 0 7 1;
#X connect 14 0 6 0;
#X connect 14 0 9 0;
#X connect 15 0 6 0;
#X connect 15 0 10 0;
#X connect 18 0 22 0;
#X connect 19 0 23 0;
#X connect 20 0 25 0;
#X connect 21 0 24 0;
#X connect 22 0 26 0;
#X connect 23 0 27 0;
#X connect 24 0 29 0;
#X connect 25 0 28 0;
#X restore 79 311 pd vfreeverb~;
#X obj 311 267 / 508, f 8;
#X msg 235 74 0;
#X msg 295 87 0;
#X obj 343 222 / 127;
#X obj 357 89 vsl 15 50 0 127 0 0 empty empty empty 0 -9 0 10 -262144
-1 -1 0 1;
#X obj 363 6 inlet;
#X obj 401 175 line;
#X msg 401 134 \$1 50;
#X obj 329 188 line;
#X msg 329 147 \$1 50;
#X connect 1 0 8 0;
#X connect 1 0 8 1;
#X connect 2 0 7 0;
#X connect 3 0 11 0;
#X connect 3 0 10 0;
#X connect 4 0 8 2;
#X connect 5 0 8 3;
#X connect 6 0 8 5;
#X connect 7 0 8 4;
#X connect 8 0 0 0;
#X connect 8 1 0 0;
#X connect 9 0 2 0;
#X connect 9 0 6 0;
#X connect 10 0 4 0;
#X connect 10 0 6 0;
#X connect 11 0 5 0;
#X connect 11 0 13 0;
#X connect 12 0 4 0;
#X connect 13 0 16 0;
#X connect 13 0 18 0;
#X connect 14 0 13 0;
#X connect 15 0 12 0;
#X connect 16 0 15 0;
#X connect 17 0 9 0;
#X connect 18 0 17 0;
#X restore 36 463 pd verb;
#N canvas -8 -8 1920 997 ringMod 0;
#X obj 92 302 outlet~;
#X obj 155 260 *~;
#X obj 18 260 *~;
#X obj 179 52 loadbang;
#X msg 179 77 0;
#X obj 18 81 inlet~;
#X obj 49 165 mtof;
#X obj 49 188 osc~;
#X obj 18 211 *~;
#X obj 49 239 line~, f 6;
#X msg 169 148 0 15;
#X msg 261 133 0.5 15;
#X msg 212 133 1 15;
#X obj 170 232 line~;
#X obj 171 104 moses 5;
#X obj 156 12 r fx-ring-mod;
#X obj 372 99 vsl 15 80 0 127 0 0 empty empty empty 0 -9 0 10 -262144
-1 -1 0 1;
#X obj 386 54 inlet;
#X obj 365 228 s fx-ring-mod;
#X msg 372 187 \$1 50;
#X connect 1 0 0 0;
#X connect 2 0 0 0;
#X connect 3 0 4 0;
#X connect 4 0 14 0;
#X connect 4 0 16 0;
#X connect 5 0 8 0;
#X connect 5 0 1 0;
#X connect 6 0 7 0;
#X connect 7 0 8 1;
#X connect 8 0 2 0;
#X connect 9 0 2 1;
#X connect 10 0 9 0;
#X connect 11 0 9 0;
#X connect 11 0 13 0;
#X connect 12 0 13 0;
#X connect 13 0 1 1;
#X connect 14 0 12 0;
#X connect 14 0 10 0;
#X connect 14 1 11 0;
#X connect 15 0 6 0;
#X connect 15 0 14 0;
#X connect 16 0 19 0;
#X connect 17 0 16 0;
#X connect 19 0 18 0;
#X restore 34 408 pd ringMod;
#N canvas 962 209 483 567 cutoff 0;
#X text 274 164 cutoff filter;
#X obj 281 217 inlet~;
#X obj 85 365 *~;
#X obj 136 363 *~;
#X obj 100 135 expr 1 - $f1;
#X text 14 105 wet/dry;
#X obj 97 414 outlet~;
#X obj 361 222 sig~;
#X obj 99 21 loadbang;
#X obj 100 241 vline~;
#X msg 100 216 \$1 50;
#X obj 151 241 vline~;
#X msg 151 216 \$1 50;
#X msg 99 45 0;
#X obj 122 71 clip 0 1;
#X obj 361 139 * 127;
#X obj 361 118 expr 1 - $f1;
#X obj 361 95 / 127;
#X obj 100 100 \$1;
#X obj 361 195 + 200;
#X obj 421 222 sig~;
#X obj 361 164 * 25;
#X obj 342 253 vcf~ 5;
#X obj 402 253 vcf~ 5;
#X obj 172 32 r fx-cutoff;
#X obj 310 385 vsl 15 80 0 127 0 0 empty empty empty 0 -9 0 10 -262144
-1 -1 0 1;
#X obj 312 353 inlet;
#X obj 317 532 s fx-cutoff;
#X msg 310 473 \$1 50;
#X obj 310 499 line;
#X connect 1 0 2 0;
#X connect 1 0 22 0;
#X connect 1 0 23 0;
#X connect 2 0 6 0;
#X connect 3 0 6 0;
#X connect 4 0 10 0;
#X connect 7 0 22 1;
#X connect 8 0 13 0;
#X connect 9 0 2 1;
#X connect 10 0 9 0;
#X connect 11 0 3 1;
#X connect 12 0 11 0;
#X connect 13 0 18 0;
#X connect 13 0 25 0;
#X connect 14 0 18 0;
#X connect 15 0 21 0;
#X connect 16 0 15 0;
#X connect 17 0 16 0;
#X connect 18 0 4 0;
#X connect 18 0 12 0;
#X connect 19 0 7 0;
#X connect 19 0 20 0;
#X connect 20 0 23 1;
#X connect 21 0 19 0;
#X connect 22 0 3 0;
#X connect 22 1 3 0;
#X connect 23 0 3 0;
#X connect 23 1 3 0;
#X connect 24 0 14 0;
#X connect 24 0 17 0;
#X connect 25 0 28 0;
#X connect 26 0 25 0;
#X connect 28 0 29 0;
#X connect 29 0 27 0;
#X restore 35 500 pd cutoff;
#N canvas -173 61 1920 908 delay 0;
#X obj 251 411 delwrite~ del1 3000;
#X obj 258 195 inlet~;
#X obj 270 364 *~;
#X obj 270 334 r~ out_del1;
#X obj 399 371 *~;
#X obj 399 341 r~ out_del2;
#X obj 361 299 line~;
#X obj 360 270 pack 0 5;
#X obj 585 182 hsl 128 15 0 1 0 0 empty feedback empty -2 -8 0 10 -262144
-1 -1 4597 1;
#X obj 587 216 hsl 128 15 0 1 0 0 empty speed empty -2 -8 0 10 -262144
-1 -1 889 1;
#X obj 561 409 pack 0 5;
#X obj 561 435 line~;
#X obj 561 461 phasor~;
#X obj 539 559 -~ 0.5;
#X obj 539 585 *~ 0.5;
#X obj 539 611 cos~;
#X obj 540 661 *~;
#X obj 613 539 *~;
#X obj 613 565 *~;
#X obj 613 591 vd~ del1;
#X obj 594 248 hsl 128 15 0 1024 0 0 empty depth empty -2 -8 0 10 -262144
-1 -1 4118 1;
#X obj 669 464 line~;
#X obj 669 431 pack 0 5;
#X obj 744 362 *~;
#X obj 744 388 send~ main;
#X obj 803 320 line~;
#X obj 804 286 pack 0 5;
#X obj 804 147 vsl 15 128 0 1 0 0 empty main_vol empty 0 -9 0 10 -262144
-1 -1 12700 1;
#X obj 1041 312 line~;
#X obj 1042 139 vsl 15 128 0 1 0 0 empty effect_vol empty 0 -9 0 10
-262144 -1 -1 0 1;
#X obj 982 380 send~ effect;
#X obj 984 348 *~;
#X obj 743 533 +~ 0.5;
#X obj 743 559 wrap~;
#X obj 744 606 *~;
#X obj 744 667 *~;
#X obj 816 639 -~ 0.5;
#X obj 816 665 *~ 0.5;
#X obj 816 691 cos~;
#X obj 817 728 *~;
#X obj 817 764 send~ out_del2;
#X obj 744 693 vd~ del2;
#X obj 887 495 r~ main;
#X obj 951 495 r~ effect;
#X obj 919 560 outlet~;
#X obj 920 534 +~;
#X obj 1243 222 loadbang;
#X obj 540 687 send~ out_del1;
#X obj 904 212 receive~ out_del1;
#X obj 904 243 receive~ out_del2;
#X obj 399 411 delwrite~ del2 3000;
#X msg 1244 262 \; main_vol 1 \; effect_vol 0 \; feedback 0.9 \; speed
0.07 \; depth 332 \; pd dsp 1 \;;
#X obj 1042 108 inlet;
#X floatatom 756 213 5 0 0 0 - - -;
#X msg 1449 240 \; main_vol 1 \; effect_vol 0 \; feedback 0.362 \;
speed 0.07 \; depth 332 \; pd dsp 1 \;;
#X obj 1042 278 pack 0 50;
#X connect 1 0 0 0;
#X connect 1 0 23 0;
#X connect 1 0 50 0;
#X connect 2 0 0 0;
#X connect 3 0 2 0;
#X connect 4 0 50 0;
#X connect 5 0 4 0;
#X connect 6 0 2 1;
#X connect 6 0 4 1;
#X connect 7 0 6 0;
#X connect 8 0 7 0;
#X connect 8 0 53 0;
#X connect 9 0 10 0;
#X connect 10 0 11 0;
#X connect 11 0 12 0;
#X connect 12 0 13 0;
#X connect 12 0 17 0;
#X connect 12 0 17 1;
#X connect 12 0 32 0;
#X connect 13 0 14 0;
#X connect 14 0 15 0;
#X connect 15 0 16 0;
#X connect 16 0 47 0;
#X connect 17 0 18 0;
#X connect 18 0 19 0;
#X connect 19 0 16 1;
#X connect 20 0 22 0;
#X connect 21 0 18 1;
#X connect 21 0 35 1;
#X connect 22 0 21 0;
#X connect 23 0 24 0;
#X connect 25 0 23 1;
#X connect 26 0 25 0;
#X connect 27 0 26 0;
#X connect 28 0 31 1;
#X connect 29 0 55 0;
#X connect 31 0 30 0;
#X connect 32 0 33 0;
#X connect 33 0 34 0;
#X connect 33 0 34 1;
#X connect 33 0 36 0;
#X connect 34 0 35 0;
#X connect 35 0 41 0;
#X connect 36 0 37 0;
#X connect 37 0 38 0;
#X connect 38 0 39 0;
#X connect 39 0 40 0;
#X connect 41 0 39 1;
#X connect 42 0 45 0;
#X connect 43 0 45 1;
#X connect 45 0 44 0;
#X connect 46 0 54 0;
#X connect 48 0 31 0;
#X connect 49 0 31 0;
#X connect 52 0 29 0;
#X connect 55 0 28 0;
#X restore 34 343 pd delay;
#N canvas -8 -8 1920 997 flanger 0;
#X obj 149 242 metro 10;
#X floatatom 105 150 5 0 0 0 - - -;
#X obj 311 214 +~ 1;
#X obj 54 398 +~;
#X obj 150 264 snapshot~;
#X obj 311 278 +~ 1;
#X obj 311 243 *~ 1;
#X obj 148 220 loadbang;
#X obj 311 186 osc~ 0.1;
#X text 355 199 delay magnitude(ms);
#X text 352 236 delay offset(ms);
#X text 445 362 feedback amount;
#X obj 159 110 vsl 12 50 0 1 0 0 empty empty speed -5 -7 1 10 -262144
-1 -1 0 1;
#X obj 48 54 inlet~;
#X obj 398 362 *~ 0.5;
#X obj 194 114 vsl 12 50 0 10 0 0 empty empty offset -5 -7 1 10 -262144
-1 -1 0 1;
#X obj 227 114 vsl 12 50 0 20 0 0 empty empty delay -5 -7 1 10 -262144
-1 -1 0 1;
#X obj 259 114 vsl 12 50 0 0.99 0 0 empty empty feedback -5 -7 1 10
-262144 -1 -1 0 1;
#X obj 107 53 inlet;
#X obj 164 53 inlet;
#X obj 107 77 s \$0-osc;
#X obj 311 153 r \$0-osc;
#X obj 164 77 s \$0-off;
#X obj 358 255 r \$0-off;
#X obj 221 53 inlet;
#X obj 221 77 s \$0-del;
#X obj 357 215 r \$0-del;
#X obj 279 52 inlet;
#X obj 279 77 s \$0-feed;
#X obj 431 272 r \$0-feed;
#X obj 156 383 delwrite~ \$0-line 1000;
#X obj 311 307 vd~ \$0-line;
#X text 102 103 flanger;
#X obj 54 427 outlet~;
#X text 102 133 delay(ms);
#X text 114 418 In addition to the sliders \, the inlets allow the
user to fully control the internals of the patch with no range-limits
;
#X obj 431 328 expr if($f1 > 1 \, 0.99 \, $f1);
#X obj 431 305 expr if($f1 < -1 \, -0.99 \, $f1);
#X connect 0 0 4 0;
#X connect 2 0 6 0;
#X connect 3 0 33 0;
#X connect 4 0 1 0;
#X connect 5 0 4 0;
#X connect 5 0 31 0;
#X connect 6 0 5 0;
#X connect 7 0 0 0;
#X connect 8 0 2 0;
#X connect 12 0 8 0;
#X connect 13 0 3 0;
#X connect 13 0 30 0;
#X connect 14 0 30 0;
#X connect 15 0 5 1;
#X connect 16 0 6 1;
#X connect 17 0 14 1;
#X connect 18 0 20 0;
#X connect 19 0 22 0;
#X connect 21 0 8 0;
#X connect 23 0 5 1;
#X connect 24 0 25 0;
#X connect 26 0 6 1;
#X connect 27 0 28 0;
#X connect 29 0 37 0;
#X connect 31 0 3 1;
#X connect 31 0 14 0;
#X connect 36 0 14 1;
#X connect 37 0 36 0;
#X restore 520 283 pd flanger;
#N canvas -7 14 1920 997 chorus 0;
#X obj 47 458 delwrite~ \$0-chorus 2000;
#X obj 434 353 vd~ \$0-chorus;
#X obj 434 234 osc~ 0.5;
#X obj 434 325 *~;
#X obj 434 264 +~ 2;
#X obj 104 354 vd~ \$0-chorus;
#X msg 149 204 0.35;
#X obj 104 233 osc~ 0.2;
#X obj 104 262 +~ 2;
#X obj 104 324 *~;
#X obj 47 385 inlet~;
#X obj 136 112 s \$0-speed;
#X obj 104 180 r \$0-speed;
#X obj 434 180 r \$0-speed;
#X obj 239 40 vsl 12 50 0 5 0 0 empty empty depth -8 -9 1 10 -262144
-1 -1 0 1;
#X obj 237 97 s \$0-depth;
#X obj 135 301 r \$0-depth;
#X obj 465 302 r \$0-depth;
#X obj 329 355 vd~ \$0-chorus;
#X obj 329 236 osc~ 0.5;
#X obj 329 293 *~ 2;
#X obj 329 324 *~;
#X obj 329 265 +~ 2;
#X obj 329 180 r \$0-speed;
#X obj 360 304 r \$0-depth;
#X msg 374 206 0.75;
#X obj 104 289 *~ 2;
#X obj 434 292 *~ 2;
#X obj 214 353 vd~ \$0-chorus;
#X obj 214 234 osc~ 0.5;
#X obj 214 291 *~ 2;
#X obj 214 322 *~;
#X obj 214 263 +~ 2;
#X obj 214 178 r \$0-speed;
#X obj 245 302 r \$0-depth;
#X msg 259 204 0.65;
#X obj 329 206 * 0.3;
#X obj 214 204 * 0.2;
#X obj 223 459 outlet~;
#X obj 314 459 outlet~;
#X text 99 158 chorus;
#X obj 287 125 loadbang;
#X obj 104 385 *~ 0.5;
#X obj 214 385 *~ 0.5;
#X obj 329 388 *~ 0.5;
#X obj 434 385 *~ 0.5;
#X obj 143 24 vsl 15 50 0 5 0 0 empty empty empty 0 -9 0 10 -262144
-1 -1 2450 1;
#X obj 683 315 r \$0-depth;
#X obj 683 338 expr if($f1==0 \, 0 \, 0.5);
#X floatatom 677 369 5 0 0 0 - - -;
#X obj 455 16 inlet;
#X obj 408 119 line;
#X obj 171 10 loadbang;
#X msg 171 33 2.5;
#X msg 389 28 0;
#X msg 436 75 \$1 50;
#X connect 1 0 45 0;
#X connect 2 0 4 0;
#X connect 3 0 1 0;
#X connect 4 0 27 0;
#X connect 5 0 42 0;
#X connect 6 0 7 1;
#X connect 7 0 8 0;
#X connect 8 0 26 0;
#X connect 9 0 5 0;
#X connect 10 0 0 0;
#X connect 10 0 38 0;
#X connect 10 0 39 0;
#X connect 12 0 7 0;
#X connect 13 0 2 0;
#X connect 14 0 15 0;
#X connect 16 0 9 1;
#X connect 17 0 3 1;
#X connect 18 0 44 0;
#X connect 19 0 22 0;
#X connect 20 0 21 0;
#X connect 21 0 18 0;
#X connect 22 0 20 0;
#X connect 23 0 36 0;
#X connect 24 0 21 1;
#X connect 25 0 19 1;
#X connect 26 0 9 0;
#X connect 27 0 3 0;
#X connect 28 0 43 0;
#X connect 29 0 32 0;
#X connect 30 0 31 0;
#X connect 31 0 28 0;
#X connect 32 0 30 0;
#X connect 33 0 37 0;
#X connect 34 0 31 1;
#X connect 35 0 29 1;
#X connect 36 0 19 0;
#X connect 37 0 29 0;
#X connect 41 0 6 0;
#X connect 41 0 25 0;
#X connect 41 0 35 0;
#X connect 42 0 38 0;
#X connect 43 0 38 0;
#X connect 44 0 39 0;
#X connect 45 0 39 0;
#X connect 46 0 11 0;
#X connect 47 0 48 0;
#X connect 48 0 45 1;
#X connect 48 0 44 1;
#X connect 48 0 43 1;
#X connect 48 0 42 1;
#X connect 48 0 49 0;
#X connect 50 0 55 0;
#X connect 51 0 14 0;
#X connect 52 0 53 0;
#X connect 52 0 54 0;
#X connect 53 0 46 0;
#X connect 54 0 55 0;
#X connect 55 0 51 0;
#X restore 29 260 pd chorus;
#N canvas 0 50 450 300 fuzz 0;
#X obj 70 104 inlet~;
#X obj 70 130 *~ 40;
#X obj 70 156 clip~ -0.5 0.5;
#X obj 70 182 outlet~;
#X connect 0 0 1 0;
#X connect 1 0 2 0;
#X connect 2 0 3 0;
#X restore 512 322 pd fuzz;
#N canvas 1164 209 450 300 tremolo 0;
#X obj 69 24 inlet~;
#X obj 69 142 *~;
#X obj 68 229 outlet~;
#X obj 176 58 osc~;
#X obj 176 95 *~;
#X obj 181 30 hsl 128 15 -1 1 0 0 empty empty empty -2 -8 0 10 -262144
-1 -1 0 1;
#X obj 262 83 hsl 128 15 1 20 0 0 empty empty empty -2 -8 0 10 -262144
-1 -1 0 1;
#X obj 177 164 *~;
#X obj 177 190 +~;
#X obj 245 153 hsl 128 15 0 1 0 0 empty empty empty -2 -8 0 10 -262144
-1 -1 0 1;
#X obj 242 173 expr 1-$f1;
#X obj 176 121 clip~ -1 1;
#X floatatom 242 222 5 0 0 0 - - -;
#X floatatom 291 230 5 0 0 0 - - -;
#X connect 0 0 1 0;
#X connect 1 0 2 0;
#X connect 3 0 4 0;
#X connect 4 0 11 0;
#X connect 5 0 3 0;
#X connect 6 0 4 1;
#X connect 7 0 8 0;
#X connect 8 0 1 1;
#X connect 9 0 7 0;
#X connect 9 0 10 0;
#X connect 9 0 12 0;
#X connect 10 0 8 1;
#X connect 10 0 13 0;
#X connect 11 0 7 0;
#X restore 510 356 pd tremolo;
#X obj 118 46 r wahwah;
#X obj 126 105 r distortion;
#X obj 130 160 r bitCrush;
#X obj 127 216 r chorus;
#X obj 115 278 r delay;
#X obj 127 243 expr ($f1/1023)*5;
#X obj 130 187 expr ($f1/1023)*127;
#X obj 125 132 expr ($f1/1023)*127;
#X obj 118 73 expr ($f1/1023)*20;
#X obj 115 305 / 1023;
#X obj 177 355 expr ($f1/1023)*127;
#X obj 183 430 expr ($f1/1023)*127;
#X obj 177 318 r ringMod;
#X obj 183 393 r verb;
#X obj 179 508 expr ($f1/1023)*127;
#X obj 179 471 r cutoff;
#X connect 0 0 2 0;
#X connect 2 0 3 0;
#X connect 3 0 4 0;
#X connect 4 0 10 0;
#X connect 5 0 7 0;
#X connect 6 0 5 0;
#X connect 7 0 1 0;
#X connect 8 0 6 0;
#X connect 10 0 8 0;
#X connect 13 0 21 0;
#X connect 14 0 20 0;
#X connect 15 0 19 0;
#X connect 16 0 18 0;
#X connect 17 0 22 0;
#X connect 18 0 10 1;
#X connect 19 0 4 1;
#X connect 20 0 3 1;
#X connect 21 0 2 1;
#X connect 22 0 8 1;
#X connect 23 0 6 1;
#X connect 24 0 5 1;
#X connect 25 0 23 0;
#X connect 26 0 24 0;
#X connect 27 0 7 1;
#X connect 28 0 27 0;
#X restore 234 124 pd effect_pad;
#X obj 349 144 inlet~;
#X floatatom 472 140 5 0 0 0 - - -;
#X obj 309 191 +~;
#X msg 372 171 \$1 50;
#X obj 217 180 s~ input;
#X obj 233 80 catch~ audio;
#N canvas -8 -8 1920 997 loop_IO 0;
#X obj 42 42 r~ lp-out-1;
#X obj 61 71 r~ lp-out-2;
#X obj 74 102 r~ lp-out-3;
#X obj 101 131 r~ lp-out-4;
#X obj 127 164 r~ lp-out-5;
#X obj 146 193 r~ lp-out-6;
#X obj 164 224 r~ lp-out-7;
#X obj 176 258 r~ lp-out-8;
#X obj 175 316 outlet~;
#X connect 0 0 8 0;
#X connect 1 0 8 0;
#X connect 2 0 8 0;
#X connect 3 0 8 0;
#X connect 4 0 8 0;
#X connect 5 0 8 0;
#X connect 6 0 8 0;
#X connect 7 0 8 0;
#X restore 113 190 pd loop_IO;
#X connect 1 0 2 1;
#X connect 2 0 0 0;
#X connect 2 0 0 1;
#X connect 3 0 4 0;
#X connect 4 0 9 0;
#X connect 5 0 6 0;
#X connect 6 0 9 0;
#X connect 7 0 10 0;
#X connect 7 0 12 0;
#X connect 8 0 10 1;
#X connect 9 0 11 0;
#X connect 10 0 2 0;
#X connect 11 0 1 0;
#X connect 13 0 7 0;
#X connect 14 0 2 0;
#X restore 220 275 pd volControl;
#N canvas 285 201 1447 840 connect 0;
#X obj 22 -23 loadbang;
#X obj 30 72 s portMsg;
#X msg 30 46 print -start/;
#X obj 18 164 outlet;
#X obj 140 27 tgl 15 0 empty empty empty 17 7 0 10 -262144 -1 -1 1
1;
#X msg 140 54 \; pd dsp \$1;
#X msg 139 3 1;
#X obj 138 -23 loadbang;
#X obj 30 16 del 10;
#X connect 0 0 8 0;
#X connect 0 0 3 0;
#X connect 2 0 1 0;
#X connect 4 0 5 0;
#X connect 6 0 4 0;
#X connect 7 0 6 0;
#X connect 8 0 2 0;
#X restore 221 304 pd connect;
#N canvas -8 -8 1920 997 audio-IO 0;
#N canvas -8 -8 1920 997 noteSelect 0;
#X obj 469 365 pack 0 0 0;
#X obj 467 414 route 1 2 3 4;
#X obj 467 450 outlet;
#X obj 516 450 outlet;
#X obj 566 450 outlet;
#X obj 623 450 outlet;
#X obj 470 194 unpack 0 0;
#X obj 880 124 r oct;
#X obj 470 297 pack \$1 \$2;
#X obj 150 136 notein, f 15;
#X obj 150 173 mtof;
#X obj 193 162 sel 0;
#X msg 193 186 0;
#X msg 220 186 1;
#X msg 150 233 \$1 \$2;
#X obj 150 210 pack \$1 \$2;
#X obj 467 339 poly 4 1;
#X obj 34 11 r btn1;
#X obj 94 11 r btn2;
#X obj 164 11 r btn3;
#X obj 234 11 r btn4;
#X obj 304 11 r btn5;
#X obj 371 11 r btn6;
#X obj 441 11 r btn7;
#X obj 523 14 r btn8;
#X obj 611 11 r btn9;
#X obj 692 10 r btn10;
#X obj 762 11 r btn11;
#X obj 832 11 r btn12;
#X obj 902 11 r btn13;
#X obj 969 11 r btn14;
#X obj 1039 11 r btn15;
#X obj 1109 11 r btn16;
#X obj 887 182 hsl 128 15 1 1023 0 0 empty empty empty -2 -8 0 10 -262144
-1 -1 0 1;
#X obj 882 208 / 1023;
#X floatatom 879 288 5 0 0 0 - - -;
#X obj 329 213 unpack 0 0;
#X msg 34 36 0 \$1;
#X msg 94 36 1 \$1;
#X msg 164 35 2 \$1;
#X msg 234 36 3 \$1;
#X msg 304 36 4 \$1;
#X msg 371 36 5 \$1;
#X msg 440 36 6 \$1;
#X msg 523 37 7 \$1;
#X msg 611 36 8 \$1;
#X msg 692 36 9 \$1;
#X msg 762 35 10 \$1;
#X msg 832 36 11 \$1;
#X msg 902 36 12 \$1;
#X msg 969 36 13 \$1;
#X msg 1039 36 14 \$1;
#X msg 1120 37 15 \$1;
#X obj 470 245 mtof;
#X msg 468 318 \$1 \$2;
#X obj 881 262 expr $i1;
#X obj 883 237 * 10;
#X obj 879 310 expr $i1*12;
#X floatatom 879 333 5 0 0 0 - - -;
#X obj 470 221 + \$1;
#X msg 571 231 1;
#X obj 561 201 loadbang;
#X obj 470 273 * \$1;
#X msg 871 377 stop;
#X msg 620 231 0.5;
#X obj 639 165 r instruSel-\$0;
#X obj 640 195 sel 11 12 13;
#X obj 988 350 s portMsg;
#X msg 987 325 print -oct_\$1/;
#X connect 0 0 1 0;
#X connect 1 0 2 0;
#X connect 1 1 3 0;
#X connect 1 2 4 0;
#X connect 1 3 5 0;
#X connect 6 0 59 0;
#X connect 6 1 8 1;
#X connect 7 0 33 0;
#X connect 8 0 54 0;
#X connect 9 0 10 0;
#X connect 9 1 11 0;
#X connect 10 0 15 0;
#X connect 11 0 12 0;
#X connect 11 1 13 0;
#X connect 12 0 15 1;
#X connect 13 0 15 1;
#X connect 14 0 36 0;
#X connect 15 0 14 0;
#X connect 16 0 0 0;
#X connect 16 1 0 1;
#X connect 16 2 0 2;
#X connect 17 0 37 0;
#X connect 18 0 38 0;
#X connect 19 0 39 0;
#X connect 20 0 40 0;
#X connect 21 0 41 0;
#X connect 22 0 42 0;
#X connect 23 0 43 0;
#X connect 24 0 44 0;
#X connect 25 0 45 0;
#X connect 26 0 46 0;
#X connect 27 0 47 0;
#X connect 28 0 48 0;
#X connect 29 0 49 0;
#X connect 30 0 50 0;
#X connect 31 0 51 0;
#X connect 32 0 52 0;
#X connect 33 0 34 0;
#X connect 34 0 56 0;
#X connect 35 0 57 0;
#X connect 35 0 68 0;
#X connect 36 0 8 0;
#X connect 36 1 8 1;
#X connect 37 0 6 0;
#X connect 38 0 6 0;
#X connect 39 0 6 0;
#X connect 40 0 6 0;
#X connect 41 0 6 0;
#X connect 42 0 6 0;
#X connect 43 0 6 0;
#X connect 44 0 6 0;
#X connect 45 0 6 0;
#X connect 46 0 6 0;
#X connect 47 0 6 0;
#X connect 48 0 6 0;
#X connect 49 0 6 0;
#X connect 50 0 6 0;
#X connect 51 0 6 0;
#X connect 52 0 6 0;
#X connect 53 0 62 0;
#X connect 54 0 16 0;
#X connect 55 0 35 0;
#X connect 56 0 55 0;
#X connect 57 0 58 0;
#X connect 58 0 59 1;
#X connect 58 0 63 0;
#X connect 59 0 53 0;
#X connect 60 0 62 1;
#X connect 61 0 60 0;
#X connect 62 0 8 0;
#X connect 63 0 16 0;
#X connect 64 0 62 1;
#X connect 65 0 66 0;
#X connect 66 0 64 0;
#X connect 66 1 64 0;
#X connect 66 2 64 0;
#X connect 66 3 60 0;
#X connect 68 0 67 0;
#X restore 309 44 pd noteSelect;
#N canvas 71 98 409 205 LeadSynth 0;
#X obj 16 162 outlet~;
#X obj 16 105 expr~ $v1+$v2+$v3+$v4;
#X obj 16 131 *~ 0.5;
#X obj 16 10 inlet;
#X obj 109 15 inlet;
#X obj 201 12 inlet;
#X obj 291 12 inlet;
#X obj 16 42 synthLeadVoice;
#X obj 292 42 synthLeadVoice;
#X obj 201 42 synthLeadVoice;
#X obj 109 42 synthLeadVoice;
#X connect 1 0 2 0;
#X connect 2 0 0 0;
#X connect 3 0 7 0;
#X connect 4 0 10 0;
#X connect 5 0 9 0;
#X connect 6 0 8 0;
#X connect 7 0 1 0;
#X connect 8 0 1 0;
#X connect 9 0 1 0;
#X connect 10 0 1 0;
#X restore 208 175 pd LeadSynth;
#N canvas 0 50 554 303 LeadSynthTwo 0;
#X obj 77 33 inlet;
#X obj 125 33 inlet;
#X obj 175 33 inlet;
#X obj 235 33 inlet;
#X obj 37 207 outlet~;
#X obj 37 155 expr~ $v1+$v2+$v3+$v4;
#X obj 37 181 *~ 0.5;
#X obj 132 84 synthLeadVoiceTwo;
#X obj 22 84 synthLeadVoiceTwo;
#X obj 242 84 synthLeadVoiceTwo;
#X obj 352 84 synthLeadVoiceTwo;
#X connect 0 0 8 0;
#X connect 1 0 7 0;
#X connect 2 0 9 0;
#X connect 3 0 10 0;
#X connect 5 0 6 0;
#X connect 6 0 4 0;
#X connect 7 0 5 1;
#X connect 8 0 5 0;
#X connect 9 0 5 2;
#X connect 10 0 5 3;
#X restore 312 175 pd LeadSynthTwo;
#N canvas -8 -8 1920 997 fmSynth 0;
#X obj 16 277 inlet;
#X obj 16 383 outlet~;
#X obj 16 335 expr~ $v1+$v2+$v3+$v4, f 34;
#X obj 16 358 *~ 0.5;
#N canvas 385 158 397 250 opPitch 0;
#X msg 195 119 1.5;
#X msg 225 119 2;
#X msg 256 119 4;
#X msg 286 119 6;
#X msg 317 119 7;
#X msg 94 119 0.5;
#X msg 59 119 0.25;
#X msg 122 119 0.75;
#X msg 159 119 1;
#X msg 16 119 0.125;
#X obj 30 57 sel 0 1 2 3 4 5 6 7 8 9, f 52;
#X obj 33 18 inlet;
#X obj 122 191 s fmOpOnePitch;
#X obj 178 32 s fmOnePitchSel;
#X obj 359 45 inlet;
#X connect 0 0 12 0;
#X connect 1 0 12 0;
#X connect 2 0 12 0;
#X connect 3 0 12 0;
#X connect 4 0 12 0;
#X connect 5 0 12 0;
#X connect 6 0 12 0;
#X connect 7 0 12 0;
#X connect 8 0 12 0;
#X connect 9 0 12 0;
#X connect 10 0 9 0;
#X connect 10 1 6 0;
#X connect 10 2 5 0;
#X connect 10 3 7 0;
#X connect 10 4 8 0;
#X connect 10 5 0 0;
#X connect 10 6 1 0;
#X connect 10 7 2 0;
#X connect 10 8 3 0;
#X connect 10 9 4 0;
#X connect 11 0 10 0;
#X connect 11 0 13 0;
#X connect 14 0 12 0;
#X restore 28 234 pd opPitch;
#X obj 28 78 vradio 15 1 0 10 empty empty empty 0 -8 0 10 -204800 -1
-1 4;
#X obj 891 82 vsl 15 128 1 3000 0 0 envAttack empty empty 0 -9 0 10
-262144 -1 -1 0 1;
#X obj 917 82 vsl 15 128 1 3000 0 0 envDecay empty empty 0 -9 0 10
-262144 -1 -1 0 1;
#X obj 938 82 vsl 15 128 0 1 0 0 envSustain empty empty 0 -9 0 10 -262144
-1 -1 0 1;
#X obj 963 82 vsl 15 128 1 3000 0 0 envRelease empty empty 0 -9 0 10
-262144 -1 -1 0 1;
#X obj 282 82 vsl 15 128 0 10 0 0 lfoOneFreq empty empty 0 -9 0 10
-4032 -1 -1 0 1;
#X obj 101 82 vsl 15 127 1 2000 0 0 fmOpOneAmt empty empty 0 -9 0 10
-4032 -1 -1 0 1;
#X obj 150 82 vsl 15 127 1 3000 0 0 fmOpOneAttack empty empty 0 -9
0 10 -204800 -1 -1 0 1;
#X obj 180 82 vsl 15 127 1 3000 0 0 fmOpOneDecay empty empty 0 -9 0
10 -204800 -1 -1 0 1;
#X obj 210 82 vsl 15 127 1 3000 0 0 fmOpOneSustain empty empty 0 -9
0 10 -204800 -1 -1 0 1;
#X obj 240 82 vsl 15 127 1 3000 0 0 fmOpOneRelease empty empty 0 -9
0 10 -204800 -1 -1 0 1;
#N canvas 385 158 397 250 opPitch 0;
#X msg 195 119 1.5;
#X msg 225 119 2;
#X msg 256 119 4;
#X msg 286 119 6;
#X msg 317 119 7;
#X msg 94 119 0.5;
#X msg 59 119 0.25;
#X msg 122 119 0.75;
#X msg 159 119 1;
#X msg 16 119 0.125;
#X obj 30 57 sel 0 1 2 3 4 5 6 7 8 9, f 52;
#X obj 33 18 inlet;
#X obj 122 191 s fmOpTwoPitch;
#X obj 183 28 s fmTwoPitchSel;
#X connect 0 0 12 0;
#X connect 1 0 12 0;
#X connect 2 0 12 0;
#X connect 3 0 12 0;
#X connect 4 0 12 0;
#X connect 5 0 12 0;
#X connect 6 0 12 0;
#X connect 7 0 12 0;
#X connect 8 0 12 0;
#X connect 9 0 12 0;
#X connect 10 0 9 0;
#X connect 10 1 6 0;
#X connect 10 2 5 0;
#X connect 10 3 7 0;
#X connect 10 4 8 0;
#X connect 10 5 0 0;
#X connect 10 6 1 0;
#X connect 10 7 2 0;
#X connect 10 8 3 0;
#X connect 10 9 4 0;
#X connect 11 0 10 0;
#X connect 11 0 13 0;
#X restore 428 234 pd opPitch;
#X obj 428 78 vradio 15 1 0 10 empty empty empty 0 -8 0 10 -262130
-1 -1 4;
#X obj 501 82 vsl 15 127 1 2000 0 0 fmOpTwoAmt empty empty 0 -9 0 10
-257985 -1 -1 0 1;
#X obj 550 82 vsl 15 127 1 3000 0 0 fmOpTwoAttack empty empty 0 -9
0 10 -262130 -1 -1 0 1;
#X obj 580 82 vsl 15 127 1 3000 0 0 fmOpTwoDecay empty empty 0 -9 0
10 -262130 -1 -1 0 1;
#X obj 610 82 vsl 15 127 1 3000 0 0 fmOpTwoSustain empty empty 0 -9
0 10 -262130 -1 -1 0 1;
#X obj 640 82 vsl 15 127 1 3000 0 0 fmOpTwoRelease empty empty 0 -9
0 10 -262130 -1 -1 0 1;
#X obj 88 277 inlet;
#X obj 153 277 inlet;
#X obj 218 277 inlet;
#N canvas 17 26 1368 285 storeFMValues 0;
#X obj 99 27 r fmOpOneAmt;
#X obj 180 27 r fmOpOneAttack;
#X obj 31 52 inlet;
#X obj 280 27 r fmOpOneDecay;
#X obj 370 27 r fmOpOneSustain;
#X obj 475 27 r fmOpOneRelease;
#X obj 442 195 r fmOpTwoAmt;
#X obj 523 195 r fmOpTwoAttack;
#X obj 623 195 r fmOpTwoDecay;
#X obj 713 195 r fmOpTwoSustain;
#X obj 818 195 r fmOpTwoRelease;
#X obj 781 25 r envAttack;
#X obj 856 25 r envDecay;
#X obj 926 25 r envSustain;
#X obj 1006 25 r envRelease;
#X obj 2 27 r fmOnePitchSel;
#X obj 345 195 r fmTwoPitchSel;
#X obj 578 27 r lfoOneFreq;
#X obj 657 27 r lfoOneAmt;
#X obj 921 195 r lfoTwoFreq;
#X obj 1001 195 r lfoTwoAmt;
#X obj 1073 124 r crossMod;
#X obj 1098 63 r envAttackLev;
#X obj 16 106 pack f f f f f f f f f f f f f f f f f f f f f f, f
162;
#X obj 49 218 outlet;
#X connect 0 0 23 1;
#X connect 1 0 23 2;
#X connect 2 0 23 0;
#X connect 3 0 23 3;
#X connect 4 0 23 4;
#X connect 5 0 23 5;
#X connect 6 0 23 9;
#X connect 7 0 23 10;
#X connect 8 0 23 11;
#X connect 9 0 23 12;
#X connect 10 0 23 13;
#X connect 11 0 23 16;
#X connect 12 0 23 17;
#X connect 13 0 23 18;
#X connect 14 0 23 19;
#X connect 15 0 23 0;
#X connect 16 0 23 8;
#X connect 17 0 23 6;
#X connect 18 0 23 7;
#X connect 19 0 23 14;
#X connect 20 0 23 15;
#X connect 21 0 23 20;
#X connect 22 0 23 21;
#X connect 23 0 24 0;
#X restore 878 316 pd storeFMValues;
#X obj 878 293 bng 15 250 50 0 empty empty empty 17 7 0 10 -262144
-1 -1;
#X obj 800 365 metro 20;
#X msg 800 342 1;
#X obj 800 294 loadbang;
#X obj 800 388 s snap;
#X obj 322 82 vsl 15 128 0 0.05 0 0 lfoOneAmt empty empty 0 -9 0 10
-4032 -1 -1 0 1;
#X obj 692 82 vsl 15 128 0 10 0 0 lfoTwoFreq empty empty 0 -9 0 10
-257985 -1 -1 0 1;
#X obj 732 82 vsl 15 128 0 0.05 0 0 lfoTwoAmt empty empty 0 -9 0 10
-257985 -1 -1 0 1;
#X obj 28 13 r fmPresets;
#X obj 60 86 vsl 15 128 0.125 20 0 0 empty empty empty 0 -9 0 10 -262144
-1 -1 0 1;
#X obj 1013 145 vsl 15 128 0 10 0 0 crossMod empty empty 0 -9 0 10
-262144 -1 -1 0 1;
#X obj 218 308 fmVoice 4;
#X obj 153 308 fmVoice 3;
#X obj 16 308 fmVoice 1, f 10;
#X obj 88 308 fmVoice 2;
#X obj 28 47 unpack f f f f f f f f f f f f f f f f f f f f f f, f
154;
#X obj 842 116 vsl 15 128 0 1 0 0 envAttackLev empty empty 0 -9 0 10
-262144 -1 -1 0 1;
#X obj 882 363 print;
#X obj 800 317 delay 120;
#X connect 0 0 40 0;
#X connect 2 0 3 0;
#X connect 3 0 1 0;
#X connect 5 0 4 0;
#X connect 17 0 16 0;
#X connect 23 0 41 0;
#X connect 24 0 39 0;
#X connect 25 0 38 0;
#X connect 27 0 26 0;
#X connect 28 0 31 0;
#X connect 29 0 28 0;
#X connect 30 0 45 0;
#X connect 35 0 42 0;
#X connect 36 0 4 1;
#X connect 38 0 2 3;
#X connect 39 0 2 2;
#X connect 40 0 2 0;
#X connect 41 0 2 1;
#X connect 42 0 5 0;
#X connect 42 1 11 0;
#X connect 42 2 12 0;
#X connect 42 3 13 0;
#X connect 42 4 14 0;
#X connect 42 5 15 0;
#X connect 42 6 10 0;
#X connect 42 7 32 0;
#X connect 42 8 17 0;
#X connect 42 9 18 0;
#X connect 42 10 19 0;
#X connect 42 11 20 0;
#X connect 42 12 21 0;
#X connect 42 13 22 0;
#X connect 42 14 33 0;
#X connect 42 15 34 0;
#X connect 42 16 6 0;
#X connect 42 17 7 0;
#X connect 42 18 8 0;
#X connect 42 19 9 0;
#X connect 42 20 37 0;
#X connect 42 21 43 0;
#X connect 45 0 29 0;
#X restore 573 171 pd fmSynth;
#N canvas 155 246 515 315 leadSynthThree 0;
#X obj 67 33 inlet;
#X obj 135 33 inlet;
#X obj 185 33 inlet;
#X obj 245 33 inlet;
#X obj 37 207 outlet~;
#X obj 37 155 expr~ $v1+$v2+$v3+$v4;
#X obj 37 181 *~ 0.5;
#X obj 12 84 synthLeadVoiceThree;
#X obj 142 84 synthLeadVoiceThree;
#X obj 262 84 synthLeadVoiceThree;
#X obj 382 84 synthLeadVoiceThree;
#X connect 0 0 7 0;
#X connect 1 0 8 0;
#X connect 2 0 9 0;
#X connect 3 0 10 0;
#X connect 5 0 6 0;
#X connect 6 0 4 0;
#X connect 7 0 5 0;
#X connect 8 0 5 1;
#X connect 9 0 5 2;
#X connect 10 0 5 3;
#X restore 436 174 pd leadSynthThree;
#X obj 377 446 line~;
#X obj 348 493 *~;
#X obj 595 444 hsl 128 15 0 1 0 0 empty empty empty -2 -8 0 10 -262144
-1 -1 0 1;
#X obj 662 344 r instuVol;
#N canvas -37 157 1920 997 instrumentSel 0;
#X obj 903 42 inlet~;
#X obj 1067 51 inlet~;
#X obj 1424 48 inlet~;
#X obj 904 217 *~;
#X obj 937 190 line~;
#X msg 937 160 1 10;
#X msg 976 159 0 10;
#X obj 944 96 r instruSel-\$0;
#X obj 937 130 sel 5, f 7;
#X obj 1061 225 *~;
#X obj 1094 198 line~;
#X msg 1094 168 1 10;
#X msg 1133 167 0 10;
#X obj 1101 104 r instruSel-\$0;
#X obj 1064 475 outlet~;
#X obj 1094 138 sel 6, f 7;
#X obj 1228 49 inlet~;
#X obj 1222 223 *~;
#X obj 1255 196 line~;
#X msg 1255 166 1 10;
#X msg 1294 165 0 10;
#X obj 1262 102 r instruSel-\$0;
#X obj 1255 136 sel 7, f 7;
#X obj 1391 257 *~;
#X obj 1439 236 line~;
#X msg 1446 192 1 10;
#X msg 1574 207 0 10;
#X obj 1458 94 r instruSel-\$0;
#X obj 1451 128 sel 8 9 10 11 12 13 14 15 16;
#N canvas -19 211 1920 997 fmpreset 0;
#X text 241 452 bass;
#X text 188 332 padz;
#X text 280 575 keyz;
#X obj 165 700 s fmPresets;
#X msg 184 347 2 365.897 1048.27 500.833 310.421 1310.09 0.787402 0.0129921
6 952.905 1333.89 2761.98 381.825 1143.48 0.393701 0.00314961 1016.41
307.984 0.173228 1417.85 0.0787402 0.19685, f 172;
#X msg 244 470 4 1 929.262 834.056 120.008 596.04 0 0 2 1 1 1333.89
405.627 167.611 9.05512 0.00511811 1 1016.41 0.314961 119.071 0.944882
1, f 149;
#X msg 253 505 2 318.302 1 143.81 72.4048 1 2.51969 0 5 556.278 1 48.6032
1 1 1.65354 0.0358268 1 709.425 0 1 0.23622 1, f 143;
#X msg 262 533 5 238.976 619.841 1262.48 857.857 1 3.85827 0.0314961
2 365.897 667.444 1262.48 453.23 215.214 1.33858 0.0173228 71.8425
1063.64 0.228346 189.913 0 1, f 145;
#X msg 223 409 9 1 1 1 72.4048 1548.1 7.16535 0.0110236 9 64.4603 1072.07
572.238 120.008 596.04 3.38583 0.00551181 1040.02 1110.87 0.220472
1276.17 2.67717 0.362205, f 144;
#X msg 208 381 4 350.032 3000 1905.13 286.619 477.032 0.551181 0.0133858
4 397.627 2357.36 976.865 667.444 1286.29 0 0 1 709.425 0.204724 1276.17
0.551181 0.188976, f 149;
#X msg 289 634 9 1 1 1 500.833 1191.08 0.551181 0.0165354 9 651.468
1 715.048 596.04 1214.88 6.77165 0.011811 1 284.37 0.110236 1299.78
3.46457 0.173228, f 124;
#X msg 300 672 6 746.659 1 548.437 167.611 167.611 5.59055 0.00629921
4 445.222 1 572.238 48.6032 143.81 5.90551 0.0106299 1 1063.64 0.149606
1299.78 1.10236 0.251969, f 135;
#X msg 280 593 4 762.524 1 1809.92 286.619 834.056 0.944882 0.00551181
5 1016.37 1 1262.48 167.611 239.016 7.87402 0.0023622 1 544.126 0.15748
803.882 0.944882 0.307087, f 127;
#X obj 193 275 sel 8 9 10 11 12 13 14 15 16;
#X obj 188 239 r instruSel-\$0;
#X connect 4 0 3 0;
#X connect 5 0 3 0;
#X connect 6 0 3 0;
#X connect 7 0 3 0;
#X connect 8 0 3 0;
#X connect 9 0 3 0;
#X connect 10 0 3 0;
#X connect 11 0 3 0;
#X connect 12 0 3 0;
#X connect 13 0 4 0;
#X connect 13 1 9 0;
#X connect 13 2 8 0;
#X connect 13 3 5 0;
#X connect 13 4 6 0;
#X connect 13 5 7 0;
#X connect 13 6 12 0;
#X connect 13 7 10 0;
#X connect 13 8 11 0;
#X connect 14 0 13 0;
#X restore 1446 293 pd fmpreset;
#X obj 133 33 inlet~;
#X obj 297 42 inlet~;
#X obj 665 39 inlet~;
#X obj 458 40 inlet~;
#X obj 174 299 *~;
#X obj 207 272 line~;
#X msg 207 242 1 10;
#X msg 246 241 0 10;
#X obj 214 178 r instruSel-\$0;
#X obj 331 307 *~;
#X obj 364 280 line~;
#X msg 364 250 1 10;
#X msg 403 249 0 10;
#X obj 371 186 r instruSel-\$0;
#X obj 492 305 *~;
#X obj 525 278 line~;
#X msg 525 248 1 10;
#X msg 564 247 0 10;
#X obj 532 184 r instruSel-\$0;
#X obj 207 212 sel 1, f 7;
#X obj 643 316 *~;
#X obj 676 290 line~;
#X msg 676 259 1 10;
#X msg 721 259 0 10;
#X obj 683 195 r instruSel-\$0;
#X obj 364 220 sel 2, f 7;
#X obj 525 218 sel 3, f 7;
#X obj 676 229 sel 4, f 7;
#X connect 0 0 3 0;
#X connect 1 0 9 0;
#X connect 2 0 23 0;
#X connect 3 0 14 0;
#X connect 4 0 3 1;
#X connect 5 0 4 0;
#X connect 6 0 4 0;
#X connect 7 0 8 0;
#X connect 8 0 5 0;
#X connect 8 1 6 0;
#X connect 9 0 14 0;
#X connect 10 0 9 1;
#X connect 11 0 10 0;
#X connect 12 0 10 0;
#X connect 13 0 15 0;
#X connect 15 0 11 0;
#X connect 15 1 12 0;
#X connect 16 0 17 0;
#X connect 17 0 14 0;
#X connect 18 0 17 1;
#X connect 19 0 18 0;
#X connect 20 0 18 0;
#X connect 21 0 22 0;
#X connect 22 0 19 0;
#X connect 22 1 20 0;
#X connect 23 0 14 0;
#X connect 24 0 23 1;
#X connect 25 0 24 0;
#X connect 26 0 24 0;
#X connect 27 0 28 0;
#X connect 28 0 25 0;
#X connect 28 1 25 0;
#X connect 28 2 25 0;
#X connect 28 3 25 0;
#X connect 28 4 25 0;
#X connect 28 5 25 0;
#X connect 28 6 25 0;
#X connect 28 7 25 0;
#X connect 28 8 25 0;
#X connect 28 9 26 0;
#X connect 30 0 34 0;
#X connect 31 0 39 0;
#X connect 32 0 50 0;
#X connect 33 0 44 0;
#X connect 34 0 14 0;
#X connect 35 0 34 1;
#X connect 36 0 35 0;
#X connect 37 0 35 0;
#X connect 38 0 49 0;
#X connect 39 0 14 0;
#X connect 40 0 39 1;
#X connect 41 0 40 0;
#X connect 42 0 40 0;
#X connect 43 0 55 0;
#X connect 44 0 14 0;
#X connect 45 0 44 1;
#X connect 46 0 45 0;
#X connect 47 0 45 0;
#X connect 48 0 56 0;
#X connect 49 0 36 0;
#X connect 49 1 37 0;
#X connect 50 0 14 0;
#X connect 51 0 50 1;
#X connect 52 0 51 0;
#X connect 53 0 51 0;
#X connect 54 0 57 0;
#X connect 55 0 41 0;
#X connect 55 1 42 0;
#X connect 56 0 46 0;
#X connect 56 1 47 0;
#X connect 57 0 52 0;
#X connect 57 1 53 0;
#X restore 349 263 pd instrumentSel;
#N canvas 207 69 1571 891 drum 0;
#X obj 17 22 sample btn1 electro_drum/1-Kick01.wav drum1;
#X obj 346 22 sample btn2 electro_drum/2-Kick02.wav drum1;
#X obj 703 22 sample btn3 electro_drum/3-Kick03.wav drum1;
#X obj 1059 21 sample btn4 electro_drum/4-Tom01.wav drum1;
#X obj 17 54 sample btn5 electro_drum/5-Tom02.wav drum1;
#X obj 345 54 sample btn6 electro_drum/6-Tom03.wav drum1;
#X obj 702 55 sample btn7 electro_drum/7-Tom04.wav drum1;
#X obj 1059 53 sample btn8 electro_drum/8-Snr01.wav drum1;
#X obj 17 92 sample btn9 electro_drum/9-Snr02.wav drum1;
#X obj 342 92 sample btn10 electro_drum/10-Snr03.wav drum1;
#X obj 703 92 sample btn11 electro_drum/11-ClHat01.wav drum1;
#X obj 1059 92 sample btn12 electro_drum/12-ClHat02.wav drum1;
#X obj 18 124 sample btn13 electro_drum/13-HfHat.wav drum1;
#X obj 345 122 sample btn14 electro_drum/14-Cymbal01.wav drum1;
#X obj 702 124 sample btn15 electro_drum/15-Cymbal02.wav drum1;
#X obj 1058 123 sample btn16 electro_drum/16-Clap.wav drum1;
#X obj 15 188 outlet~;
#X obj 82 369 outlet~;
#X obj 84 203 sample btn1 acoustic_drum/1-Kick01.wav drum2;
#X obj 428 202 sample btn2 acoustic_drum/2-Kick93.wav drum2;
#X obj 785 202 sample btn3 acoustic_drum/3-Tom01a.wav drum2;
#X obj 1141 201 sample btn4 acoustic_drum/4-Tom01b.wav drum2;
#X obj 84 235 sample btn5 acoustic_drum/5-Tom03b.wav drum2;
#X obj 427 234 sample btn6 acoustic_drum/6-SdSt01.wav drum2;
#X obj 784 235 sample btn7 acoustic_drum/7-SdSt03.wav drum2;
#X obj 1141 233 sample btn8 acoustic_drum/8-Snr01.wav drum2;
#X obj 84 273 sample btn9 acoustic_drum/9-Snr02.wav drum2;
#X obj 424 272 sample btn10 acoustic_drum/10-Rim01.wav drum2;
#X obj 1141 272 sample btn12 acoustic_drum/12-ClHat01.wav drum2;
#X obj 785 272 sample btn11 electro_drum/11-ClHat01.wav drum2;
#X obj 85 305 sample btn13 acoustic_drum/13-ClHat02.wav drum2;
#X obj 427 302 sample btn14 acoustic_drum/14-OpHat01.wav drum2;
#X obj 784 304 sample btn15 acoustic_drum/15-OpHat02.wav drum2;
#X obj 1140 303 sample btn16 acoustic_drum/16-PdHat.wav drum2;
#X obj 164 557 outlet~;
#X obj 167 391 sample btn1 dj_mustard_kit/1-Kick.wav drum3;
#X obj 510 390 sample btn2 dj_mustard_kit/2-Kick.wav drum3;
#X obj 867 390 sample btn3 dj_mustard_kit/3-Snare.wav drum3;
#X obj 1223 389 sample btn4 dj_mustard_kit/4-Snare.wav drum3;
#X obj 166 423 sample btn5 dj_mustard_kit/5-Snare.wav drum3;
#X obj 509 422 sample btn6 dj_mustard_kit/6-Snap.wav drum3;
#X obj 867 423 sample btn7 dj_mustard_kit/7-Snap.wav drum3;
#X obj 1223 421 sample btn8 dj_mustard_kit/8-Clap.wav drum3;
#X obj 166 461 sample btn9 dj_mustard_kit/9-Clap.wav drum3;
#X obj 506 460 sample btn10 dj_mustard_kit/10-HiHat.wav drum3;
#X obj 867 460 sample btn11 dj_mustard_kit/11-CowBell.wav drum3;
#X obj 1223 460 sample btn12 dj_mustard_kit/12-Cymbal.wav drum3;
#X obj 167 493 sample btn13 dj_mustard_kit/13-Crash.wav drum3;
#X obj 509 490 sample btn14 dj_mustard_kit/14-Chant.wav drum3;
#X obj 866 492 sample btn15 dj_mustard_kit/15-808.wav drum3;
#X obj 1222 491 sample btn16 dj_mustard_kit/16-808.wav drum3;
#X obj 252 741 outlet~;
#X obj 256 575 sample btn1 x.shulz_lofi/1-kick.wav drum4;
#X obj 598 574 sample btn2 x.shulz_lofi/2-kick.wav drum4;
#X obj 955 575 sample btn3 x.shulz_lofi/3-kick.wav drum4;
#X obj 1310 572 sample btn4 x.shulz_lofi/4-grit1.wav drum4;
#X obj 254 607 sample btn5 x.shulz_lofi/5-grit2.wav drum4;
#X obj 955 607 sample btn7 x.shulz_lofi/7-snare.wav drum4;
#X obj 597 606 sample btn6 x.shulz_lofi/6-grit3.wav drum4;
#X obj 1311 605 sample btn8 x.shulz_lofi/8-snare.wav drum4;
#X obj 246 645 sample btn9 x.shulz_lofi/9-dilla_snare.wav drum4;
#X obj 594 644 sample btn10 x.shulz_lofi/10-snare22.wav drum4;
#X obj 955 644 sample btn11 x.shulz_lofi/11-snare23.wav drum4;
#X obj 1311 644 sample btn12 x.shulz_lofi/12-grit_hat.wav drum4;
#X obj 239 677 sample btn13 x.shulz_lofi/13-openhihat3.wav drum4;
#X obj 594 676 sample btn14 x.shulz_lofi/14-hat_5.wav drum4;
#X obj 954 676 sample btn15 x.shulz_lofi/15-perc3.wav drum4;
#X obj 1310 675 sample btn16 x.shulz_lofi/16-perc4.wav drum4;
#X connect 0 0 16 0;
#X connect 1 0 16 0;
#X connect 2 0 16 0;
#X connect 3 0 16 0;
#X connect 4 0 16 0;
#X connect 5 0 16 0;
#X connect 6 0 16 0;
#X connect 7 0 16 0;
#X connect 8 0 16 0;
#X connect 9 0 16 0;
#X connect 10 0 16 0;
#X connect 11 0 16 0;
#X connect 12 0 16 0;
#X connect 13 0 16 0;
#X connect 14 0 16 0;
#X connect 15 0 16 0;
#X connect 18 0 17 0;
#X connect 19 0 17 0;
#X connect 20 0 17 0;
#X connect 21 0 17 0;
#X connect 22 0 17 0;
#X connect 23 0 17 0;
#X connect 24 0 17 0;
#X connect 25 0 17 0;
#X connect 26 0 17 0;
#X connect 27 0 17 0;
#X connect 28 0 17 0;
#X connect 29 0 17 0;
#X connect 30 0 17 0;
#X connect 31 0 17 0;
#X connect 32 0 17 0;
#X connect 33 0 17 0;
#X connect 35 0 34 0;
#X connect 36 0 34 0;
#X connect 37 0 34 0;
#X connect 38 0 34 0;
#X connect 39 0 34 0;
#X connect 40 0 34 0;
#X connect 41 0 34 0;
#X connect 42 0 34 0;
#X connect 43 0 34 0;
#X connect 44 0 34 0;
#X connect 45 0 34 0;
#X connect 46 0 34 0;
#X connect 47 0 34 0;
#X connect 48 0 34 0;
#X connect 49 0 34 0;
#X connect 50 0 34 0;
#X connect 52 0 51 0;
#X connect 53 0 51 0;
#X connect 54 0 51 0;
#X connect 55 0 51 0;
#X connect 56 0 51 0;
#X connect 57 0 51 0;
#X connect 58 0 51 0;
#X connect 59 0 51 0;
#X connect 60 0 51 0;
#X connect 61 0 51 0;
#X connect 62 0 51 0;
#X connect 63 0 51 0;
#X connect 64 0 51 0;
#X connect 65 0 51 0;
#X connect 66 0 51 0;
#X connect 67 0 51 0;
#X restore 177 45 pd drum;
#X obj 662 370 / 1023;
#X msg 403 402 \$1 50;
#X obj 349 286 *~ 1;
#X obj 662 416 line;
#X msg 662 393 \$1 50;
#X obj 347 529 throw~ audio;
#X connect 0 0 2 0;
#X connect 0 0 1 0;
#X connect 0 0 4 0;
#X connect 0 0 3 0;
#X connect 0 1 2 1;
#X connect 0 1 1 1;
#X connect 0 1 4 1;
#X connect 0 1 3 1;
#X connect 0 2 2 2;
#X connect 0 2 1 2;
#X connect 0 2 4 2;
#X connect 0 2 3 2;
#X connect 0 3 2 3;
#X connect 0 3 1 3;
#X connect 0 3 4 3;
#X connect 0 3 3 3;
#X connect 1 0 9 4;
#X connect 2 0 9 5;
#X connect 3 0 9 7;
#X connect 4 0 9 6;
#X connect 5 0 6 1;
#X connect 6 0 16 0;
#X connect 7 0 12 0;
#X connect 8 0 11 0;
#X connect 9 0 13 0;
#X connect 10 0 9 0;
#X connect 10 1 9 1;
#X connect 10 2 9 2;
#X connect 10 3 9 3;
#X connect 11 0 15 0;
#X connect 12 0 5 0;
#X connect 13 0 6 0;
#X connect 14 0 7 0;
#X connect 15 0 14 0;
#X restore 224 217 pd audio-IO;
#X obj 223 187 s instruSel-\$0;
#X obj 214 101 hradio 15 1 0 16 empty empty empty 0 -8 0 10 -262144
-1 -1 0;
#X obj 214 121 + 1;
#X obj 238 20 loadbang;
#X msg 238 46 0;
#X obj 179 35 r inst;
#N canvas -8 -8 1920 997 metro 0;
#X msg 198 180 60000;
#X obj 245 178 \$1;
#X obj 194 219 /, f 4;
#X obj 200 146 t b f;
#X obj 194 245 * 16;
#X obj 188 340 metro;
#X obj 194 296 / 256;
#X obj 251 428 mod 256;
#X obj 259 378 f;
#X obj 288 378 + 1;
#X obj 396 444 mod 16;
#X obj 393 469 sel 0;
#X obj 251 457 sel 0;
#X obj 70 271 tgl 50 0 empty empty empty 17 7 0 10 -262144 -1 -1 0
1;
#X obj 423 584 mod 4;
#X obj 423 610 + 1;
#X obj 372 639 div 4;
#X obj 372 662 + 1;
#X obj 423 641 / 10;
#X obj 373 691 +;
#X obj 423 669 t b f;
#X obj 376 538 f;
#X obj 405 538 + 1;
#X obj 375 562 mod 16;
#X obj 250 588 + 1;
#X obj 490 125 soundfiler;
#X obj 497 18 table \$0-metro;
#X obj 499 43 loadbang;
#X msg 499 94 read -resize metronome.wav \$1-metro;
#X obj 499 67 \$0, f 4;
#X obj 643 834 line~;
#X obj 501 884 *~;
#X msg 643 802 \$1 20;
#X obj 507 737 tabplay~ \$0-metro;
#X obj 292 21 r metroSpeed;
#X obj 293 50 sel 1 0;
#X msg 292 77 1;
#X msg 327 74 -1;
#X obj 299 110 +;
#X obj 338 148 f;
#X obj 337 202 f;
#X obj 370 57 loadbang;
#X obj 370 80 del 50;
#X obj 250 638 s portMsg;
#X msg 249 615 print -room_\$1/;
#X obj 71 665 loadbang;
#X obj 72 742 s portMsg;
#X msg 71 717 print -bar_1.1/;
#X obj 71 692 del 20;
#X msg 70 605 print -bpm_\$1/;
#X obj 71 630 s portMsg;
#X obj 373 768 s portMsg;
#X msg 372 743 print -bar_\$1/;
#X msg 368 108 80;
#X obj 251 486 s f;
#X obj 80 112 r metroOnOff;
#X obj 69 226 sel 1;
#X obj 69 341 sel 0;
#X obj 73 198 spigot;
#X obj 121 152 r block;
#X obj 121 178 tgl 15 0 empty empty empty 17 7 0 10 -262144 -1 -1 1
1;
#X msg 463 504 0;
#X msg 282 342 0;
#X msg 585 695 stop;
#X obj 501 910 outlet~;
#X obj 373 715 t b f;
#X obj 337 230 s bpm-\$0;
#X obj 70 575 r bpm-\$0;
#X obj 69 372 s stop;
#X obj 282 319 r stop;
#X obj 586 671 r stop;
#X obj 463 481 r stop;
#X obj 667 752 r metroVol;
#X obj 808 24 loadbang;
#X obj 804 86 s metroVol;
#X msg 806 55 0.5;
#X obj 51 511 s portMsg;
#X msg 21 464 print -stop_1/;
#X msg 131 464 print -stop_0/;
#X obj 132 439 del 50;
#X obj 61 401 r stop;
#X msg 252 548 0;
#X obj 252 525 r stop;
#X obj 314 688 r stop;
#X msg 314 711 1.1;
#X obj 10 369 s rec;
#X obj 36 27 r ClearAll;
#X msg 36 53 0;
#X obj 337 178 expr if($f1<=30 \, 30 \, if($f1>=244 \, 244 \, $f1))
;
#X connect 0 0 2 0;
#X connect 1 0 2 1;
#X connect 2 0 4 0;
#X connect 3 0 0 0;
#X connect 3 1 1 0;
#X connect 4 0 6 0;
#X connect 5 0 8 0;
#X connect 6 0 5 1;
#X connect 7 0 12 0;
#X connect 8 0 9 0;
#X connect 8 0 7 0;
#X connect 8 0 10 0;
#X connect 9 0 8 1;
#X connect 10 0 11 0;
#X connect 11 0 21 0;
#X connect 12 0 54 0;
#X connect 13 0 5 0;
#X connect 13 0 57 0;
#X connect 13 0 85 0;
#X connect 14 0 15 0;
#X connect 15 0 18 0;
#X connect 16 0 17 0;
#X connect 17 0 19 0;
#X connect 18 0 20 0;
#X connect 19 0 65 0;
#X connect 20 0 19 0;
#X connect 20 1 19 1;
#X connect 21 0 22 0;
#X connect 21 0 23 0;
#X connect 22 0 21 1;
#X connect 23 0 24 0;
#X connect 23 0 16 0;
#X connect 23 0 14 0;
#X connect 24 0 44 0;
#X connect 27 0 29 0;
#X connect 28 0 25 0;
#X connect 29 0 28 0;
#X connect 30 0 31 1;
#X connect 31 0 64 0;
#X connect 32 0 30 0;
#X connect 33 0 31 0;
#X connect 34 0 35 0;
#X connect 35 0 36 0;
#X connect 35 1 37 0;
#X connect 36 0 38 0;
#X connect 37 0 38 0;
#X connect 38 0 39 0;
#X connect 39 0 88 0;
#X connect 40 0 66 0;
#X connect 40 0 3 0;
#X connect 41 0 42 0;
#X connect 42 0 53 0;
#X connect 44 0 43 0;
#X connect 45 0 48 0;
#X connect 47 0 46 0;
#X connect 48 0 47 0;
#X connect 49 0 50 0;
#X connect 52 0 51 0;
#X connect 53 0 38 1;
#X connect 53 0 88 0;
#X connect 55 0 58 0;
#X connect 56 0 13 0;
#X connect 57 0 68 0;
#X connect 58 0 56 0;
#X connect 59 0 60 0;
#X connect 60 0 58 1;
#X connect 61 0 21 1;
#X connect 62 0 8 1;
#X connect 63 0 33 0;
#X connect 65 0 33 0;
#X connect 65 1 52 0;
#X connect 67 0 49 0;
#X connect 69 0 62 0;
#X connect 70 0 63 0;
#X connect 71 0 61 0;
#X connect 72 0 32 0;
#X connect 73 0 75 0;
#X connect 75 0 74 0;
#X connect 77 0 76 0;
#X connect 78 0 76 0;
#X connect 79 0 78 0;
#X connect 80 0 77 0;
#X connect 80 0 79 0;
#X connect 81 0 24 0;
#X connect 82 0 81 0;
#X connect 83 0 84 0;
#X connect 84 0 52 0;
#X connect 86 0 87 0;
#X connect 87 0 13 0;
#X connect 88 0 40 0;
#X connect 88 0 38 1;
#X restore 220 248 pd metro;
#X obj 152 491 loop 1;
#X obj 206 491 loop 2;
#X obj 262 491 loop 3;
#X obj 316 491 loop 4;
#X obj 152 519 loop 5;
#X obj 206 519 loop 6;
#X obj 262 519 loop 7;
#X obj 316 519 loop 8;
#X connect 1 0 0 1;
#X connect 2 0 0 0;
#X connect 4 0 2 0;
#X connect 7 0 8 0;
#X connect 8 0 6 0;
#X connect 9 0 10 0;
#X connect 10 0 7 0;
#X connect 11 0 7 0;
#X connect 12 0 3 0;
