#N canvas -8 -8 1920 997 12;
#X obj 368 433 r f;
#X obj 370 532 f;
#X obj 399 532 + 1;
#X msg 464 476 0;
#X obj 427 688 r~ input;
#X msg 384 647 start;
#X msg 437 647 stop;
#X obj 370 584 bng 15 250 50 0 empty empty empty 17 7 0 10 -262144
-1 -1;
#X obj 371 556 sel 0 1;
#X obj 391 583 bng 15 250 50 0 empty empty empty 17 7 0 10 -262144
-1 -1;
#X obj 110 554 *~;
#X obj 125 530 vline~;
#X msg 125 509 \$1 15;
#X obj 110 335 r f;
#X obj 213 443 loadbang;
#X obj 370 498 spigot;
#X obj 413 471 tgl 15 0 empty empty empty 17 7 0 10 -262144 -1 -1 0
1;
#X obj 467 284 + 1;
#X obj 434 332 sel 0 1;
#X obj 435 360 bng 15 250 50 0 empty empty empty 17 7 0 10 -262144
-1 -1;
#X obj 433 284 f;
#X obj 466 359 bng 15 250 50 0 empty empty empty 17 7 0 10 -262144
-1 -1;
#X msg 424 380 1;
#X msg 463 412 0;
#X obj 135 69 bng 15 250 50 0 empty empty empty 17 7 0 10 -262144 -1
-1;
#X msg 620 219 0;
#X obj 543 370 f;
#X obj 572 370 + 1;
#X obj 544 393 mod 2;
#X obj 543 350 bng 15 250 50 0 empty empty empty 17 7 0 10 -262144
-1 -1;
#X msg 532 212 10;
#X obj 39 90 delay 15;
#X obj 466 379 del 1;
#X msg 179 365 stop;
#X obj 179 319 delay 15;
#X msg 227 519 1;
#X msg 213 468 1;
#X obj 113 740 *~;
#X obj 126 712 vline~;
#X msg 128 686 \$1 15;
#X msg 183 631 1;
#X obj 183 606 loadbang;
#X obj 128 877 vline~;
#X obj 108 909 *~;
#X msg 173 849 1 15;
#X msg 128 848 0 15;
#X obj 173 827 delay 15;
#X obj 616 330 s block;
#X obj 257 33 loadbang;
#X msg 256 60 1;
#X obj 255 89 s block;
#X msg 699 265 1;
#X obj 38 25 r clear-\$1;
#X obj 38 211 table \$0-loop-\$1 1.323e+006;
#X obj 355 107 r lp-trig-\$1;
#X obj 532 186 r lp-done-\$1;
#X obj 624 187 r clear-\$1;
#X obj 135 90 s lp-trig-\$1;
#X obj 377 717 tabwrite~ \$0-loop-\$1;
#X obj 497 608 s lp-done-\$1;
#X obj 464 447 r clear-\$1;
#X obj 227 491 r clear-\$1;
#X obj 231 280 r clear-\$1;
#X obj 160 274 r stop;
#X obj 255 604 r clear-\$1;
#X obj 110 419 tabplay~ \$0-loop-\$1;
#X obj 128 799 r clear-\$1;
#X obj 541 474 s mute-\$1;
#X obj 122 471 r mute-\$1;
#X obj 108 935 s~ lp-out-\$1;
#X obj 170 557 r lp-vol-\$1;
#X obj 39 134 pack \$0 \$1;
#X msg 40 165 \; \$1-loop-\$2 const 0 \;;
#X obj 170 580 / 1023;
#X obj 639 537 s portMsg;
#X msg 639 510 print -loop_p_\$1/;
#X obj 641 452 spigot 0;
#X obj 694 391 r rec;
#X obj 641 481 \$1;
#X obj 697 426 tgl 15 0 empty empty empty 17 7 0 10 -262144 -1 -1 0
1;
#X obj 294 788 s portMsg;
#X msg 294 760 print -loop_r_\$1/;
#X obj 438 801 s portMsg;
#X msg 436 775 print -loop_d_\$1/;
#X obj 297 729 \$1;
#X obj 436 748 \$1;
#X obj 393 836 r mute-\$1;
#X obj 334 898 pack \$2 \$1;
#X msg 333 924 print -mut_\$2_\$1/;
#X obj 299 840 r lp-done-\$1;
#X msg 299 865 1;
#X obj 470 827 r clear-\$1;
#X obj 329 954 s portMsg;
#X msg 624 291 0;
#X msg 471 852 2;
#X obj 642 721 r ClearAll;
#X obj 725 220 r ClearAll;
#X obj 292 531 r ClearAll;
#X obj 175 769 r ClearAll;
#X obj 228 241 r ClearAll;
#X obj 477 502 r ClearAll;
#X obj 120 23 r clearAll-\$1;
#X obj 524 26 r lp-done-\$1;
#X obj 473 118 spigot 0;
#X obj 422 179 spigot 0;
#X obj 469 44 r rec;
#X msg 524 49 0;
#X obj 583 50 r clear-\$1;
#X msg 581 76 1;
#X obj 469 67 tgl 15 0 empty empty empty 17 7 0 10 -262144 -1 -1 0
1;
#X obj 534 84 tgl 15 0 empty empty empty 17 7 0 10 -262144 -1 -1 1
1;
#X obj 473 156 tgl 15 0 empty empty empty 17 7 0 10 -262144 -1 -1 0
1;
#X obj 694 19 loadbang;
#X obj 693 45 r clearAll-\$1;
#X obj 551 122 r clearAll-\$1;
#X msg 551 144 0;
#X connect 0 0 15 0;
#X connect 1 0 2 0;
#X connect 1 0 8 0;
#X connect 2 0 1 1;
#X connect 3 0 1 1;
#X connect 3 0 16 0;
#X connect 4 0 58 0;
#X connect 5 0 58 0;
#X connect 6 0 58 0;
#X connect 7 0 5 0;
#X connect 7 0 84 0;
#X connect 8 0 7 0;
#X connect 8 1 9 0;
#X connect 9 0 6 0;
#X connect 9 0 59 0;
#X connect 9 0 85 0;
#X connect 10 0 37 0;
#X connect 11 0 10 1;
#X connect 12 0 11 0;
#X connect 13 0 65 0;
#X connect 14 0 36 0;
#X connect 15 0 1 0;
#X connect 16 0 15 1;
#X connect 17 0 20 1;
#X connect 18 0 19 0;
#X connect 18 1 21 0;
#X connect 18 2 29 0;
#X connect 19 0 22 0;
#X connect 19 0 76 0;
#X connect 20 0 17 0;
#X connect 20 0 18 0;
#X connect 21 0 32 0;
#X connect 22 0 16 0;
#X connect 22 0 93 0;
#X connect 23 0 16 0;
#X connect 24 0 57 0;
#X connect 25 0 20 1;
#X connect 25 0 26 1;
#X connect 26 0 27 0;
#X connect 26 0 28 0;
#X connect 27 0 26 1;
#X connect 28 0 67 0;
#X connect 29 0 26 0;
#X connect 30 0 20 1;
#X connect 31 0 71 0;
#X connect 32 0 23 0;
#X connect 32 0 85 0;
#X connect 33 0 65 0;
#X connect 34 0 33 0;
#X connect 35 0 12 0;
#X connect 36 0 12 0;
#X connect 37 0 43 0;
#X connect 38 0 37 1;
#X connect 39 0 38 0;
#X connect 40 0 44 0;
#X connect 41 0 40 0;
#X connect 42 0 43 1;
#X connect 43 0 69 0;
#X connect 44 0 42 0;
#X connect 45 0 42 0;
#X connect 46 0 44 0;
#X connect 48 0 49 0;
#X connect 49 0 50 0;
#X connect 51 0 47 0;
#X connect 52 0 31 0;
#X connect 54 0 104 0;
#X connect 55 0 30 0;
#X connect 55 0 51 0;
#X connect 56 0 25 0;
#X connect 60 0 3 0;
#X connect 61 0 35 0;
#X connect 62 0 34 0;
#X connect 63 0 34 0;
#X connect 64 0 40 0;
#X connect 65 0 10 0;
#X connect 66 0 45 0;
#X connect 66 0 46 0;
#X connect 68 0 12 0;
#X connect 70 0 73 0;
#X connect 71 0 72 0;
#X connect 73 0 39 0;
#X connect 75 0 74 0;
#X connect 76 0 78 0;
#X connect 77 0 79 0;
#X connect 78 0 75 0;
#X connect 79 0 76 1;
#X connect 81 0 80 0;
#X connect 83 0 82 0;
#X connect 84 0 81 0;
#X connect 85 0 83 0;
#X connect 86 0 87 0;
#X connect 87 0 88 0;
#X connect 88 0 92 0;
#X connect 89 0 90 0;
#X connect 90 0 87 0;
#X connect 91 0 94 0;
#X connect 93 0 47 0;
#X connect 94 0 87 0;
#X connect 95 0 94 0;
#X connect 96 0 51 0;
#X connect 97 0 35 0;
#X connect 98 0 45 0;
#X connect 98 0 46 0;
#X connect 99 0 34 0;
#X connect 100 0 3 0;
#X connect 101 0 31 0;
#X connect 102 0 106 0;
#X connect 103 0 111 0;
#X connect 104 0 20 0;
#X connect 105 0 109 0;
#X connect 106 0 110 0;
#X connect 107 0 108 0;
#X connect 108 0 110 0;
#X connect 109 0 103 0;
#X connect 110 0 103 1;
#X connect 111 0 104 1;
#X connect 112 0 108 0;
#X connect 113 0 108 0;
#X connect 114 0 115 0;
#X connect 115 0 111 0;
#X connect 115 0 20 1;
#X connect 115 0 26 1;
