#N canvas 915 160 966 988 12;
#X obj 119 458 *~;
#X obj 84 282 sel 1;
#X obj 85 218 inlet;
#X obj 119 484 outlet~;
#X obj 200 270 loadbang;
#X msg 200 294 1;
#X obj 200 380 line~;
#X obj 265 398 load_samp \$1 \$0-\$2;
#X obj 84 324 tabplay~ \$0-\$2;
#X connect 0 0 3 0;
#X connect 1 0 8 0;
#X connect 2 0 1 0;
#X connect 4 0 5 0;
#X connect 5 0 6 0;
#X connect 6 0 0 1;
#X connect 8 0 0 0;
