#N canvas 593 86 1153 856 12;
#X obj 312 695 *~ 0.25;
#X obj 315 742 dac~;
#X obj 133 594 bng 15 250 50 0 empty empty empty 17 7 0 10 -262144
-1 -1;
#X obj 133 567 r kick;
#X obj 531 70 metro 450;
#X obj 531 96 s kick;
#X obj 530 38 tgl 15 0 empty empty empty 17 7 0 10 -262144 -1 -1 0
1;
#N canvas -8 -8 1920 997 kick 0;
#X obj 37 37 inlet;
#X obj 148 285 phasor~;
#X obj 148 311 expr~ $v1 > 0.5;
#X obj 114 505 *~;
#X obj 209 117 f 250;
#X floatatom 239 85 5 0 0 0 - - -;
#N canvas 965 268 450 300 vol_env 0;
#X obj 37 37 inlet;
#X obj 28 114 vline~;
#X msg 31 72 0.5 \, 1 5 \, 0.5 60 5 \, 0 \$1 65;
#X obj 28 140 *~;
#X obj 28 166 outlet~;
#X connect 0 0 2 0;
#X connect 1 0 3 0;
#X connect 1 0 3 1;
#X connect 2 0 1 0;
#X connect 3 0 4 0;
#X restore 37 222 pd vol_env;
#X obj 146 244 *~ 1;
#X floatatom 289 194 5 0 0 1 pitch_scale - -;
#N canvas 965 268 450 300 pitch_env 0;
#X obj 37 37 inlet;
#X obj 28 114 vline~;
#X obj 28 140 *~;
#X obj 31 262 outlet~;
#X msg 31 72 1 \, 0.5 5 \, 0 \$1 5;
#X obj 28 166 *~ 80;
#X obj 28 192 +~ 29;
#X text 88 176 midi pitch - from 109 down to 29;
#X obj 28 218 mtof~;
#X text 97 213 covert to a frequency for the square wave;
#X text 96 232 note the - tilda - for audio rate mtof;
#X connect 0 0 4 0;
#X connect 1 0 2 0;
#X connect 1 0 2 1;
#X connect 2 0 5 0;
#X connect 4 0 1 0;
#X connect 5 0 6 0;
#X connect 6 0 8 0;
#X connect 8 0 3 0;
#X restore 146 199 pd pitch_env;
#X obj 148 368 vcf~ 0.5;
#X obj 305 320 *~ 1.5;
#X floatatom 353 278 5 0 0 1 filter_scale - -;
#X obj 363 420 osc~;
#X floatatom 411 357 5 0 0 1 sine_scale - -;
#X obj 364 394 *~ 0.75;
#X obj 230 50 inlet;
#X obj 290 160 inlet;
#X obj 358 237 inlet;
#X obj 415 321 inlet;
#X obj 114 531 outlet~;
#X connect 0 0 4 0;
#X connect 1 0 2 0;
#X connect 2 0 10 0;
#X connect 3 0 20 0;
#X connect 4 0 6 0;
#X connect 4 0 9 0;
#X connect 5 0 4 1;
#X connect 6 0 3 0;
#X connect 7 0 1 0;
#X connect 7 0 15 0;
#X connect 8 0 7 1;
#X connect 9 0 7 0;
#X connect 9 0 11 0;
#X connect 10 1 3 1;
#X connect 11 0 10 1;
#X connect 12 0 11 1;
#X connect 13 0 3 1;
#X connect 14 0 15 1;
#X connect 15 0 13 0;
#X connect 16 0 5 0;
#X connect 17 0 8 0;
#X connect 18 0 12 0;
#X connect 19 0 14 0;
#X restore 133 614 pd kick;
#X f 39;
#X floatatom 208 554 5 0 0 1 decay - -;
#X floatatom 277 527 5 0 0 1 pitch_scale - -;
#X floatatom 330 557 5 0 0 1 filter_scale - -;
#X floatatom 401 580 5 0 0 1 sine_scale - -;
#X obj 205 411 vsl 15 128 10 2000 0 0 empty kick_decay empty 0 -9 0
10 -262144 -1 -1 0 1;
#X obj 274 380 vsl 15 128 0.1 3 0 0 empty kick_pitch empty 0 -9 0 10
-262144 -1 -1 0 1;
#X obj 337 389 vsl 15 128 0.1 3 0 0 empty kick_filter empty 0 -9 0
10 -262144 -1 -1 0 1;
#X obj 401 415 vsl 15 128 0.1 3 0 0 empty kick_sine empty 0 -9 0 10
-262144 -1 -1 0 1;
#X msg 520 227 \; kick_decay 250 \; kick_pitch 1 \; kick_filter 1.5
\; kick_sine 1 \;;
#X obj 95 134 bng 30 250 50 0 empty empty empty 17 7 0 10 -262144 -1
-1;
#X obj 131 135 bng 30 250 50 0 empty empty empty 17 7 0 10 -262144
-1 -1;
#X obj 173 135 bng 30 250 50 0 empty empty empty 17 7 0 10 -262144
-1 -1;
#X obj 209 135 bng 30 250 50 0 empty empty empty 17 7 0 10 -262144
-1 -1;
#X msg 96 176 1;
#X msg 134 176 2;
#X msg 174 177 3;
#X msg 214 177 4;
#X obj 126 210 sel 1 2 3 4;
#X obj 42 256 t b b;
#X obj 89 299 s kick;
#X obj 29 294 s kick1;
#X obj 158 261 t b b;
#X obj 205 298 s kick;
#X obj 145 299 s kick2;
#X obj 453 347 r kick1;
#X obj 509 178 r kick2;
#X obj 252 260 t b b;
#X obj 316 297 s kick;
#X obj 254 298 s kick3;
#X msg 676 546 \; kick_decay 450 \; kick_pitch 0.8 \; kick_filter 1
\; kick_sine 1 \;;
#X obj 675 495 r kick3;
#X obj 365 260 t b b;
#X obj 429 297 s kick;
#X obj 367 298 s kick4;
#X obj 712 323 r kick4;
#X msg 711 367 \; kick_decay 300 \; kick_pitch 0.5 \; kick_filter 0.5
\; kick_sine 1 \;;
#X msg 521 433 \; kick_decay 300 \; kick_pitch 1.5 \; kick_filter 1
\; kick_sine 0.8 \;;
#X obj 90 95 sel 1;
#X obj 138 95 sel 1;
#X obj 189 95 sel 1;
#X obj 245 95 sel 1;
#X connect 0 0 1 0;
#X connect 0 0 1 1;
#X connect 2 0 7 0;
#X connect 3 0 2 0;
#X connect 4 0 5 0;
#X connect 6 0 4 0;
#X connect 7 0 0 0;
#X connect 8 0 7 1;
#X connect 9 0 7 2;
#X connect 10 0 7 3;
#X connect 11 0 7 4;
#X connect 12 0 8 0;
#X connect 13 0 9 0;
#X connect 14 0 10 0;
#X connect 15 0 11 0;
#X connect 17 0 21 0;
#X connect 18 0 22 0;
#X connect 19 0 23 0;
#X connect 20 0 24 0;
#X connect 21 0 25 0;
#X connect 22 0 25 0;
#X connect 23 0 25 0;
#X connect 24 0 25 0;
#X connect 25 0 26 0;
#X connect 25 1 29 0;
#X connect 25 2 34 0;
#X connect 25 3 39 0;
#X connect 26 0 28 0;
#X connect 26 1 27 0;
#X connect 29 0 31 0;
#X connect 29 1 30 0;
#X connect 32 0 44 0;
#X connect 33 0 16 0;
#X connect 34 0 36 0;
#X connect 34 1 35 0;
#X connect 38 0 37 0;
#X connect 39 0 41 0;
#X connect 39 1 40 0;
#X connect 42 0 43 0;
#X connect 45 0 17 0;
#X connect 46 0 18 0;
#X connect 47 0 19 0;
#X connect 48 0 20 0;
